<svg xmlns="http://www.w3.org/2000/svg" viewBox="0 0 1600 1000"><defs><linearGradient id="bg" x1="0" y1="0" x2="0" y2="1"><stop offset="0" stop-color="#0a1428"/><stop offset="0.5" stop-color="#1a2461"/><stop offset="1" stop-color="#2d1b6e"/></linearGradient><radialGradient id="vig" cx="0.5" cy="0.5" r="0.7"><stop offset="0" stop-color="#000" stop-opacity="0"/><stop offset="1" stop-color="#000" stop-opacity="0.4"/></radialGradient></defs><rect width="1600" height="1000" fill="url(#bg)"/><text x="100" y="80" font-size="48" fill="#80deea" font-weight="bold" letter-spacing="2">信息载体</text><text x="100" y="115" font-size="16" fill="#bbdefb" opacity="0.6">DNA·RNA·神经·脑电·光缆</text><g transform="translate(150,200)" opacity="0.9"><line x1="0.0" y1="0.0" x2="20.0" y2="-0.0" stroke="#80deea" stroke-width="2" opacity="0.7"/><line x1="10.0" y1="0.0" x2="10.0" y2="-0.0" stroke="#fff" stroke-width="0.5" opacity="0.4"/><line x1="20.0" y1="68.24495385272765" x2="40.0" y2="-68.24495385272765" stroke="#80deea" stroke-width="2" opacity="0.7"/><line x1="30.0" y1="68.24495385272765" x2="30.0" y2="-68.24495385272765" stroke="#fff" stroke-width="0.5" opacity="0.4"/><line x1="40.0" y1="30.371861738229075" x2="60.0" y2="-30.371861738229075" stroke="#80deea" stroke-width="2" opacity="0.7"/><line x1="50.0" y1="30.371861738229075" x2="50.0" y2="-30.371861738229075" stroke="#fff" stroke-width="0.5" opacity="0.4"/><line x1="60.0" y1="-54.72820377276208" x2="80.0" y2="54.72820377276208" stroke="#80deea" stroke-width="2" opacity="0.7"/><line x1="70.0" y1="-54.72820377276208" x2="70.0" y2="54.72820377276208" stroke="#fff" stroke-width="0.5" opacity="0.4"/><line x1="80.0" y1="-54.72820377276209" x2="100.0" y2="54.72820377276209" stroke="#80deea" stroke-width="2" opacity="0.7"/><line x1="90.0" y1="-54.72820377276209" x2="90.0" y2="54.72820377276209" stroke="#fff" stroke-width="0.5" opacity="0.4"/><line x1="100.0" y1="30.371861738229054" x2="120.0" y2="-30.371861738229054" stroke="#80deea" stroke-width="2" opacity="0.7"/><line x1="110.0" y1="30.371861738229054" x2="110.0" y2="-30.371861738229054" stroke="#fff" stroke-width="0.5" opacity="0.4"/><line x1="120.0" y1="68.24495385272766" x2="140.0" y2="-68.24495385272766" stroke="#80deea" stroke-width="2" opacity="0.7"/><line x1="130.0" y1="68.24495385272766" x2="130.0" y2="-68.24495385272766" stroke="#fff" stroke-width="0.5" opacity="0.4"/><line x1="140.0" y1="2.5717582782094416e-14" x2="160.0" y2="-2.5717582782094416e-14" stroke="#80deea" stroke-width="2" opacity="0.7"/><line x1="150.0" y1="2.5717582782094416e-14" x2="150.0" y2="-2.5717582782094416e-14" stroke="#fff" stroke-width="0.5" opacity="0.4"/><line x1="160.0" y1="-68.24495385272765" x2="180.0" y2="68.24495385272765" stroke="#80deea" stroke-width="2" opacity="0.7"/><line x1="170.0" y1="-68.24495385272765" x2="170.0" y2="68.24495385272765" stroke="#fff" stroke-width="0.5" opacity="0.4"/><line x1="180.0" y1="-30.3718617382291" x2="200.0" y2="30.3718617382291" stroke="#80deea" stroke-width="2" opacity="0.7"/><line x1="190.0" y1="-30.3718617382291" x2="190.0" y2="30.3718617382291" stroke="#fff" stroke-width="0.5" opacity="0.4"/><line x1="200.0" y1="54.728203772762065" x2="220.0" y2="-54.728203772762065" stroke="#80deea" stroke-width="2" opacity="0.7"/><line x1="210.0" y1="54.728203772762065" x2="210.0" y2="-54.728203772762065" stroke="#fff" stroke-width="0.5" opacity="0.4"/><line x1="220.0" y1="54.72820377276211" x2="240.0" y2="-54.72820377276211" stroke="#80deea" stroke-width="2" opacity="0.7"/><line x1="230.0" y1="54.72820377276211" x2="230.0" y2="-54.72820377276211" stroke="#fff" stroke-width="0.5" opacity="0.4"/><line x1="240.0" y1="-30.37186173822903" x2="260.0" y2="30.37186173822903" stroke="#80deea" stroke-width="2" opacity="0.7"/><line x1="250.0" y1="-30.37186173822903" x2="250.0" y2="30.37186173822903" stroke="#fff" stroke-width="0.5" opacity="0.4"/><line x1="260.0" y1="-68.24495385272766" x2="280.0" y2="68.24495385272766" stroke="#80deea" stroke-width="2" opacity="0.7"/><line x1="270.0" y1="-68.24495385272766" x2="270.0" y2="68.24495385272766" stroke="#fff" stroke-width="0.5" opacity="0.4"/></g><g transform="translate(1100,800)" opacity="0.9"><line x1="0.0" y1="0.0" x2="20.0" y2="-0.0" stroke="#4dd0e1" stroke-width="2" opacity="0.7"/><line x1="10.0" y1="0.0" x2="10.0" y2="-0.0" stroke="#fff" stroke-width="0.5" opacity="0.4"/><line x1="20.0" y1="66.97331826100228" x2="40.0" y2="-66.97331826100228" stroke="#4dd0e1" stroke-width="2" opacity="0.7"/><line x1="30.0" y1="66.97331826100228" x2="30.0" y2="-66.97331826100228" stroke="#fff" stroke-width="0.5" opacity="0.4"/><line x1="40.0" y1="73.2618661324046" x2="60.0" y2="-73.2618661324046" stroke="#4dd0e1" stroke-width="2" opacity="0.7"/><line x1="50.0" y1="73.2618661324046" x2="50.0" y2="-73.2618661324046" stroke="#fff" stroke-width="0.5" opacity="0.4"/><line x1="60.0" y1="13.167567222458757" x2="80.0" y2="-13.167567222458757" stroke="#4dd0e1" stroke-width="2" opacity="0.7"/><line x1="70.0" y1="13.167567222458757" x2="70.0" y2="-13.167567222458757" stroke="#fff" stroke-width="0.5" opacity="0.4"/><line x1="80.0" y1="-58.8579128538505" x2="100.0" y2="58.8579128538505" stroke="#4dd0e1" stroke-width="2" opacity="0.7"/><line x1="90.0" y1="-58.8579128538505" x2="90.0" y2="58.8579128538505" stroke="#fff" stroke-width="0.5" opacity="0.4"/><line x1="100.0" y1="-77.55202127514644" x2="120.0" y2="77.55202127514644" stroke="#4dd0e1" stroke-width="2" opacity="0.7"/><line x1="110.0" y1="-77.55202127514644" x2="110.0" y2="77.55202127514644" stroke="#fff" stroke-width="0.5" opacity="0.4"/><line x1="120.0" y1="-25.975957536374764" x2="140.0" y2="25.975957536374764" stroke="#4dd0e1" stroke-width="2" opacity="0.7"/><line x1="130.0" y1="-25.975957536374764" x2="130.0" y2="25.975957536374764" stroke="#fff" stroke-width="0.5" opacity="0.4"/><line x1="140.0" y1="49.13701701517341" x2="160.0" y2="-49.13701701517341" stroke="#4dd0e1" stroke-width="2" opacity="0.7"/><line x1="150.0" y1="49.13701701517341" x2="150.0" y2="-49.13701701517341" stroke="#fff" stroke-width="0.5" opacity="0.4"/><line x1="160.0" y1="79.7267594405336" x2="180.0" y2="-79.7267594405336" stroke="#4dd0e1" stroke-width="2" opacity="0.7"/><line x1="170.0" y1="79.7267594405336" x2="170.0" y2="-79.7267594405336" stroke="#fff" stroke-width="0.5" opacity="0.4"/><line x1="180.0" y1="38.07579144296588" x2="200.0" y2="-38.07579144296588" stroke="#4dd0e1" stroke-width="2" opacity="0.7"/><line x1="190.0" y1="38.07579144296588" x2="190.0" y2="-38.07579144296588" stroke="#fff" stroke-width="0.5" opacity="0.4"/><line x1="200.0" y1="-38.07579144296583" x2="220.0" y2="38.07579144296583" stroke="#4dd0e1" stroke-width="2" opacity="0.7"/><line x1="210.0" y1="-38.07579144296583" x2="210.0" y2="38.07579144296583" stroke="#fff" stroke-width="0.5" opacity="0.4"/><line x1="220.0" y1="-79.72675944053358" x2="240.0" y2="79.72675944053358" stroke="#4dd0e1" stroke-width="2" opacity="0.7"/><line x1="230.0" y1="-79.72675944053358" x2="230.0" y2="79.72675944053358" stroke="#fff" stroke-width="0.5" opacity="0.4"/><line x1="240.0" y1="-49.137017015173576" x2="260.0" y2="49.137017015173576" stroke="#4dd0e1" stroke-width="2" opacity="0.7"/><line x1="250.0" y1="-49.137017015173576" x2="250.0" y2="49.137017015173576" stroke="#fff" stroke-width="0.5" opacity="0.4"/><line x1="260.0" y1="25.97595753637458" x2="280.0" y2="-25.97595753637458" stroke="#4dd0e1" stroke-width="2" opacity="0.7"/><line x1="270.0" y1="25.97595753637458" x2="270.0" y2="-25.97595753637458" stroke="#fff" stroke-width="0.5" opacity="0.4"/><line x1="280.0" y1="77.55202127514643" x2="300.0" y2="-77.55202127514643" stroke="#4dd0e1" stroke-width="2" opacity="0.7"/><line x1="290.0" y1="77.55202127514643" x2="290.0" y2="-77.55202127514643" stroke="#fff" stroke-width="0.5" opacity="0.4"/><line x1="300.0" y1="58.85791285385059" x2="320.0" y2="-58.85791285385059" stroke="#4dd0e1" stroke-width="2" opacity="0.7"/><line x1="310.0" y1="58.85791285385059" x2="310.0" y2="-58.85791285385059" stroke="#fff" stroke-width="0.5" opacity="0.4"/><line x1="320.0" y1="-13.16756722245856" x2="340.0" y2="13.16756722245856" stroke="#4dd0e1" stroke-width="2" opacity="0.7"/><line x1="330.0" y1="-13.16756722245856" x2="330.0" y2="13.16756722245856" stroke="#fff" stroke-width="0.5" opacity="0.4"/><line x1="340.0" y1="-73.26186613240462" x2="360.0" y2="73.26186613240462" stroke="#4dd0e1" stroke-width="2" opacity="0.7"/><line x1="350.0" y1="-73.26186613240462" x2="350.0" y2="73.26186613240462" stroke="#fff" stroke-width="0.5" opacity="0.4"/><line x1="360.0" y1="-66.97331826100228" x2="380.0" y2="66.97331826100228" stroke="#4dd0e1" stroke-width="2" opacity="0.7"/><line x1="370.0" y1="-66.97331826100228" x2="370.0" y2="66.97331826100228" stroke="#fff" stroke-width="0.5" opacity="0.4"/></g><g transform="translate(700,500)"><line x1="-200" y1="0" x2="200" y2="0" stroke="#80deea" stroke-width="3"/><path d="M-180,0 L-165,-10 L-150,0" fill="none" stroke="#4dd0e1" stroke-width="2"/><path d="M-150,0 L-135,-10 L-120,0" fill="none" stroke="#4dd0e1" stroke-width="2"/><path d="M-120,0 L-105,-10 L-90,0" fill="none" stroke="#4dd0e1" stroke-width="2"/><path d="M-90,0 L-75,-10 L-60,0" fill="none" stroke="#4dd0e1" stroke-width="2"/><path d="M-60,0 L-45,-10 L-30,0" fill="none" stroke="#4dd0e1" stroke-width="2"/><path d="M-30,0 L-15,-10 L0,0" fill="none" stroke="#4dd0e1" stroke-width="2"/><path d="M0,0 L15,-10 L30,0" fill="none" stroke="#4dd0e1" stroke-width="2"/><path d="M30,0 L45,-10 L60,0" fill="none" stroke="#4dd0e1" stroke-width="2"/><path d="M60,0 L75,-10 L90,0" fill="none" stroke="#4dd0e1" stroke-width="2"/><path d="M90,0 L105,-10 L120,0" fill="none" stroke="#4dd0e1" stroke-width="2"/><path d="M120,0 L135,-10 L150,0" fill="none" stroke="#4dd0e1" stroke-width="2"/><path d="M150,0 L165,-10 L180,0" fill="none" stroke="#4dd0e1" stroke-width="2"/><path d="M180,0 L195,-10 L210,0" fill="none" stroke="#4dd0e1" stroke-width="2"/></g><rect width="1600" height="1000" fill="url(#vig)"/></svg>