<svg xmlns="http://www.w3.org/2000/svg" viewBox="0 0 1600 1000"><defs><linearGradient id="bg" x1="0" y1="0" x2="0" y2="1"><stop offset="0" stop-color="#0a1428"/><stop offset="0.5" stop-color="#1a2461"/><stop offset="1" stop-color="#2d1b6e"/></linearGradient><radialGradient id="vig" cx="0.5" cy="0.5" r="0.7"><stop offset="0" stop-color="#000" stop-opacity="0"/><stop offset="1" stop-color="#000" stop-opacity="0.4"/></radialGradient></defs><rect width="1600" height="1000" fill="url(#bg)"/><text x="100" y="80" font-size="48" fill="#80deea" font-weight="bold" letter-spacing="2">化学反应</text><text x="100" y="115" font-size="16" fill="#bbdefb" opacity="0.6">周期表·烧瓶·催化·沉淀</text><g transform="translate(180,200)" font-size="14" fill="#80deea" opacity="0.8"><rect x="0" y="0" width="40" height="40" fill="none" stroke="#7e57c2" stroke-width="1"/><text x="20" y="26" text-anchor="middle" font-size="13">1</text><rect x="42" y="0" width="40" height="40" fill="none" stroke="#7e57c2" stroke-width="1"/><text x="62" y="26" text-anchor="middle" font-size="13">2</text><rect x="84" y="0" width="40" height="40" fill="none" stroke="#7e57c2" stroke-width="1"/><text x="104" y="26" text-anchor="middle" font-size="13">3</text><rect x="126" y="0" width="40" height="40" fill="none" stroke="#7e57c2" stroke-width="1"/><text x="146" y="26" text-anchor="middle" font-size="13">4</text><rect x="168" y="0" width="40" height="40" fill="none" stroke="#7e57c2" stroke-width="1"/><text x="188" y="26" text-anchor="middle" font-size="13">5</text><rect x="210" y="0" width="40" height="40" fill="none" stroke="#7e57c2" stroke-width="1"/><text x="230" y="26" text-anchor="middle" font-size="13">6</text><rect x="252" y="0" width="40" height="40" fill="none" stroke="#7e57c2" stroke-width="1"/><text x="272" y="26" text-anchor="middle" font-size="13">7</text><rect x="294" y="0" width="40" height="40" fill="none" stroke="#7e57c2" stroke-width="1"/><text x="314" y="26" text-anchor="middle" font-size="13">8</text><rect x="336" y="0" width="40" height="40" fill="none" stroke="#7e57c2" stroke-width="1"/><text x="356" y="26" text-anchor="middle" font-size="13">9</text><rect x="378" y="0" width="40" height="40" fill="none" stroke="#7e57c2" stroke-width="1"/><text x="398" y="26" text-anchor="middle" font-size="13">10</text><rect x="420" y="0" width="40" height="40" fill="none" stroke="#7e57c2" stroke-width="1"/><text x="440" y="26" text-anchor="middle" font-size="13">11</text><rect x="462" y="0" width="40" height="40" fill="none" stroke="#7e57c2" stroke-width="1"/><text x="482" y="26" text-anchor="middle" font-size="13">12</text><rect x="504" y="0" width="40" height="40" fill="none" stroke="#7e57c2" stroke-width="1"/><text x="524" y="26" text-anchor="middle" font-size="13">13</text><rect x="546" y="0" width="40" height="40" fill="none" stroke="#7e57c2" stroke-width="1"/><text x="566" y="26" text-anchor="middle" font-size="13">14</text><rect x="588" y="0" width="40" height="40" fill="none" stroke="#7e57c2" stroke-width="1"/><text x="608" y="26" text-anchor="middle" font-size="13">15</text><rect x="630" y="0" width="40" height="40" fill="none" stroke="#7e57c2" stroke-width="1"/><text x="650" y="26" text-anchor="middle" font-size="13">16</text><rect x="672" y="0" width="40" height="40" fill="none" stroke="#7e57c2" stroke-width="1"/><text x="692" y="26" text-anchor="middle" font-size="13">17</text><rect x="714" y="0" width="40" height="40" fill="none" stroke="#7e57c2" stroke-width="1"/><text x="734" y="26" text-anchor="middle" font-size="13">18</text><rect x="0" y="42" width="40" height="40" fill="none" stroke="#7e57c2" stroke-width="1"/><text x="20" y="68" text-anchor="middle" font-size="13">19</text><rect x="42" y="42" width="40" height="40" fill="none" stroke="#7e57c2" stroke-width="1"/><text x="62" y="68" text-anchor="middle" font-size="13">20</text><rect x="84" y="42" width="40" height="40" fill="none" stroke="#7e57c2" stroke-width="1"/><text x="104" y="68" text-anchor="middle" font-size="13">21</text><rect x="126" y="42" width="40" height="40" fill="none" stroke="#7e57c2" stroke-width="1"/><text x="146" y="68" text-anchor="middle" font-size="13">22</text><rect x="168" y="42" width="40" height="40" fill="none" stroke="#7e57c2" stroke-width="1"/><text x="188" y="68" text-anchor="middle" font-size="13">23</text><rect x="210" y="42" width="40" height="40" fill="none" stroke="#7e57c2" stroke-width="1"/><text x="230" y="68" text-anchor="middle" font-size="13">24</text><rect x="252" y="42" width="40" height="40" fill="none" stroke="#7e57c2" stroke-width="1"/><text x="272" y="68" text-anchor="middle" font-size="13">25</text><rect x="294" y="42" width="40" height="40" fill="none" stroke="#7e57c2" stroke-width="1"/><text x="314" y="68" text-anchor="middle" font-size="13">26</text><rect x="336" y="42" width="40" height="40" fill="none" stroke="#7e57c2" stroke-width="1"/><text x="356" y="68" text-anchor="middle" font-size="13">27</text><rect x="378" y="42" width="40" height="40" fill="none" stroke="#7e57c2" stroke-width="1"/><text x="398" y="68" text-anchor="middle" font-size="13">28</text><rect x="420" y="42" width="40" height="40" fill="none" stroke="#7e57c2" stroke-width="1"/><text x="440" y="68" text-anchor="middle" font-size="13">29</text><rect x="462" y="42" width="40" height="40" fill="none" stroke="#7e57c2" stroke-width="1"/><text x="482" y="68" text-anchor="middle" font-size="13">30</text><rect x="504" y="42" width="40" height="40" fill="none" stroke="#7e57c2" stroke-width="1"/><text x="524" y="68" text-anchor="middle" font-size="13">31</text><rect x="546" y="42" width="40" height="40" fill="none" stroke="#7e57c2" stroke-width="1"/><text x="566" y="68" text-anchor="middle" font-size="13">32</text><rect x="588" y="42" width="40" height="40" fill="none" stroke="#7e57c2" stroke-width="1"/><text x="608" y="68" text-anchor="middle" font-size="13">33</text><rect x="630" y="42" width="40" height="40" fill="none" stroke="#7e57c2" stroke-width="1"/><text x="650" y="68" text-anchor="middle" font-size="13">34</text><rect x="672" y="42" width="40" height="40" fill="none" stroke="#7e57c2" stroke-width="1"/><text x="692" y="68" text-anchor="middle" font-size="13">35</text><rect x="714" y="42" width="40" height="40" fill="none" stroke="#7e57c2" stroke-width="1"/><text x="734" y="68" text-anchor="middle" font-size="13">36</text></g><g transform="translate(1100,500)"><path d="M-30,-100 L-30,-40 L-80,80 L80,80 L30,-40 L30,-100 Z" fill="none" stroke="#80deea" stroke-width="2" opacity="0.7"/><circle cx="0" cy="40" r="30" fill="#4dd0e1" opacity="0.6"/></g><circle cx="821" cy="924" r="2" fill="#bbdefb" opacity="0.3"/><circle cx="120" cy="168" r="2" fill="#bbdefb" opacity="0.3"/><circle cx="776" cy="2" r="2" fill="#bbdefb" opacity="0.3"/><circle cx="799" cy="271" r="2" fill="#bbdefb" opacity="0.3"/><circle cx="931" cy="292" r="2" fill="#bbdefb" opacity="0.3"/><circle cx="866" cy="713" r="2" fill="#bbdefb" opacity="0.3"/><circle cx="1496" cy="802" r="2" fill="#bbdefb" opacity="0.3"/><circle cx="1138" cy="677" r="2" fill="#bbdefb" opacity="0.3"/><circle cx="1471" cy="498" r="2" fill="#bbdefb" opacity="0.3"/><circle cx="317" cy="194" r="2" fill="#bbdefb" opacity="0.3"/><circle cx="607" cy="222" r="2" fill="#bbdefb" opacity="0.3"/><circle cx="119" cy="593" r="2" fill="#bbdefb" opacity="0.3"/><circle cx="1506" cy="555" r="2" fill="#bbdefb" opacity="0.3"/><circle cx="124" cy="765" r="2" fill="#bbdefb" opacity="0.3"/><circle cx="642" cy="58" r="2" fill="#bbdefb" opacity="0.3"/><circle cx="102" cy="598" r="2" fill="#bbdefb" opacity="0.3"/><circle cx="976" cy="514" r="2" fill="#bbdefb" opacity="0.3"/><circle cx="1087" cy="161" r="2" fill="#bbdefb" opacity="0.3"/><circle cx="116" cy="983" r="2" fill="#bbdefb" opacity="0.3"/><circle cx="1040" cy="82" r="2" fill="#bbdefb" opacity="0.3"/><circle cx="380" cy="70" r="2" fill="#bbdefb" opacity="0.3"/><circle cx="1218" cy="69" r="2" fill="#bbdefb" opacity="0.3"/><circle cx="1382" cy="882" r="2" fill="#bbdefb" opacity="0.3"/><circle cx="481" cy="413" r="2" fill="#bbdefb" opacity="0.3"/><circle cx="245" cy="964" r="2" fill="#bbdefb" opacity="0.3"/><circle cx="1166" cy="252" r="2" fill="#bbdefb" opacity="0.3"/><circle cx="1185" cy="608" r="2" fill="#bbdefb" opacity="0.3"/><circle cx="81" cy="634" r="2" fill="#bbdefb" opacity="0.3"/><circle cx="167" cy="429" r="2" fill="#bbdefb" opacity="0.3"/><circle cx="1346" cy="597" r="2" fill="#bbdefb" opacity="0.3"/><circle cx="1157" cy="535" r="2" fill="#bbdefb" opacity="0.3"/><circle cx="647" cy="957" r="2" fill="#bbdefb" opacity="0.3"/><circle cx="534" cy="209" r="2" fill="#bbdefb" opacity="0.3"/><circle cx="1371" cy="733" r="2" fill="#bbdefb" opacity="0.3"/><circle cx="643" cy="244" r="2" fill="#bbdefb" opacity="0.3"/><circle cx="543" cy="405" r="2" fill="#bbdefb" opacity="0.3"/><circle cx="268" cy="687" r="2" fill="#bbdefb" opacity="0.3"/><circle cx="1321" cy="307" r="2" fill="#bbdefb" opacity="0.3"/><circle cx="936" cy="323" r="2" fill="#bbdefb" opacity="0.3"/><circle cx="1539" cy="958" r="2" fill="#bbdefb" opacity="0.3"/><circle cx="148" cy="9" r="2" fill="#bbdefb" opacity="0.3"/><circle cx="938" cy="636" r="2" fill="#bbdefb" opacity="0.3"/><circle cx="1153" cy="102" r="2" fill="#bbdefb" opacity="0.3"/><circle cx="150" cy="550" r="2" fill="#bbdefb" opacity="0.3"/><circle cx="436" cy="518" r="2" fill="#bbdefb" opacity="0.3"/><circle cx="543" cy="135" r="2" fill="#bbdefb" opacity="0.3"/><circle cx="714" cy="902" r="2" fill="#bbdefb" opacity="0.3"/><circle cx="140" cy="900" r="2" fill="#bbdefb" opacity="0.3"/><circle cx="500" cy="378" r="2" fill="#bbdefb" opacity="0.3"/><circle cx="583" cy="161" r="2" fill="#bbdefb" opacity="0.3"/><rect width="1600" height="1000" fill="url(#vig)"/></svg>