<svg xmlns="http://www.w3.org/2000/svg" viewBox="0 0 1600 1000"><defs><linearGradient id="bg" x1="0" y1="0" x2="0" y2="1"><stop offset="0" stop-color="#0a1428"/><stop offset="0.5" stop-color="#1a2461"/><stop offset="1" stop-color="#2d1b6e"/></linearGradient><radialGradient id="vig" cx="0.5" cy="0.5" r="0.7"><stop offset="0" stop-color="#000" stop-opacity="0"/><stop offset="1" stop-color="#000" stop-opacity="0.4"/></radialGradient></defs><rect width="1600" height="1000" fill="url(#bg)"/><text x="100" y="80" font-size="48" fill="#80deea" font-weight="bold" letter-spacing="2">天文仪器</text><text x="100" y="115" font-size="16" fill="#bbdefb" opacity="0.6">射电·哈勃·韦伯·引力波</text><g transform="translate(300,500)"><polygon points="0,0 -20,-60 20,-60" fill="none" stroke="#80deea" stroke-width="1.5" opacity="0.7"/><polygon points="0,0 -28,-56 28,-56" fill="none" stroke="#80deea" stroke-width="1.5" opacity="0.7"/><polygon points="0,0 -36,-52 36,-52" fill="none" stroke="#80deea" stroke-width="1.5" opacity="0.7"/><polygon points="0,0 -44,-48 44,-48" fill="none" stroke="#80deea" stroke-width="1.5" opacity="0.7"/><polygon points="0,0 -52,-44 52,-44" fill="none" stroke="#80deea" stroke-width="1.5" opacity="0.7"/></g><g transform="translate(700,500)"><rect x="-25" y="-80" width="50" height="160" fill="none" stroke="#80deea" stroke-width="2"/><polygon points="-30,-80 30,-80 0,-110" fill="none" stroke="#80deea" stroke-width="2"/></g><g transform="translate(1100,500)"><polygon points="52.0,30.0 0.0,60.0 45.0,77.9" fill="none" stroke="#80deea" stroke-width="1.5"/><polygon points="0.0,60.0 -52.0,30.0 -45.0,77.9" fill="none" stroke="#80deea" stroke-width="1.5"/><polygon points="-52.0,30.0 -52.0,-30.0 -90.0,0.0" fill="none" stroke="#80deea" stroke-width="1.5"/><polygon points="-52.0,-30.0 -0.0,-60.0 -45.0,-77.9" fill="none" stroke="#80deea" stroke-width="1.5"/><polygon points="-0.0,-60.0 52.0,-30.0 45.0,-77.9" fill="none" stroke="#80deea" stroke-width="1.5"/><polygon points="52.0,-30.0 52.0,30.0 90.0,-0.0" fill="none" stroke="#80deea" stroke-width="1.5"/></g><rect width="1600" height="1000" fill="url(#vig)"/></svg>