<svg xmlns="http://www.w3.org/2000/svg" viewBox="0 0 1600 1000"><defs><linearGradient id="bg" x1="0" y1="0" x2="0" y2="1"><stop offset="0" stop-color="#0a1428"/><stop offset="0.5" stop-color="#1a2461"/><stop offset="1" stop-color="#2d1b6e"/></linearGradient><radialGradient id="vig" cx="0.5" cy="0.5" r="0.7"><stop offset="0" stop-color="#000" stop-opacity="0"/><stop offset="1" stop-color="#000" stop-opacity="0.4"/></radialGradient></defs><rect width="1600" height="1000" fill="url(#bg)"/><text x="100" y="80" font-size="48" fill="#80deea" font-weight="bold" letter-spacing="2">未来科学</text><text x="100" y="115" font-size="16" fill="#bbdefb" opacity="0.6">AI·量子·核聚变·基因·火星</text><g transform="translate(300,500)"><circle cx="0" cy="0" r="6" fill="#80deea"/><circle cx="0" cy="30" r="6" fill="#4dd0e1"/><circle cx="0" cy="60" r="6" fill="#80deea"/><circle cx="0" cy="90" r="6" fill="#4dd0e1"/><circle cx="0" cy="120" r="6" fill="#80deea"/><circle cx="30" cy="0" r="6" fill="#4dd0e1"/><circle cx="30" cy="30" r="6" fill="#80deea"/><circle cx="30" cy="60" r="6" fill="#4dd0e1"/><circle cx="30" cy="90" r="6" fill="#80deea"/><circle cx="30" cy="120" r="6" fill="#4dd0e1"/><circle cx="60" cy="0" r="6" fill="#80deea"/><circle cx="60" cy="30" r="6" fill="#4dd0e1"/><circle cx="60" cy="60" r="6" fill="#80deea"/><circle cx="60" cy="90" r="6" fill="#4dd0e1"/><circle cx="60" cy="120" r="6" fill="#80deea"/><circle cx="90" cy="0" r="6" fill="#4dd0e1"/><circle cx="90" cy="30" r="6" fill="#80deea"/><circle cx="90" cy="60" r="6" fill="#4dd0e1"/><circle cx="90" cy="90" r="6" fill="#80deea"/><circle cx="90" cy="120" r="6" fill="#4dd0e1"/><circle cx="120" cy="0" r="6" fill="#80deea"/><circle cx="120" cy="30" r="6" fill="#4dd0e1"/><circle cx="120" cy="60" r="6" fill="#80deea"/><circle cx="120" cy="90" r="6" fill="#4dd0e1"/><circle cx="120" cy="120" r="6" fill="#80deea"/></g><g transform="translate(700,500)"><circle r="40" fill="none" stroke="#80deea" stroke-width="2"/><circle r="40" fill="none" stroke="#4dd0e1" stroke-width="2" transform="rotate(90)"/><text x="0" y="10" font-size="20" fill="#80deea" text-anchor="middle">0+1</text></g><g transform="translate(1100,500)"><circle r="40" fill="none" stroke="#80deea" stroke-width="2"/><circle r="25" fill="#4dd0e1" opacity="0.6"/></g><g transform="translate(300,800)"><circle r="40" fill="#c1440e" opacity="0.7"/><text x="0" y="60" font-size="12" fill="#80deea" text-anchor="middle">火星</text></g><rect width="1600" height="1000" fill="url(#vig)"/></svg>