<svg xmlns="http://www.w3.org/2000/svg" viewBox="0 0 1600 1000"><defs><linearGradient id="bg" x1="0" y1="0" x2="0" y2="1"><stop offset="0" stop-color="#0a1428"/><stop offset="0.5" stop-color="#1a2461"/><stop offset="1" stop-color="#2d1b6e"/></linearGradient><radialGradient id="vig" cx="0.5" cy="0.5" r="0.7"><stop offset="0" stop-color="#000" stop-opacity="0"/><stop offset="1" stop-color="#000" stop-opacity="0.4"/></radialGradient></defs><rect width="1600" height="1000" fill="url(#bg)"/><text x="100" y="80" font-size="48" fill="#80deea" font-weight="bold" letter-spacing="2">材料革命</text><text x="100" y="115" font-size="16" fill="#bbdefb" opacity="0.6">石墨烯·碳管·超导·液晶·合金</text><g transform="translate(300,500)" opacity="0.8"><line x1="0" y1="0" x2="10" y2="17" stroke="#80deea" stroke-width="1"/><line x1="10" y1="17" x2="20" y2="0" stroke="#80deea" stroke-width="1"/><line x1="20" y1="0" x2="30" y2="17" stroke="#80deea" stroke-width="1"/><line x1="30" y1="17" x2="40" y2="0" stroke="#80deea" stroke-width="1"/><line x1="40" y1="0" x2="50" y2="17" stroke="#80deea" stroke-width="1"/><line x1="50" y1="17" x2="60" y2="0" stroke="#80deea" stroke-width="1"/><line x1="60" y1="0" x2="70" y2="17" stroke="#80deea" stroke-width="1"/><line x1="70" y1="17" x2="80" y2="0" stroke="#80deea" stroke-width="1"/><line x1="80" y1="0" x2="90" y2="17" stroke="#80deea" stroke-width="1"/><line x1="90" y1="17" x2="100" y2="0" stroke="#80deea" stroke-width="1"/><line x1="100" y1="0" x2="110" y2="17" stroke="#80deea" stroke-width="1"/><line x1="110" y1="17" x2="120" y2="0" stroke="#80deea" stroke-width="1"/><line x1="120" y1="0" x2="130" y2="17" stroke="#80deea" stroke-width="1"/><line x1="130" y1="17" x2="140" y2="0" stroke="#80deea" stroke-width="1"/><line x1="140" y1="0" x2="150" y2="17" stroke="#80deea" stroke-width="1"/><line x1="150" y1="17" x2="160" y2="0" stroke="#80deea" stroke-width="1"/><line x1="160" y1="0" x2="170" y2="17" stroke="#80deea" stroke-width="1"/><line x1="170" y1="17" x2="180" y2="0" stroke="#80deea" stroke-width="1"/><line x1="180" y1="0" x2="190" y2="17" stroke="#80deea" stroke-width="1"/><line x1="190" y1="17" x2="200" y2="0" stroke="#80deea" stroke-width="1"/><line x1="200" y1="0" x2="210" y2="17" stroke="#80deea" stroke-width="1"/><line x1="210" y1="17" x2="220" y2="0" stroke="#80deea" stroke-width="1"/><line x1="220" y1="0" x2="230" y2="17" stroke="#80deea" stroke-width="1"/><line x1="230" y1="17" x2="240" y2="0" stroke="#80deea" stroke-width="1"/><line x1="240" y1="0" x2="250" y2="17" stroke="#80deea" stroke-width="1"/><line x1="250" y1="17" x2="260" y2="0" stroke="#80deea" stroke-width="1"/><line x1="260" y1="0" x2="270" y2="17" stroke="#80deea" stroke-width="1"/><line x1="270" y1="17" x2="280" y2="0" stroke="#80deea" stroke-width="1"/><line x1="280" y1="0" x2="290" y2="17" stroke="#80deea" stroke-width="1"/><line x1="290" y1="17" x2="300" y2="0" stroke="#80deea" stroke-width="1"/><line x1="300" y1="0" x2="310" y2="17" stroke="#80deea" stroke-width="1"/><line x1="310" y1="17" x2="320" y2="0" stroke="#80deea" stroke-width="1"/><line x1="320" y1="0" x2="330" y2="17" stroke="#80deea" stroke-width="1"/><line x1="330" y1="17" x2="340" y2="0" stroke="#80deea" stroke-width="1"/><line x1="340" y1="0" x2="350" y2="17" stroke="#80deea" stroke-width="1"/><line x1="350" y1="17" x2="360" y2="0" stroke="#80deea" stroke-width="1"/><line x1="360" y1="0" x2="370" y2="17" stroke="#80deea" stroke-width="1"/><line x1="370" y1="17" x2="380" y2="0" stroke="#80deea" stroke-width="1"/><line x1="380" y1="0" x2="390" y2="17" stroke="#80deea" stroke-width="1"/><line x1="390" y1="17" x2="400" y2="0" stroke="#80deea" stroke-width="1"/></g><g transform="translate(1050,500)"><rect x="-50" y="0" width="100" height="40" fill="none" stroke="#80deea" stroke-width="2"/><rect x="-40" y="-20" width="80" height="20" fill="none" stroke="#4dd0e1" stroke-width="2" opacity="0.8"/></g><rect width="1600" height="1000" fill="url(#vig)"/></svg>