<svg xmlns="http://www.w3.org/2000/svg" viewBox="0 0 1600 1000"><defs><linearGradient id="bg" x1="0" y1="0" x2="0" y2="1"><stop offset="0" stop-color="#0a1428"/><stop offset="0.5" stop-color="#1a2461"/><stop offset="1" stop-color="#2d1b6e"/></linearGradient><radialGradient id="vig" cx="0.5" cy="0.5" r="0.7"><stop offset="0" stop-color="#000" stop-opacity="0"/><stop offset="1" stop-color="#000" stop-opacity="0.4"/></radialGradient></defs><rect width="1600" height="1000" fill="url(#bg)"/><text x="100" y="80" font-size="48" fill="#80deea" font-weight="bold" letter-spacing="2">波动世界</text><text x="100" y="115" font-size="16" fill="#bbdefb" opacity="0.6">声波·光波·驻波·干涉·衍射</text><path d="M150,330.0 L167.2,322.9 L184.5,316.4 L201.7,311.2 L219.0,307.6 L236.2,306.1 L253.4,306.6 L270.7,309.3 L287.9,313.8 L305.2,319.7 L322.4,326.6 L339.7,333.8 L356.9,340.6 L374.1,346.5 L391.4,350.9 L408.6,353.5 L425.9,353.9 L443.1,352.2 L460.3,348.5 L477.6,343.2 L494.8,336.7 L512.1,329.6 L529.3,322.5 L546.6,316.1 L563.8,311.0 L581.0,307.5 L598.3,306.0 L615.5,306.7 L632.8,309.5 L650.0,314.1" fill="none" stroke="#80deea" stroke-width="2" stroke-linejoin="round" opacity="0.9"/><path d="M800,330.0 L817.2,322.2 L834.5,315.9 L851.7,312.4 L869.0,312.5 L886.2,316.0 L903.4,322.3 L920.7,330.2 L937.9,338.0 L955.2,344.2 L972.4,347.6 L989.7,347.5 L1006.9,343.9 L1024.1,337.6 L1041.4,329.7 L1058.6,321.9 L1075.9,315.7 L1093.1,312.4 L1110.3,312.5 L1127.6,316.2 L1144.8,322.6 L1162.1,330.5 L1179.3,338.2 L1196.6,344.4 L1213.8,347.7 L1231.0,347.4 L1248.3,343.7 L1265.5,337.3 L1282.8,329.4 L1300.0,321.6" fill="none" stroke="#4dd0e1" stroke-width="2" stroke-linejoin="round" opacity="0.9"/><g transform="translate(800,500)"><line x1="0" y1="0" x2="500" y2="0" stroke="#80deea" stroke-width="1" opacity="0.4"/><line x1="0" y1="5" x2="500" y2="5" stroke="#bbdefb" stroke-width="1" opacity="0.4"/><line x1="0" y1="10" x2="500" y2="10" stroke="#80deea" stroke-width="1" opacity="0.4"/><line x1="0" y1="15" x2="500" y2="15" stroke="#bbdefb" stroke-width="1" opacity="0.4"/><line x1="0" y1="20" x2="500" y2="20" stroke="#80deea" stroke-width="1" opacity="0.4"/><line x1="0" y1="25" x2="500" y2="25" stroke="#bbdefb" stroke-width="1" opacity="0.4"/><line x1="0" y1="30" x2="500" y2="30" stroke="#80deea" stroke-width="1" opacity="0.4"/><line x1="0" y1="35" x2="500" y2="35" stroke="#bbdefb" stroke-width="1" opacity="0.4"/><line x1="0" y1="40" x2="500" y2="40" stroke="#80deea" stroke-width="1" opacity="0.4"/><line x1="0" y1="45" x2="500" y2="45" stroke="#bbdefb" stroke-width="1" opacity="0.4"/><line x1="0" y1="50" x2="500" y2="50" stroke="#80deea" stroke-width="1" opacity="0.4"/><line x1="0" y1="55" x2="500" y2="55" stroke="#bbdefb" stroke-width="1" opacity="0.4"/><line x1="0" y1="60" x2="500" y2="60" stroke="#80deea" stroke-width="1" opacity="0.4"/><line x1="0" y1="65" x2="500" y2="65" stroke="#bbdefb" stroke-width="1" opacity="0.4"/><line x1="0" y1="70" x2="500" y2="70" stroke="#80deea" stroke-width="1" opacity="0.4"/><line x1="0" y1="75" x2="500" y2="75" stroke="#bbdefb" stroke-width="1" opacity="0.4"/></g><rect width="1600" height="1000" fill="url(#vig)"/></svg>