<svg xmlns="http://www.w3.org/2000/svg" viewBox="0 0 1600 1000"><defs><linearGradient id="bg" x1="0" y1="0" x2="0" y2="1"><stop offset="0" stop-color="#0a1428"/><stop offset="0.5" stop-color="#1a2461"/><stop offset="1" stop-color="#2d1b6e"/></linearGradient><radialGradient id="vig" cx="0.5" cy="0.5" r="0.7"><stop offset="0" stop-color="#000" stop-opacity="0"/><stop offset="1" stop-color="#000" stop-opacity="0.4"/></radialGradient></defs><rect width="1600" height="1000" fill="url(#bg)"/><text x="100" y="80" font-size="48" fill="#80deea" font-weight="bold" letter-spacing="2">物质结构</text><text x="100" y="115" font-size="16" fill="#bbdefb" opacity="0.6">晶格·分子机器·C60·有机链</text><g transform="translate(400,500)" opacity="0.8"><polygon points="34.6,20.0 0.0,40.0 -34.6,20.0 -34.6,-20.0 -0.0,-40.0 34.6,-20.0" fill="none" stroke="#80deea" stroke-width="1" transform="translate(-80,-80)"/><polygon points="34.6,20.0 0.0,40.0 -34.6,20.0 -34.6,-20.0 -0.0,-40.0 34.6,-20.0" fill="none" stroke="#80deea" stroke-width="1" transform="translate(-80,0)"/><polygon points="34.6,20.0 0.0,40.0 -34.6,20.0 -34.6,-20.0 -0.0,-40.0 34.6,-20.0" fill="none" stroke="#80deea" stroke-width="1" transform="translate(-80,80)"/><polygon points="34.6,20.0 0.0,40.0 -34.6,20.0 -34.6,-20.0 -0.0,-40.0 34.6,-20.0" fill="none" stroke="#80deea" stroke-width="1" transform="translate(0,-80)"/><polygon points="34.6,20.0 0.0,40.0 -34.6,20.0 -34.6,-20.0 -0.0,-40.0 34.6,-20.0" fill="none" stroke="#80deea" stroke-width="1" transform="translate(0,0)"/><polygon points="34.6,20.0 0.0,40.0 -34.6,20.0 -34.6,-20.0 -0.0,-40.0 34.6,-20.0" fill="none" stroke="#80deea" stroke-width="1" transform="translate(0,80)"/><polygon points="34.6,20.0 0.0,40.0 -34.6,20.0 -34.6,-20.0 -0.0,-40.0 34.6,-20.0" fill="none" stroke="#80deea" stroke-width="1" transform="translate(80,-80)"/><polygon points="34.6,20.0 0.0,40.0 -34.6,20.0 -34.6,-20.0 -0.0,-40.0 34.6,-20.0" fill="none" stroke="#80deea" stroke-width="1" transform="translate(80,0)"/><polygon points="34.6,20.0 0.0,40.0 -34.6,20.0 -34.6,-20.0 -0.0,-40.0 34.6,-20.0" fill="none" stroke="#80deea" stroke-width="1" transform="translate(80,80)"/></g><g transform="translate(800,500)"><circle r="60" fill="none" stroke="#80deea" stroke-width="2"/><circle r="3" cx="0" cy="0" fill="#4dd0e1"/></g><rect width="1600" height="1000" fill="url(#vig)"/></svg>