<svg xmlns="http://www.w3.org/2000/svg" viewBox="0 0 1600 1000"><defs><linearGradient id="bg" x1="0" y1="0" x2="0" y2="1"><stop offset="0" stop-color="#0a1428"/><stop offset="0.5" stop-color="#1a2461"/><stop offset="1" stop-color="#2d1b6e"/></linearGradient><radialGradient id="vig" cx="0.5" cy="0.5" r="0.7"><stop offset="0" stop-color="#000" stop-opacity="0"/><stop offset="1" stop-color="#000" stop-opacity="0.4"/></radialGradient></defs><rect width="1600" height="1000" fill="url(#bg)"/><text x="100" y="80" font-size="48" fill="#80deea" font-weight="bold" letter-spacing="2">生命起源</text><text x="100" y="115" font-size="16" fill="#bbdefb" opacity="0.6">进化·细胞·基因·染色体·酶</text><g transform="translate(1200,150)" opacity="0.9"><line x1="0.0" y1="0.0" x2="20.0" y2="-0.0" stroke="#80deea" stroke-width="2" opacity="0.7"/><line x1="10.0" y1="0.0" x2="10.0" y2="-0.0" stroke="#fff" stroke-width="0.5" opacity="0.4"/><line x1="20.0" y1="77.9942329745459" x2="40.0" y2="-77.9942329745459" stroke="#80deea" stroke-width="2" opacity="0.7"/><line x1="30.0" y1="77.9942329745459" x2="30.0" y2="-77.9942329745459" stroke="#fff" stroke-width="0.5" opacity="0.4"/><line x1="40.0" y1="34.71069912940466" x2="60.0" y2="-34.71069912940466" stroke="#80deea" stroke-width="2" opacity="0.7"/><line x1="50.0" y1="34.71069912940466" x2="50.0" y2="-34.71069912940466" stroke="#fff" stroke-width="0.5" opacity="0.4"/><line x1="60.0" y1="-62.54651859744237" x2="80.0" y2="62.54651859744237" stroke="#80deea" stroke-width="2" opacity="0.7"/><line x1="70.0" y1="-62.54651859744237" x2="70.0" y2="62.54651859744237" stroke="#fff" stroke-width="0.5" opacity="0.4"/><line x1="80.0" y1="-62.54651859744239" x2="100.0" y2="62.54651859744239" stroke="#80deea" stroke-width="2" opacity="0.7"/><line x1="90.0" y1="-62.54651859744239" x2="90.0" y2="62.54651859744239" stroke="#fff" stroke-width="0.5" opacity="0.4"/><line x1="100.0" y1="34.71069912940463" x2="120.0" y2="-34.71069912940463" stroke="#80deea" stroke-width="2" opacity="0.7"/><line x1="110.0" y1="34.71069912940463" x2="110.0" y2="-34.71069912940463" stroke="#fff" stroke-width="0.5" opacity="0.4"/><line x1="120.0" y1="77.9942329745459" x2="140.0" y2="-77.9942329745459" stroke="#80deea" stroke-width="2" opacity="0.7"/><line x1="130.0" y1="77.9942329745459" x2="130.0" y2="-77.9942329745459" stroke="#fff" stroke-width="0.5" opacity="0.4"/><line x1="140.0" y1="2.9391523179536473e-14" x2="160.0" y2="-2.9391523179536473e-14" stroke="#80deea" stroke-width="2" opacity="0.7"/><line x1="150.0" y1="2.9391523179536473e-14" x2="150.0" y2="-2.9391523179536473e-14" stroke="#fff" stroke-width="0.5" opacity="0.4"/><line x1="160.0" y1="-77.99423297454588" x2="180.0" y2="77.99423297454588" stroke="#80deea" stroke-width="2" opacity="0.7"/><line x1="170.0" y1="-77.99423297454588" x2="170.0" y2="77.99423297454588" stroke="#fff" stroke-width="0.5" opacity="0.4"/><line x1="180.0" y1="-34.71069912940469" x2="200.0" y2="34.71069912940469" stroke="#80deea" stroke-width="2" opacity="0.7"/><line x1="190.0" y1="-34.71069912940469" x2="190.0" y2="34.71069912940469" stroke="#fff" stroke-width="0.5" opacity="0.4"/><line x1="200.0" y1="62.54651859744236" x2="220.0" y2="-62.54651859744236" stroke="#80deea" stroke-width="2" opacity="0.7"/><line x1="210.0" y1="62.54651859744236" x2="210.0" y2="-62.54651859744236" stroke="#fff" stroke-width="0.5" opacity="0.4"/><line x1="220.0" y1="62.546518597442414" x2="240.0" y2="-62.546518597442414" stroke="#80deea" stroke-width="2" opacity="0.7"/><line x1="230.0" y1="62.546518597442414" x2="230.0" y2="-62.546518597442414" stroke="#fff" stroke-width="0.5" opacity="0.4"/><line x1="240.0" y1="-34.7106991294046" x2="260.0" y2="34.7106991294046" stroke="#80deea" stroke-width="2" opacity="0.7"/><line x1="250.0" y1="-34.7106991294046" x2="250.0" y2="34.7106991294046" stroke="#fff" stroke-width="0.5" opacity="0.4"/><line x1="260.0" y1="-77.9942329745459" x2="280.0" y2="77.9942329745459" stroke="#80deea" stroke-width="2" opacity="0.7"/><line x1="270.0" y1="-77.9942329745459" x2="270.0" y2="77.9942329745459" stroke="#fff" stroke-width="0.5" opacity="0.4"/></g><g transform="translate(800,550)" opacity="0.85"><line x1="0" y1="0" x2="0" y2="200" stroke="#80deea" stroke-width="3"/><line x1="0" y1="60" x2="-200" y2="20" stroke="#80deea" stroke-width="2"/><line x1="0" y1="100" x2="200" y2="80" stroke="#80deea" stroke-width="2"/><circle cx="0" cy="0" r="8" fill="#4dd0e1"/><circle cx="-200" cy="20" r="6" fill="#80deea"/><circle cx="200" cy="80" r="6" fill="#e1bee7"/></g><circle cx="1025" cy="780" r="2" fill="#bbdefb" opacity="0.3"/><circle cx="365" cy="519" r="2" fill="#bbdefb" opacity="0.3"/><circle cx="217" cy="891" r="2" fill="#bbdefb" opacity="0.3"/><circle cx="1280" cy="305" r="2" fill="#bbdefb" opacity="0.3"/><circle cx="1308" cy="519" r="2" fill="#bbdefb" opacity="0.3"/><circle cx="1247" cy="203" r="2" fill="#bbdefb" opacity="0.3"/><circle cx="313" cy="382" r="2" fill="#bbdefb" opacity="0.3"/><circle cx="1561" cy="165" r="2" fill="#bbdefb" opacity="0.3"/><circle cx="1104" cy="976" r="2" fill="#bbdefb" opacity="0.3"/><circle cx="1594" cy="944" r="2" fill="#bbdefb" opacity="0.3"/><circle cx="1086" cy="940" r="2" fill="#bbdefb" opacity="0.3"/><circle cx="1" cy="613" r="2" fill="#bbdefb" opacity="0.3"/><circle cx="663" cy="500" r="2" fill="#bbdefb" opacity="0.3"/><circle cx="39" cy="114" r="2" fill="#bbdefb" opacity="0.3"/><circle cx="743" cy="899" r="2" fill="#bbdefb" opacity="0.3"/><circle cx="629" cy="245" r="2" fill="#bbdefb" opacity="0.3"/><circle cx="118" cy="246" r="2" fill="#bbdefb" opacity="0.3"/><circle cx="1161" cy="969" r="2" fill="#bbdefb" opacity="0.3"/><circle cx="161" cy="87" r="2" fill="#bbdefb" opacity="0.3"/><circle cx="1498" cy="497" r="2" fill="#bbdefb" opacity="0.3"/><circle cx="141" cy="778" r="2" fill="#bbdefb" opacity="0.3"/><circle cx="1090" cy="784" r="2" fill="#bbdefb" opacity="0.3"/><circle cx="257" cy="131" r="2" fill="#bbdefb" opacity="0.3"/><circle cx="1351" cy="486" r="2" fill="#bbdefb" opacity="0.3"/><circle cx="1125" cy="169" r="2" fill="#bbdefb" opacity="0.3"/><circle cx="542" cy="540" r="2" fill="#bbdefb" opacity="0.3"/><circle cx="1242" cy="433" r="2" fill="#bbdefb" opacity="0.3"/><circle cx="433" cy="951" r="2" fill="#bbdefb" opacity="0.3"/><circle cx="1104" cy="773" r="2" fill="#bbdefb" opacity="0.3"/><circle cx="1494" cy="706" r="2" fill="#bbdefb" opacity="0.3"/><circle cx="411" cy="730" r="2" fill="#bbdefb" opacity="0.3"/><circle cx="638" cy="408" r="2" fill="#bbdefb" opacity="0.3"/><circle cx="1375" cy="665" r="2" fill="#bbdefb" opacity="0.3"/><circle cx="764" cy="448" r="2" fill="#bbdefb" opacity="0.3"/><circle cx="1059" cy="462" r="2" fill="#bbdefb" opacity="0.3"/><circle cx="247" cy="253" r="2" fill="#bbdefb" opacity="0.3"/><circle cx="460" cy="65" r="2" fill="#bbdefb" opacity="0.3"/><circle cx="692" cy="21" r="2" fill="#bbdefb" opacity="0.3"/><circle cx="1204" cy="567" r="2" fill="#bbdefb" opacity="0.3"/><circle cx="471" cy="602" r="2" fill="#bbdefb" opacity="0.3"/><circle cx="451" cy="7" r="2" fill="#bbdefb" opacity="0.3"/><circle cx="145" cy="724" r="2" fill="#bbdefb" opacity="0.3"/><circle cx="1292" cy="60" r="2" fill="#bbdefb" opacity="0.3"/><circle cx="468" cy="69" r="2" fill="#bbdefb" opacity="0.3"/><circle cx="64" cy="880" r="2" fill="#bbdefb" opacity="0.3"/><circle cx="676" cy="72" r="2" fill="#bbdefb" opacity="0.3"/><circle cx="1052" cy="243" r="2" fill="#bbdefb" opacity="0.3"/><circle cx="570" cy="685" r="2" fill="#bbdefb" opacity="0.3"/><circle cx="994" cy="219" r="2" fill="#bbdefb" opacity="0.3"/><circle cx="1104" cy="135" r="2" fill="#bbdefb" opacity="0.3"/><circle cx="1481" cy="957" r="2" fill="#bbdefb" opacity="0.3"/><circle cx="1169" cy="590" r="2" fill="#bbdefb" opacity="0.3"/><circle cx="968" cy="248" r="2" fill="#bbdefb" opacity="0.3"/><circle cx="968" cy="826" r="2" fill="#bbdefb" opacity="0.3"/><circle cx="833" cy="194" r="2" fill="#bbdefb" opacity="0.3"/><circle cx="193" cy="99" r="2" fill="#bbdefb" opacity="0.3"/><circle cx="1349" cy="441" r="2" fill="#bbdefb" opacity="0.3"/><circle cx="725" cy="433" r="2" fill="#bbdefb" opacity="0.3"/><circle cx="841" cy="478" r="2" fill="#bbdefb" opacity="0.3"/><circle cx="1493" cy="55" r="2" fill="#bbdefb" opacity="0.3"/><circle cx="1379" cy="669" r="2" fill="#bbdefb" opacity="0.3"/><circle cx="1323" cy="100" r="2" fill="#bbdefb" opacity="0.3"/><circle cx="124" cy="412" r="2" fill="#bbdefb" opacity="0.3"/><circle cx="1491" cy="347" r="2" fill="#bbdefb" opacity="0.3"/><circle cx="223" cy="254" r="2" fill="#bbdefb" opacity="0.3"/><circle cx="392" cy="194" r="2" fill="#bbdefb" opacity="0.3"/><circle cx="1098" cy="459" r="2" fill="#bbdefb" opacity="0.3"/><circle cx="287" cy="432" r="2" fill="#bbdefb" opacity="0.3"/><circle cx="375" cy="285" r="2" fill="#bbdefb" opacity="0.3"/><circle cx="947" cy="255" r="2" fill="#bbdefb" opacity="0.3"/><circle cx="154" cy="453" r="2" fill="#bbdefb" opacity="0.3"/><circle cx="1127" cy="100" r="2" fill="#bbdefb" opacity="0.3"/><circle cx="103" cy="667" r="2" fill="#bbdefb" opacity="0.3"/><circle cx="1107" cy="856" r="2" fill="#bbdefb" opacity="0.3"/><circle cx="30" cy="992" r="2" fill="#bbdefb" opacity="0.3"/><circle cx="191" cy="948" r="2" fill="#bbdefb" opacity="0.3"/><circle cx="1543" cy="869" r="2" fill="#bbdefb" opacity="0.3"/><circle cx="484" cy="170" r="2" fill="#bbdefb" opacity="0.3"/><circle cx="832" cy="497" r="2" fill="#bbdefb" opacity="0.3"/><circle cx="985" cy="218" r="2" fill="#bbdefb" opacity="0.3"/><rect width="1600" height="1000" fill="url(#vig)"/></svg>