<svg xmlns="http://www.w3.org/2000/svg" viewBox="0 0 1600 1000"><defs><linearGradient id="bg" x1="0" y1="0" x2="0" y2="1"><stop offset="0" stop-color="#0a1428"/><stop offset="0.5" stop-color="#1a2461"/><stop offset="1" stop-color="#2d1b6e"/></linearGradient><radialGradient id="vig" cx="0.5" cy="0.5" r="0.7"><stop offset="0" stop-color="#000" stop-opacity="0"/><stop offset="1" stop-color="#000" stop-opacity="0.4"/></radialGradient></defs><rect width="1600" height="1000" fill="url(#bg)"/><text x="100" y="80" font-size="48" fill="#80deea" font-weight="bold" letter-spacing="2">生物王国</text><text x="100" y="115" font-size="16" fill="#bbdefb" opacity="0.6">叶脉·花粉·神经元·骨骼·蘑菇</text><g transform="translate(300,400)"><path d="M0,0 Q0,80 0,200" stroke="#80deea" stroke-width="3" fill="none"/><path d="M0,40 Q-40,60 -80,50" stroke="#80deea" stroke-width="1.5" fill="none" opacity="0.7"/><path d="M0,40 Q40,60 80,50" stroke="#80deea" stroke-width="1.5" fill="none" opacity="0.7"/><path d="M-30,0 Q-60,20 -80,0 Q-60,-20 -30,0" fill="#4dd0e1" opacity="0.4"/></g><g transform="translate(700,600)"><circle r="20" fill="none" stroke="#80deea" stroke-width="2"/><circle r="28" fill="none" stroke="#80deea" stroke-width="1" opacity="0.4"/></g><g transform="translate(800,800)"><path d="M-40,0 Q-50,-30 0,-40 Q50,-30 40,0 Z" fill="#7e57c2" opacity="0.8"/><rect x="-8" y="0" width="16" height="40" fill="#bbdefb" opacity="0.7"/></g><rect width="1600" height="1000" fill="url(#vig)"/></svg>