<svg xmlns="http://www.w3.org/2000/svg" viewBox="0 0 1600 1000"><defs><linearGradient id="bg" x1="0" y1="0" x2="0" y2="1"><stop offset="0" stop-color="#0a1428"/><stop offset="0.5" stop-color="#1a2461"/><stop offset="1" stop-color="#2d1b6e"/></linearGradient><radialGradient id="vig" cx="0.5" cy="0.5" r="0.7"><stop offset="0" stop-color="#000" stop-opacity="0"/><stop offset="1" stop-color="#000" stop-opacity="0.4"/></radialGradient></defs><rect width="1600" height="1000" fill="url(#bg)"/><text x="100" y="80" font-size="48" fill="#80deea" font-weight="bold" letter-spacing="2">生理系统</text><text x="100" y="115" font-size="16" fill="#bbdefb" opacity="0.6">心脏·肺·消化·免疫·骨骼</text><g transform="translate(250,450)"><path d="M0,-30 Q-40,-50 -40,-10 Q-40,30 0,50 Q40,30 40,-10 Q40,-50 0,-30 Z" fill="none" stroke="#80deea" stroke-width="2.5"/></g><g transform="translate(500,450)"><circle cx="-30" cy="0" r="10" fill="none" stroke="#4dd0e1" stroke-width="1.5" opacity="0.7"/><circle cx="-20" cy="5" r="12" fill="none" stroke="#4dd0e1" stroke-width="1.5" opacity="0.7"/><circle cx="-10" cy="10" r="14" fill="none" stroke="#4dd0e1" stroke-width="1.5" opacity="0.7"/><circle cx="0" cy="15" r="16" fill="none" stroke="#4dd0e1" stroke-width="1.5" opacity="0.7"/><circle cx="10" cy="20" r="18" fill="none" stroke="#4dd0e1" stroke-width="1.5" opacity="0.7"/><circle cx="20" cy="25" r="20" fill="none" stroke="#4dd0e1" stroke-width="1.5" opacity="0.7"/><circle cx="30" cy="30" r="22" fill="none" stroke="#4dd0e1" stroke-width="1.5" opacity="0.7"/><circle cx="40" cy="35" r="24" fill="none" stroke="#4dd0e1" stroke-width="1.5" opacity="0.7"/></g><g transform="translate(1100,450)"><circle r="20" fill="none" stroke="#80deea" stroke-width="2"/><line x1="0" y1="0" x2="25.0" y2="0.0" stroke="#4dd0e1" stroke-width="1.5"/><line x1="0" y1="0" x2="17.7" y2="17.7" stroke="#4dd0e1" stroke-width="1.5"/><line x1="0" y1="0" x2="0.0" y2="25.0" stroke="#4dd0e1" stroke-width="1.5"/><line x1="0" y1="0" x2="-17.7" y2="17.7" stroke="#4dd0e1" stroke-width="1.5"/><line x1="0" y1="0" x2="-25.0" y2="0.0" stroke="#4dd0e1" stroke-width="1.5"/><line x1="0" y1="0" x2="-17.7" y2="-17.7" stroke="#4dd0e1" stroke-width="1.5"/><line x1="0" y1="0" x2="-0.0" y2="-25.0" stroke="#4dd0e1" stroke-width="1.5"/><line x1="0" y1="0" x2="17.7" y2="-17.7" stroke="#4dd0e1" stroke-width="1.5"/></g><rect width="1600" height="1000" fill="url(#vig)"/></svg>