<svg xmlns="http://www.w3.org/2000/svg" viewBox="0 0 1600 1000"><defs><linearGradient id="bg" x1="0" y1="0" x2="0" y2="1"><stop offset="0" stop-color="#0a1428"/><stop offset="0.5" stop-color="#1a2461"/><stop offset="1" stop-color="#2d1b6e"/></linearGradient><radialGradient id="vig" cx="0.5" cy="0.5" r="0.7"><stop offset="0" stop-color="#000" stop-opacity="0"/><stop offset="1" stop-color="#000" stop-opacity="0.4"/></radialGradient></defs><rect width="1600" height="1000" fill="url(#bg)"/><text x="100" y="80" font-size="48" fill="#80deea" font-weight="bold" letter-spacing="2">粒子物理</text><text x="100" y="115" font-size="16" fill="#bbdefb" opacity="0.6">夸克·轻子·标准模型·希格斯</text><g transform="translate(180,200)" opacity="0.85"><rect x="0" y="0" width="60" height="30" fill="none" stroke="#4dd0e1" stroke-width="1.5"/><text x="30" y="20" text-anchor="middle" font-size="16" fill="#80deea" font-weight="bold">u</text><rect x="60" y="0" width="60" height="30" fill="none" stroke="#4dd0e1" stroke-width="1.5"/><text x="90" y="20" text-anchor="middle" font-size="16" fill="#80deea" font-weight="bold">c</text><rect x="120" y="0" width="60" height="30" fill="none" stroke="#4dd0e1" stroke-width="1.5"/><text x="150" y="20" text-anchor="middle" font-size="16" fill="#80deea" font-weight="bold">t</text><rect x="180" y="0" width="60" height="30" fill="none" stroke="#4dd0e1" stroke-width="1.5"/><text x="210" y="20" text-anchor="middle" font-size="16" fill="#80deea" font-weight="bold">e</text><rect x="240" y="0" width="60" height="30" fill="none" stroke="#4dd0e1" stroke-width="1.5"/><text x="270" y="20" text-anchor="middle" font-size="16" fill="#80deea" font-weight="bold">μ</text><rect x="300" y="0" width="60" height="30" fill="none" stroke="#4dd0e1" stroke-width="1.5"/><text x="330" y="20" text-anchor="middle" font-size="16" fill="#80deea" font-weight="bold">τ</text><rect x="0" y="30" width="60" height="30" fill="none" stroke="#80deea" stroke-width="1.5"/><text x="30" y="50" text-anchor="middle" font-size="16" fill="#80deea" font-weight="bold">d</text><rect x="60" y="30" width="60" height="30" fill="none" stroke="#80deea" stroke-width="1.5"/><text x="90" y="50" text-anchor="middle" font-size="16" fill="#80deea" font-weight="bold">s</text><rect x="120" y="30" width="60" height="30" fill="none" stroke="#80deea" stroke-width="1.5"/><text x="150" y="50" text-anchor="middle" font-size="16" fill="#80deea" font-weight="bold">b</text><rect x="180" y="30" width="60" height="30" fill="none" stroke="#80deea" stroke-width="1.5"/><text x="210" y="50" text-anchor="middle" font-size="16" fill="#80deea" font-weight="bold">νe</text><rect x="240" y="30" width="60" height="30" fill="none" stroke="#80deea" stroke-width="1.5"/><text x="270" y="50" text-anchor="middle" font-size="16" fill="#80deea" font-weight="bold">νμ</text><rect x="300" y="30" width="60" height="30" fill="none" stroke="#80deea" stroke-width="1.5"/><text x="330" y="50" text-anchor="middle" font-size="16" fill="#80deea" font-weight="bold">ντ</text></g><g transform="translate(1200,500)"><line x1="0" y1="0" x2="60.0" y2="0.0" stroke="#80deea" stroke-width="1.5" opacity="0.6"/><line x1="0" y1="0" x2="52.0" y2="30.0" stroke="#80deea" stroke-width="1.5" opacity="0.6"/><line x1="0" y1="0" x2="30.0" y2="52.0" stroke="#80deea" stroke-width="1.5" opacity="0.6"/><line x1="0" y1="0" x2="0.0" y2="60.0" stroke="#80deea" stroke-width="1.5" opacity="0.6"/><line x1="0" y1="0" x2="-30.0" y2="52.0" stroke="#80deea" stroke-width="1.5" opacity="0.6"/><line x1="0" y1="0" x2="-52.0" y2="30.0" stroke="#80deea" stroke-width="1.5" opacity="0.6"/><line x1="0" y1="0" x2="-60.0" y2="0.0" stroke="#80deea" stroke-width="1.5" opacity="0.6"/><line x1="0" y1="0" x2="-52.0" y2="-30.0" stroke="#80deea" stroke-width="1.5" opacity="0.6"/><line x1="0" y1="0" x2="-30.0" y2="-52.0" stroke="#80deea" stroke-width="1.5" opacity="0.6"/><line x1="0" y1="0" x2="-0.0" y2="-60.0" stroke="#80deea" stroke-width="1.5" opacity="0.6"/><line x1="0" y1="0" x2="30.0" y2="-52.0" stroke="#80deea" stroke-width="1.5" opacity="0.6"/><line x1="0" y1="0" x2="52.0" y2="-30.0" stroke="#80deea" stroke-width="1.5" opacity="0.6"/><circle r="8" fill="#4dd0e1"/><text x="0" y="100" font-size="12" fill="#80deea" text-anchor="middle">Higgs</text></g><rect width="1600" height="1000" fill="url(#vig)"/></svg>