<svg xmlns="http://www.w3.org/2000/svg" viewBox="0 0 1600 1000"><defs><linearGradient id="bg" x1="0" y1="0" x2="0" y2="1"><stop offset="0" stop-color="#0a1428"/><stop offset="0.5" stop-color="#1a2461"/><stop offset="1" stop-color="#2d1b6e"/></linearGradient><radialGradient id="vig" cx="0.5" cy="0.5" r="0.7"><stop offset="0" stop-color="#000" stop-opacity="0"/><stop offset="1" stop-color="#000" stop-opacity="0.4"/></radialGradient></defs><rect width="1600" height="1000" fill="url(#bg)"/><text x="100" y="80" font-size="48" fill="#80deea" font-weight="bold" letter-spacing="2">经典力学</text><text x="100" y="115" font-size="16" fill="#bbdefb" opacity="0.6">牛顿摆·单摆·弹簧·陀螺·杠杆</text><g transform="translate(350,500)"><line x1="-80" y1="-80" x2="80" y2="-80" stroke="#80deea" stroke-width="2"/><line x1="-60" y1="-80" x2="-60" y2="20" stroke="#4dd0e1" stroke-width="1"/><circle cx="-60" cy="40" r="18" fill="#4dd0e1" opacity="0.8"/><line x1="-30" y1="-80" x2="-30" y2="20" stroke="#4dd0e1" stroke-width="1"/><circle cx="-30" cy="40" r="18" fill="#4dd0e1" opacity="0.8"/><line x1="0" y1="-80" x2="0" y2="20" stroke="#4dd0e1" stroke-width="1"/><circle cx="0" cy="40" r="18" fill="#4dd0e1" opacity="0.8"/><line x1="30" y1="-80" x2="30" y2="20" stroke="#4dd0e1" stroke-width="1"/><circle cx="30" cy="40" r="18" fill="#4dd0e1" opacity="0.8"/><line x1="60" y1="-80" x2="60" y2="20" stroke="#4dd0e1" stroke-width="1"/><circle cx="60" cy="40" r="18" fill="#4dd0e1" opacity="0.8"/></g><g transform="translate(950,400)"><path d="M0,0 L0,30 L-15,40 L15,50 L-15,60 L15,70 L-15,80 L15,90 L-15,100 L15,110 L0,120 L0,150" fill="none" stroke="#80deea" stroke-width="2.5"/></g><circle cx="897" cy="853" r="2" fill="#bbdefb" opacity="0.3"/><circle cx="1112" cy="720" r="2" fill="#bbdefb" opacity="0.3"/><circle cx="619" cy="626" r="2" fill="#bbdefb" opacity="0.3"/><circle cx="1339" cy="541" r="2" fill="#bbdefb" opacity="0.3"/><circle cx="16" cy="683" r="2" fill="#bbdefb" opacity="0.3"/><circle cx="1135" cy="306" r="2" fill="#bbdefb" opacity="0.3"/><circle cx="1358" cy="106" r="2" fill="#bbdefb" opacity="0.3"/><circle cx="275" cy="270" r="2" fill="#bbdefb" opacity="0.3"/><circle cx="236" cy="911" r="2" fill="#bbdefb" opacity="0.3"/><circle cx="219" cy="760" r="2" fill="#bbdefb" opacity="0.3"/><circle cx="1133" cy="159" r="2" fill="#bbdefb" opacity="0.3"/><circle cx="557" cy="288" r="2" fill="#bbdefb" opacity="0.3"/><circle cx="1238" cy="215" r="2" fill="#bbdefb" opacity="0.3"/><circle cx="1469" cy="351" r="2" fill="#bbdefb" opacity="0.3"/><circle cx="416" cy="703" r="2" fill="#bbdefb" opacity="0.3"/><circle cx="1298" cy="873" r="2" fill="#bbdefb" opacity="0.3"/><circle cx="540" cy="517" r="2" fill="#bbdefb" opacity="0.3"/><circle cx="1000" cy="257" r="2" fill="#bbdefb" opacity="0.3"/><circle cx="104" cy="94" r="2" fill="#bbdefb" opacity="0.3"/><circle cx="1299" cy="433" r="2" fill="#bbdefb" opacity="0.3"/><circle cx="566" cy="45" r="2" fill="#bbdefb" opacity="0.3"/><circle cx="7" cy="341" r="2" fill="#bbdefb" opacity="0.3"/><circle cx="1579" cy="133" r="2" fill="#bbdefb" opacity="0.3"/><circle cx="1304" cy="268" r="2" fill="#bbdefb" opacity="0.3"/><circle cx="330" cy="759" r="2" fill="#bbdefb" opacity="0.3"/><circle cx="904" cy="564" r="2" fill="#bbdefb" opacity="0.3"/><circle cx="1445" cy="437" r="2" fill="#bbdefb" opacity="0.3"/><circle cx="1148" cy="9" r="2" fill="#bbdefb" opacity="0.3"/><circle cx="229" cy="77" r="2" fill="#bbdefb" opacity="0.3"/><circle cx="1415" cy="925" r="2" fill="#bbdefb" opacity="0.3"/><circle cx="305" cy="558" r="2" fill="#bbdefb" opacity="0.3"/><circle cx="73" cy="854" r="2" fill="#bbdefb" opacity="0.3"/><circle cx="756" cy="596" r="2" fill="#bbdefb" opacity="0.3"/><circle cx="1131" cy="151" r="2" fill="#bbdefb" opacity="0.3"/><circle cx="880" cy="130" r="2" fill="#bbdefb" opacity="0.3"/><circle cx="85" cy="315" r="2" fill="#bbdefb" opacity="0.3"/><circle cx="746" cy="920" r="2" fill="#bbdefb" opacity="0.3"/><circle cx="81" cy="920" r="2" fill="#bbdefb" opacity="0.3"/><circle cx="732" cy="215" r="2" fill="#bbdefb" opacity="0.3"/><circle cx="1396" cy="255" r="2" fill="#bbdefb" opacity="0.3"/><circle cx="1365" cy="105" r="2" fill="#bbdefb" opacity="0.3"/><circle cx="724" cy="798" r="2" fill="#bbdefb" opacity="0.3"/><circle cx="1146" cy="905" r="2" fill="#bbdefb" opacity="0.3"/><circle cx="832" cy="997" r="2" fill="#bbdefb" opacity="0.3"/><circle cx="1271" cy="767" r="2" fill="#bbdefb" opacity="0.3"/><circle cx="316" cy="947" r="2" fill="#bbdefb" opacity="0.3"/><circle cx="484" cy="885" r="2" fill="#bbdefb" opacity="0.3"/><circle cx="332" cy="999" r="2" fill="#bbdefb" opacity="0.3"/><circle cx="362" cy="902" r="2" fill="#bbdefb" opacity="0.3"/><circle cx="844" cy="25" r="2" fill="#bbdefb" opacity="0.3"/><rect width="1600" height="1000" fill="url(#vig)"/></svg>