<svg xmlns="http://www.w3.org/2000/svg" viewBox="0 0 1600 1000"><defs><linearGradient id="bg" x1="0" y1="0" x2="0" y2="1"><stop offset="0" stop-color="#0a1428"/><stop offset="0.5" stop-color="#1a2461"/><stop offset="1" stop-color="#2d1b6e"/></linearGradient><radialGradient id="vig" cx="0.5" cy="0.5" r="0.7"><stop offset="0" stop-color="#000" stop-opacity="0"/><stop offset="1" stop-color="#000" stop-opacity="0.4"/></radialGradient></defs><rect width="1600" height="1000" fill="url(#bg)"/><text x="100" y="80" font-size="48" fill="#80deea" font-weight="bold" letter-spacing="2">进化脉络</text><text x="100" y="115" font-size="16" fill="#bbdefb" opacity="0.6">寒武·恐龙·人类·基因树</text><g transform="translate(120,400)"><line x1="0" y1="0" x2="1300" y2="0" stroke="#80deea" stroke-width="2"/><line x1="0" y1="-10" x2="0" y2="10" stroke="#80deea" stroke-width="1"/><text x="0" y="30" font-size="11" fill="#bbdefb" text-anchor="middle">寒武</text><line x1="150" y1="-10" x2="150" y2="10" stroke="#80deea" stroke-width="1"/><text x="150" y="30" font-size="11" fill="#bbdefb" text-anchor="middle">奥陶</text><line x1="300" y1="-10" x2="300" y2="10" stroke="#80deea" stroke-width="1"/><text x="300" y="30" font-size="11" fill="#bbdefb" text-anchor="middle">泥盆</text><line x1="450" y1="-10" x2="450" y2="10" stroke="#80deea" stroke-width="1"/><text x="450" y="30" font-size="11" fill="#bbdefb" text-anchor="middle">石炭</text><line x1="600" y1="-10" x2="600" y2="10" stroke="#80deea" stroke-width="1"/><text x="600" y="30" font-size="11" fill="#bbdefb" text-anchor="middle">二叠</text><line x1="750" y1="-10" x2="750" y2="10" stroke="#80deea" stroke-width="1"/><text x="750" y="30" font-size="11" fill="#bbdefb" text-anchor="middle">三叠</text><line x1="900" y1="-10" x2="900" y2="10" stroke="#80deea" stroke-width="1"/><text x="900" y="30" font-size="11" fill="#bbdefb" text-anchor="middle">侏罗</text><line x1="1050" y1="-10" x2="1050" y2="10" stroke="#80deea" stroke-width="1"/><text x="1050" y="30" font-size="11" fill="#bbdefb" text-anchor="middle">白垩</text><line x1="1200" y1="-10" x2="1200" y2="10" stroke="#80deea" stroke-width="1"/><text x="1200" y="30" font-size="11" fill="#bbdefb" text-anchor="middle">古近</text><line x1="1350" y1="-10" x2="1350" y2="10" stroke="#80deea" stroke-width="1"/><text x="1350" y="30" font-size="11" fill="#bbdefb" text-anchor="middle">新近</text></g><g transform="translate(600,650)"><path d="M0,0 Q20,-30 60,-20 Q90,-15 100,0 L80,5 L70,-5 L60,0 L50,5 L40,0 L30,5 L20,0 L10,5 L0,0 Z" fill="none" stroke="#80deea" stroke-width="2"/></g><path d="M905.0,730L905.0,670.0C910.0,642.5920.0,635.5932.0,632.5C940.0,620.5942.8,602.5939.2,587.5A18.0,18.0 0 1 1 960.8,587.5C957.2,602.5960.0,620.5968.0,632.5C980.0,635.5990.0,642.5995.0,670.0L995.0,730Z" fill="#4dd0e1" opacity="0.8"/><rect width="1600" height="1000" fill="url(#vig)"/></svg>