<svg xmlns="http://www.w3.org/2000/svg" viewBox="0 0 1600 1000"><defs><linearGradient id="bg" x1="0" y1="0" x2="0" y2="1"><stop offset="0" stop-color="#0a1428"/><stop offset="0.5" stop-color="#1a2461"/><stop offset="1" stop-color="#2d1b6e"/></linearGradient><radialGradient id="vig" cx="0.5" cy="0.5" r="0.7"><stop offset="0" stop-color="#000" stop-opacity="0"/><stop offset="1" stop-color="#000" stop-opacity="0.4"/></radialGradient></defs><rect width="1600" height="1000" fill="url(#bg)"/><text x="100" y="80" font-size="48" fill="#80deea" font-weight="bold" letter-spacing="2">量子前沿</text><text x="100" y="115" font-size="16" fill="#bbdefb" opacity="0.6">量子场·纠缠·波粒·弦</text><g transform="translate(350,650)"><circle r="20" fill="none" stroke="#4dd0e1" stroke-width="2"/><circle r="20" fill="none" stroke="#4dd0e1" stroke-width="2" transform="translate(400,0)"/><path d="M20,0 Q200,-100 380,0" fill="none" stroke="#80cbc4" stroke-width="1" stroke-dasharray="4,4" opacity="0.6"/></g><g transform="translate(800,820)"><path d="M-300,0 Q-200,-50 -100,0 Q0,50 100,0 Q200,-50 300,0" fill="none" stroke="#80deea" stroke-width="2" opacity="0.8"/></g><circle cx="367" cy="754" r="2" fill="#bbdefb" opacity="0.3"/><circle cx="680" cy="801" r="2" fill="#bbdefb" opacity="0.3"/><circle cx="843" cy="821" r="2" fill="#bbdefb" opacity="0.3"/><circle cx="1371" cy="884" r="2" fill="#bbdefb" opacity="0.3"/><circle cx="1505" cy="830" r="2" fill="#bbdefb" opacity="0.3"/><circle cx="508" cy="273" r="2" fill="#bbdefb" opacity="0.3"/><circle cx="326" cy="806" r="2" fill="#bbdefb" opacity="0.3"/><circle cx="1436" cy="110" r="2" fill="#bbdefb" opacity="0.3"/><circle cx="783" cy="893" r="2" fill="#bbdefb" opacity="0.3"/><circle cx="79" cy="879" r="2" fill="#bbdefb" opacity="0.3"/><circle cx="963" cy="227" r="2" fill="#bbdefb" opacity="0.3"/><circle cx="408" cy="836" r="2" fill="#bbdefb" opacity="0.3"/><circle cx="942" cy="358" r="2" fill="#bbdefb" opacity="0.3"/><circle cx="625" cy="840" r="2" fill="#bbdefb" opacity="0.3"/><circle cx="466" cy="228" r="2" fill="#bbdefb" opacity="0.3"/><circle cx="48" cy="675" r="2" fill="#bbdefb" opacity="0.3"/><circle cx="395" cy="408" r="2" fill="#bbdefb" opacity="0.3"/><circle cx="672" cy="285" r="2" fill="#bbdefb" opacity="0.3"/><circle cx="142" cy="990" r="2" fill="#bbdefb" opacity="0.3"/><circle cx="1583" cy="285" r="2" fill="#bbdefb" opacity="0.3"/><circle cx="719" cy="656" r="2" fill="#bbdefb" opacity="0.3"/><circle cx="1043" cy="409" r="2" fill="#bbdefb" opacity="0.3"/><circle cx="1391" cy="863" r="2" fill="#bbdefb" opacity="0.3"/><circle cx="1098" cy="339" r="2" fill="#bbdefb" opacity="0.3"/><circle cx="56" cy="118" r="2" fill="#bbdefb" opacity="0.3"/><circle cx="534" cy="182" r="2" fill="#bbdefb" opacity="0.3"/><circle cx="1189" cy="985" r="2" fill="#bbdefb" opacity="0.3"/><circle cx="543" cy="39" r="2" fill="#bbdefb" opacity="0.3"/><circle cx="222" cy="610" r="2" fill="#bbdefb" opacity="0.3"/><circle cx="889" cy="353" r="2" fill="#bbdefb" opacity="0.3"/><circle cx="1492" cy="805" r="2" fill="#bbdefb" opacity="0.3"/><circle cx="642" cy="446" r="2" fill="#bbdefb" opacity="0.3"/><circle cx="1241" cy="523" r="2" fill="#bbdefb" opacity="0.3"/><circle cx="236" cy="394" r="2" fill="#bbdefb" opacity="0.3"/><circle cx="1180" cy="194" r="2" fill="#bbdefb" opacity="0.3"/><circle cx="521" cy="45" r="2" fill="#bbdefb" opacity="0.3"/><circle cx="1451" cy="446" r="2" fill="#bbdefb" opacity="0.3"/><circle cx="3" cy="532" r="2" fill="#bbdefb" opacity="0.3"/><circle cx="1102" cy="703" r="2" fill="#bbdefb" opacity="0.3"/><circle cx="1473" cy="962" r="2" fill="#bbdefb" opacity="0.3"/><circle cx="1519" cy="754" r="2" fill="#bbdefb" opacity="0.3"/><circle cx="1373" cy="201" r="2" fill="#bbdefb" opacity="0.3"/><circle cx="745" cy="441" r="2" fill="#bbdefb" opacity="0.3"/><circle cx="143" cy="971" r="2" fill="#bbdefb" opacity="0.3"/><circle cx="1360" cy="942" r="2" fill="#bbdefb" opacity="0.3"/><circle cx="676" cy="638" r="2" fill="#bbdefb" opacity="0.3"/><circle cx="642" cy="679" r="2" fill="#bbdefb" opacity="0.3"/><circle cx="255" cy="737" r="2" fill="#bbdefb" opacity="0.3"/><circle cx="615" cy="519" r="2" fill="#bbdefb" opacity="0.3"/><circle cx="633" cy="682" r="2" fill="#bbdefb" opacity="0.3"/><circle cx="836" cy="334" r="2" fill="#bbdefb" opacity="0.3"/><circle cx="824" cy="713" r="2" fill="#bbdefb" opacity="0.3"/><circle cx="605" cy="567" r="2" fill="#bbdefb" opacity="0.3"/><circle cx="260" cy="196" r="2" fill="#bbdefb" opacity="0.3"/><circle cx="861" cy="680" r="2" fill="#bbdefb" opacity="0.3"/><circle cx="776" cy="693" r="2" fill="#bbdefb" opacity="0.3"/><circle cx="1532" cy="924" r="2" fill="#bbdefb" opacity="0.3"/><circle cx="356" cy="630" r="2" fill="#bbdefb" opacity="0.3"/><circle cx="1165" cy="308" r="2" fill="#bbdefb" opacity="0.3"/><circle cx="831" cy="561" r="2" fill="#bbdefb" opacity="0.3"/><circle cx="0" cy="311" r="2" fill="#bbdefb" opacity="0.3"/><circle cx="587" cy="215" r="2" fill="#bbdefb" opacity="0.3"/><circle cx="880" cy="804" r="2" fill="#bbdefb" opacity="0.3"/><circle cx="1187" cy="621" r="2" fill="#bbdefb" opacity="0.3"/><circle cx="1340" cy="329" r="2" fill="#bbdefb" opacity="0.3"/><circle cx="952" cy="452" r="2" fill="#bbdefb" opacity="0.3"/><circle cx="905" cy="691" r="2" fill="#bbdefb" opacity="0.3"/><circle cx="437" cy="523" r="2" fill="#bbdefb" opacity="0.3"/><circle cx="969" cy="812" r="2" fill="#bbdefb" opacity="0.3"/><circle cx="1507" cy="173" r="2" fill="#bbdefb" opacity="0.3"/><circle cx="1349" cy="86" r="2" fill="#bbdefb" opacity="0.3"/><circle cx="581" cy="527" r="2" fill="#bbdefb" opacity="0.3"/><circle cx="1359" cy="648" r="2" fill="#bbdefb" opacity="0.3"/><circle cx="1268" cy="343" r="2" fill="#bbdefb" opacity="0.3"/><circle cx="191" cy="838" r="2" fill="#bbdefb" opacity="0.3"/><circle cx="1538" cy="240" r="2" fill="#bbdefb" opacity="0.3"/><circle cx="1377" cy="317" r="2" fill="#bbdefb" opacity="0.3"/><circle cx="460" cy="825" r="2" fill="#bbdefb" opacity="0.3"/><circle cx="407" cy="150" r="2" fill="#bbdefb" opacity="0.3"/><circle cx="50" cy="47" r="2" fill="#bbdefb" opacity="0.3"/><circle cx="501" cy="486" r="2" fill="#bbdefb" opacity="0.3"/><circle cx="1251" cy="870" r="2" fill="#bbdefb" opacity="0.3"/><circle cx="1573" cy="74" r="2" fill="#bbdefb" opacity="0.3"/><circle cx="932" cy="424" r="2" fill="#bbdefb" opacity="0.3"/><circle cx="1289" cy="589" r="2" fill="#bbdefb" opacity="0.3"/><circle cx="398" cy="735" r="2" fill="#bbdefb" opacity="0.3"/><circle cx="1426" cy="393" r="2" fill="#bbdefb" opacity="0.3"/><circle cx="1012" cy="409" r="2" fill="#bbdefb" opacity="0.3"/><circle cx="499" cy="151" r="2" fill="#bbdefb" opacity="0.3"/><circle cx="1343" cy="704" r="2" fill="#bbdefb" opacity="0.3"/><circle cx="11" cy="914" r="2" fill="#bbdefb" opacity="0.3"/><circle cx="1537" cy="881" r="2" fill="#bbdefb" opacity="0.3"/><circle cx="1577" cy="906" r="2" fill="#bbdefb" opacity="0.3"/><circle cx="218" cy="797" r="2" fill="#bbdefb" opacity="0.3"/><circle cx="870" cy="224" r="2" fill="#bbdefb" opacity="0.3"/><circle cx="360" cy="823" r="2" fill="#bbdefb" opacity="0.3"/><circle cx="1425" cy="530" r="2" fill="#bbdefb" opacity="0.3"/><circle cx="951" cy="51" r="2" fill="#bbdefb" opacity="0.3"/><circle cx="1141" cy="255" r="2" fill="#bbdefb" opacity="0.3"/><circle cx="248" cy="467" r="2" fill="#bbdefb" opacity="0.3"/><rect width="1600" height="1000" fill="url(#vig)"/></svg>