<svg xmlns="http://www.w3.org/2000/svg" viewBox="0 0 1600 1000"><defs><linearGradient id="bg" x1="0" y1="0" x2="0" y2="1"><stop offset="0" stop-color="#0a1428"/><stop offset="0.5" stop-color="#1a2461"/><stop offset="1" stop-color="#2d1b6e"/></linearGradient><radialGradient id="vig" cx="0.5" cy="0.5" r="0.7"><stop offset="0" stop-color="#000" stop-opacity="0"/><stop offset="1" stop-color="#000" stop-opacity="0.4"/></radialGradient></defs><rect width="1600" height="1000" fill="url(#bg)"/><text x="100" y="80" font-size="48" fill="#80deea" font-weight="bold" letter-spacing="2">微观探索</text><text x="100" y="115" font-size="16" fill="#bbdefb" opacity="0.6">原子·DNA·细胞·病毒·分子</text><g transform="translate(800,350)"><circle r="8" fill="#80deea"/><ellipse rx="130" ry="52.0" fill="none" stroke="#80deea" stroke-width="1.5" opacity="0.7" transform="rotate(0.0)"/><circle cx="130.0" cy="0.0" r="3" fill="#80deea"/><ellipse rx="130" ry="52.0" fill="none" stroke="#80deea" stroke-width="1.5" opacity="0.7" transform="rotate(45.0)"/><circle cx="91.9" cy="36.8" r="3" fill="#80deea"/><ellipse rx="130" ry="52.0" fill="none" stroke="#80deea" stroke-width="1.5" opacity="0.7" transform="rotate(90.0)"/><circle cx="0.0" cy="52.0" r="3" fill="#80deea"/><ellipse rx="130" ry="52.0" fill="none" stroke="#80deea" stroke-width="1.5" opacity="0.7" transform="rotate(135.0)"/><circle cx="-91.9" cy="36.8" r="3" fill="#80deea"/></g><g transform="translate(450,600)"><circle r="8" fill="#4dd0e1"/><ellipse rx="90" ry="36.0" fill="none" stroke="#4dd0e1" stroke-width="1.5" opacity="0.7" transform="rotate(0.0)"/><circle cx="90.0" cy="0.0" r="3" fill="#4dd0e1"/><ellipse rx="90" ry="36.0" fill="none" stroke="#4dd0e1" stroke-width="1.5" opacity="0.7" transform="rotate(60.0)"/><circle cx="45.0" cy="31.2" r="3" fill="#4dd0e1"/><ellipse rx="90" ry="36.0" fill="none" stroke="#4dd0e1" stroke-width="1.5" opacity="0.7" transform="rotate(120.0)"/><circle cx="-45.0" cy="31.2" r="3" fill="#4dd0e1"/></g><g transform="translate(1150,550)"><circle r="8" fill="#e1bee7"/><ellipse rx="110" ry="44.0" fill="none" stroke="#e1bee7" stroke-width="1.5" opacity="0.7" transform="rotate(0.0)"/><circle cx="110.0" cy="0.0" r="3" fill="#e1bee7"/><ellipse rx="110" ry="44.0" fill="none" stroke="#e1bee7" stroke-width="1.5" opacity="0.7" transform="rotate(60.0)"/><circle cx="55.0" cy="38.1" r="3" fill="#e1bee7"/><ellipse rx="110" ry="44.0" fill="none" stroke="#e1bee7" stroke-width="1.5" opacity="0.7" transform="rotate(120.0)"/><circle cx="-55.0" cy="38.1" r="3" fill="#e1bee7"/></g><g transform="translate(100,700)" opacity="0.9"><line x1="0.0" y1="0.0" x2="20.0" y2="-0.0" stroke="#80deea" stroke-width="2" opacity="0.7"/><line x1="10.0" y1="0.0" x2="10.0" y2="-0.0" stroke="#fff" stroke-width="0.5" opacity="0.4"/><line x1="20.0" y1="61.609239533581984" x2="40.0" y2="-61.609239533581984" stroke="#80deea" stroke-width="2" opacity="0.7"/><line x1="30.0" y1="61.609239533581984" x2="30.0" y2="-61.609239533581984" stroke="#fff" stroke-width="0.5" opacity="0.4"/><line x1="40.0" y1="89.82240555854445" x2="60.0" y2="-89.82240555854445" stroke="#80deea" stroke-width="2" opacity="0.7"/><line x1="50.0" y1="89.82240555854445" x2="50.0" y2="-89.82240555854445" stroke="#fff" stroke-width="0.5" opacity="0.4"/><line x1="60.0" y1="69.34619184982105" x2="80.0" y2="-69.34619184982105" stroke="#80deea" stroke-width="2" opacity="0.7"/><line x1="70.0" y1="69.34619184982105" x2="70.0" y2="-69.34619184982105" stroke="#fff" stroke-width="0.5" opacity="0.4"/><line x1="80.0" y1="11.279991020787369" x2="100.0" y2="-11.279991020787369" stroke="#80deea" stroke-width="2" opacity="0.7"/><line x1="90.0" y1="11.279991020787369" x2="90.0" y2="-11.279991020787369" stroke="#fff" stroke-width="0.5" opacity="0.4"/><line x1="100.0" y1="-52.900672706322574" x2="120.0" y2="52.900672706322574" stroke="#80deea" stroke-width="2" opacity="0.7"/><line x1="110.0" y1="-52.900672706322574" x2="110.0" y2="52.900672706322574" stroke="#fff" stroke-width="0.5" opacity="0.4"/><line x1="120.0" y1="-88.40585256558197" x2="140.0" y2="88.40585256558197" stroke="#80deea" stroke-width="2" opacity="0.7"/><line x1="130.0" y1="-88.40585256558197" x2="130.0" y2="88.40585256558197" stroke="#fff" stroke-width="0.5" opacity="0.4"/><line x1="140.0" y1="-75.98951329518135" x2="160.0" y2="75.98951329518135" stroke="#80deea" stroke-width="2" opacity="0.7"/><line x1="150.0" y1="-75.98951329518135" x2="150.0" y2="75.98951329518135" stroke="#fff" stroke-width="0.5" opacity="0.4"/><line x1="160.0" y1="-22.382089844836905" x2="180.0" y2="22.382089844836905" stroke="#80deea" stroke-width="2" opacity="0.7"/><line x1="170.0" y1="-22.382089844836905" x2="170.0" y2="22.382089844836905" stroke="#fff" stroke-width="0.5" opacity="0.4"/><line x1="180.0" y1="43.35783066915441" x2="200.0" y2="-43.35783066915441" stroke="#80deea" stroke-width="2" opacity="0.7"/><line x1="190.0" y1="43.35783066915441" x2="190.0" y2="-43.35783066915441" stroke="#fff" stroke-width="0.5" opacity="0.4"/><line x1="200.0" y1="85.59508646656381" x2="220.0" y2="-85.59508646656381" stroke="#80deea" stroke-width="2" opacity="0.7"/><line x1="210.0" y1="85.59508646656381" x2="210.0" y2="-85.59508646656381" stroke="#fff" stroke-width="0.5" opacity="0.4"/><line x1="220.0" y1="81.4344347219418" x2="240.0" y2="-81.4344347219418" stroke="#80deea" stroke-width="2" opacity="0.7"/><line x1="230.0" y1="81.4344347219418" x2="230.0" y2="-81.4344347219418" stroke="#fff" stroke-width="0.5" opacity="0.4"/><line x1="240.0" y1="33.13120974162116" x2="260.0" y2="-33.13120974162116" stroke="#80deea" stroke-width="2" opacity="0.7"/><line x1="250.0" y1="33.13120974162116" x2="250.0" y2="-33.13120974162116" stroke="#fff" stroke-width="0.5" opacity="0.4"/><line x1="260.0" y1="-33.131209741621106" x2="280.0" y2="33.131209741621106" stroke="#80deea" stroke-width="2" opacity="0.7"/><line x1="270.0" y1="-33.131209741621106" x2="270.0" y2="33.131209741621106" stroke="#fff" stroke-width="0.5" opacity="0.4"/><line x1="280.0" y1="-81.43443472194177" x2="300.0" y2="81.43443472194177" stroke="#80deea" stroke-width="2" opacity="0.7"/><line x1="290.0" y1="-81.43443472194177" x2="290.0" y2="81.43443472194177" stroke="#fff" stroke-width="0.5" opacity="0.4"/><line x1="300.0" y1="-85.59508646656384" x2="320.0" y2="85.59508646656384" stroke="#80deea" stroke-width="2" opacity="0.7"/><line x1="310.0" y1="-85.59508646656384" x2="310.0" y2="85.59508646656384" stroke="#fff" stroke-width="0.5" opacity="0.4"/><line x1="320.0" y1="-43.35783066915433" x2="340.0" y2="43.35783066915433" stroke="#80deea" stroke-width="2" opacity="0.7"/><line x1="330.0" y1="-43.35783066915433" x2="330.0" y2="43.35783066915433" stroke="#fff" stroke-width="0.5" opacity="0.4"/><line x1="340.0" y1="22.382089844837076" x2="360.0" y2="-22.382089844837076" stroke="#80deea" stroke-width="2" opacity="0.7"/><line x1="350.0" y1="22.382089844837076" x2="350.0" y2="-22.382089844837076" stroke="#fff" stroke-width="0.5" opacity="0.4"/><line x1="360.0" y1="75.9895132951814" x2="380.0" y2="-75.9895132951814" stroke="#80deea" stroke-width="2" opacity="0.7"/><line x1="370.0" y1="75.9895132951814" x2="370.0" y2="-75.9895132951814" stroke="#fff" stroke-width="0.5" opacity="0.4"/><line x1="380.0" y1="88.40585256558201" x2="400.0" y2="-88.40585256558201" stroke="#80deea" stroke-width="2" opacity="0.7"/><line x1="390.0" y1="88.40585256558201" x2="390.0" y2="-88.40585256558201" stroke="#fff" stroke-width="0.5" opacity="0.4"/><line x1="400.0" y1="52.900672706322624" x2="420.0" y2="-52.900672706322624" stroke="#80deea" stroke-width="2" opacity="0.7"/><line x1="410.0" y1="52.900672706322624" x2="410.0" y2="-52.900672706322624" stroke="#fff" stroke-width="0.5" opacity="0.4"/><line x1="420.0" y1="-11.279991020787264" x2="440.0" y2="11.279991020787264" stroke="#80deea" stroke-width="2" opacity="0.7"/><line x1="430.0" y1="-11.279991020787264" x2="430.0" y2="11.279991020787264" stroke="#fff" stroke-width="0.5" opacity="0.4"/><line x1="440.0" y1="-69.34619184982091" x2="460.0" y2="69.34619184982091" stroke="#80deea" stroke-width="2" opacity="0.7"/><line x1="450.0" y1="-69.34619184982091" x2="450.0" y2="69.34619184982091" stroke="#fff" stroke-width="0.5" opacity="0.4"/><line x1="460.0" y1="-89.82240555854445" x2="480.0" y2="89.82240555854445" stroke="#80deea" stroke-width="2" opacity="0.7"/><line x1="470.0" y1="-89.82240555854445" x2="470.0" y2="89.82240555854445" stroke="#fff" stroke-width="0.5" opacity="0.4"/><line x1="480.0" y1="-61.60923953358221" x2="500.0" y2="61.60923953358221" stroke="#80deea" stroke-width="2" opacity="0.7"/><line x1="490.0" y1="-61.60923953358221" x2="490.0" y2="61.60923953358221" stroke="#fff" stroke-width="0.5" opacity="0.4"/></g><circle cx="1309" cy="114" r="2" fill="#bbdefb" opacity="0.3"/><circle cx="51" cy="759" r="2" fill="#bbdefb" opacity="0.3"/><circle cx="563" cy="250" r="2" fill="#bbdefb" opacity="0.3"/><circle cx="457" cy="142" r="2" fill="#bbdefb" opacity="0.3"/><circle cx="1508" cy="104" r="2" fill="#bbdefb" opacity="0.3"/><circle cx="1385" cy="758" r="2" fill="#bbdefb" opacity="0.3"/><circle cx="1116" cy="89" r="2" fill="#bbdefb" opacity="0.3"/><circle cx="1209" cy="432" r="2" fill="#bbdefb" opacity="0.3"/><circle cx="65" cy="30" r="2" fill="#bbdefb" opacity="0.3"/><circle cx="191" cy="223" r="2" fill="#bbdefb" opacity="0.3"/><circle cx="476" cy="517" r="2" fill="#bbdefb" opacity="0.3"/><circle cx="1232" cy="27" r="2" fill="#bbdefb" opacity="0.3"/><circle cx="1149" cy="203" r="2" fill="#bbdefb" opacity="0.3"/><circle cx="1466" cy="665" r="2" fill="#bbdefb" opacity="0.3"/><circle cx="1436" cy="558" r="2" fill="#bbdefb" opacity="0.3"/><circle cx="859" cy="225" r="2" fill="#bbdefb" opacity="0.3"/><circle cx="919" cy="603" r="2" fill="#bbdefb" opacity="0.3"/><circle cx="569" cy="828" r="2" fill="#bbdefb" opacity="0.3"/><circle cx="13" cy="777" r="2" fill="#bbdefb" opacity="0.3"/><circle cx="326" cy="714" r="2" fill="#bbdefb" opacity="0.3"/><circle cx="865" cy="348" r="2" fill="#bbdefb" opacity="0.3"/><circle cx="569" cy="159" r="2" fill="#bbdefb" opacity="0.3"/><circle cx="440" cy="980" r="2" fill="#bbdefb" opacity="0.3"/><circle cx="1563" cy="344" r="2" fill="#bbdefb" opacity="0.3"/><circle cx="209" cy="94" r="2" fill="#bbdefb" opacity="0.3"/><circle cx="778" cy="99" r="2" fill="#bbdefb" opacity="0.3"/><circle cx="735" cy="867" r="2" fill="#bbdefb" opacity="0.3"/><circle cx="704" cy="618" r="2" fill="#bbdefb" opacity="0.3"/><circle cx="541" cy="826" r="2" fill="#bbdefb" opacity="0.3"/><circle cx="88" cy="747" r="2" fill="#bbdefb" opacity="0.3"/><circle cx="940" cy="549" r="2" fill="#bbdefb" opacity="0.3"/><circle cx="255" cy="996" r="2" fill="#bbdefb" opacity="0.3"/><circle cx="775" cy="80" r="2" fill="#bbdefb" opacity="0.3"/><circle cx="1130" cy="300" r="2" fill="#bbdefb" opacity="0.3"/><circle cx="1287" cy="633" r="2" fill="#bbdefb" opacity="0.3"/><circle cx="740" cy="591" r="2" fill="#bbdefb" opacity="0.3"/><circle cx="393" cy="721" r="2" fill="#bbdefb" opacity="0.3"/><circle cx="142" cy="46" r="2" fill="#bbdefb" opacity="0.3"/><circle cx="1354" cy="233" r="2" fill="#bbdefb" opacity="0.3"/><circle cx="1583" cy="296" r="2" fill="#bbdefb" opacity="0.3"/><circle cx="163" cy="875" r="2" fill="#bbdefb" opacity="0.3"/><circle cx="476" cy="887" r="2" fill="#bbdefb" opacity="0.3"/><circle cx="206" cy="389" r="2" fill="#bbdefb" opacity="0.3"/><circle cx="569" cy="464" r="2" fill="#bbdefb" opacity="0.3"/><circle cx="1301" cy="854" r="2" fill="#bbdefb" opacity="0.3"/><circle cx="747" cy="166" r="2" fill="#bbdefb" opacity="0.3"/><circle cx="758" cy="363" r="2" fill="#bbdefb" opacity="0.3"/><circle cx="429" cy="686" r="2" fill="#bbdefb" opacity="0.3"/><circle cx="546" cy="718" r="2" fill="#bbdefb" opacity="0.3"/><circle cx="1399" cy="663" r="2" fill="#bbdefb" opacity="0.3"/><circle cx="146" cy="623" r="2" fill="#bbdefb" opacity="0.3"/><circle cx="1300" cy="175" r="2" fill="#bbdefb" opacity="0.3"/><circle cx="1093" cy="746" r="2" fill="#bbdefb" opacity="0.3"/><circle cx="501" cy="167" r="2" fill="#bbdefb" opacity="0.3"/><circle cx="946" cy="388" r="2" fill="#bbdefb" opacity="0.3"/><circle cx="552" cy="947" r="2" fill="#bbdefb" opacity="0.3"/><circle cx="1310" cy="704" r="2" fill="#bbdefb" opacity="0.3"/><circle cx="1140" cy="224" r="2" fill="#bbdefb" opacity="0.3"/><circle cx="1402" cy="332" r="2" fill="#bbdefb" opacity="0.3"/><circle cx="1573" cy="794" r="2" fill="#bbdefb" opacity="0.3"/><circle cx="114" cy="234" r="2" fill="#bbdefb" opacity="0.3"/><circle cx="65" cy="824" r="2" fill="#bbdefb" opacity="0.3"/><circle cx="646" cy="410" r="2" fill="#bbdefb" opacity="0.3"/><circle cx="548" cy="67" r="2" fill="#bbdefb" opacity="0.3"/><circle cx="432" cy="935" r="2" fill="#bbdefb" opacity="0.3"/><circle cx="1161" cy="897" r="2" fill="#bbdefb" opacity="0.3"/><circle cx="1470" cy="322" r="2" fill="#bbdefb" opacity="0.3"/><circle cx="435" cy="671" r="2" fill="#bbdefb" opacity="0.3"/><circle cx="1022" cy="405" r="2" fill="#bbdefb" opacity="0.3"/><circle cx="1316" cy="469" r="2" fill="#bbdefb" opacity="0.3"/><circle cx="292" cy="271" r="2" fill="#bbdefb" opacity="0.3"/><circle cx="285" cy="252" r="2" fill="#bbdefb" opacity="0.3"/><circle cx="1525" cy="574" r="2" fill="#bbdefb" opacity="0.3"/><circle cx="1103" cy="269" r="2" fill="#bbdefb" opacity="0.3"/><circle cx="1529" cy="598" r="2" fill="#bbdefb" opacity="0.3"/><circle cx="877" cy="919" r="2" fill="#bbdefb" opacity="0.3"/><circle cx="1195" cy="408" r="2" fill="#bbdefb" opacity="0.3"/><circle cx="741" cy="224" r="2" fill="#bbdefb" opacity="0.3"/><circle cx="283" cy="521" r="2" fill="#bbdefb" opacity="0.3"/><circle cx="1010" cy="93" r="2" fill="#bbdefb" opacity="0.3"/><circle cx="1547" cy="48" r="2" fill="#bbdefb" opacity="0.3"/><circle cx="224" cy="156" r="2" fill="#bbdefb" opacity="0.3"/><circle cx="1285" cy="163" r="2" fill="#bbdefb" opacity="0.3"/><circle cx="1393" cy="432" r="2" fill="#bbdefb" opacity="0.3"/><circle cx="1221" cy="65" r="2" fill="#bbdefb" opacity="0.3"/><circle cx="788" cy="390" r="2" fill="#bbdefb" opacity="0.3"/><circle cx="1220" cy="479" r="2" fill="#bbdefb" opacity="0.3"/><circle cx="1083" cy="257" r="2" fill="#bbdefb" opacity="0.3"/><circle cx="1133" cy="881" r="2" fill="#bbdefb" opacity="0.3"/><circle cx="23" cy="696" r="2" fill="#bbdefb" opacity="0.3"/><circle cx="1476" cy="117" r="2" fill="#bbdefb" opacity="0.3"/><circle cx="1396" cy="906" r="2" fill="#bbdefb" opacity="0.3"/><circle cx="1099" cy="768" r="2" fill="#bbdefb" opacity="0.3"/><circle cx="546" cy="787" r="2" fill="#bbdefb" opacity="0.3"/><circle cx="1312" cy="348" r="2" fill="#bbdefb" opacity="0.3"/><circle cx="228" cy="300" r="2" fill="#bbdefb" opacity="0.3"/><circle cx="890" cy="161" r="2" fill="#bbdefb" opacity="0.3"/><circle cx="929" cy="3" r="2" fill="#bbdefb" opacity="0.3"/><circle cx="1478" cy="896" r="2" fill="#bbdefb" opacity="0.3"/><circle cx="1473" cy="269" r="2" fill="#bbdefb" opacity="0.3"/><rect width="1600" height="1000" fill="url(#vig)"/></svg>