<svg xmlns="http://www.w3.org/2000/svg" viewBox="0 0 1920 1080" preserveAspectRatio="xMidYMid slice">
  <defs>
    <linearGradient id="g" x1="0" y1="0" x2="1" y2="1">
      <stop offset="0%" stop-color="#064e3b"/><stop offset="50%" stop-color="#047857"/><stop offset="100%" stop-color="#0f766e"/>
    </linearGradient>
  </defs>
  <rect width="1920" height="1080" fill="url(#g)"/>
  <circle cx="1500" cy="260" r="360" fill="#6ee7b7" opacity="0.07"/>
  <path d="M 0,780 L 156,584 L 349,733 L 550,776 L 689,665 L 863,564 L 1085,646 L 1307,672 L 1502,674 L 1669,724 L 1868,568 L 1920,721 L 1920,780 L 1920,1080 L 0,1080 Z" fill="#065f46" opacity="0.55"/>
  <path d="M 0,900 L 163,809 L 318,788 L 544,760 L 683,710 L 865,782 L 1042,757 L 1232,898 L 1380,774 L 1596,762 L 1835,709 L 1920,697 L 1920,900 L 1920,1080 L 0,1080 Z" fill="#022c22" opacity="0.85"/>
</svg>
