<svg xmlns="http://www.w3.org/2000/svg" viewBox="0 0 1920 1080" preserveAspectRatio="xMidYMid slice">
  <defs>
    <linearGradient id="g" x1="0" y1="0" x2="1" y2="1">
      <stop offset="0%" stop-color="#2b2140"/>
      <stop offset="50%" stop-color="#5b3a7a"/>
      <stop offset="100%" stop-color="#a06fb0"/>
    </linearGradient>
  </defs>
  <rect width="1920" height="1080" fill="url(#g)"/>
  <circle cx="832.6" cy="576.7" r="1.32" fill="#ffffff" opacity="0.52"/>
  <circle cx="957.4" cy="653.8" r="1.22" fill="#ffffff" opacity="0.40"/>
  <circle cx="1689.9" cy="93.4" r="1.95" fill="#ffffff" opacity="0.53"/>
  <circle cx="15.5" cy="887.4" r="1.17" fill="#ffffff" opacity="0.49"/>
  <circle cx="389.0" cy="24.4" r="1.29" fill="#ffffff" opacity="0.33"/>
  <circle cx="680.8" cy="928.2" r="1.75" fill="#ffffff" opacity="0.62"/>
  <circle cx="906.1" cy="473.0" r="0.95" fill="#ffffff" opacity="0.40"/>
  <circle cx="959.1" cy="294.7" r="2.03" fill="#ffffff" opacity="0.50"/>
  <circle cx="707.8" cy="571.3" r="1.38" fill="#ffffff" opacity="0.77"/>
  <circle cx="567.2" cy="757.6" r="1.79" fill="#ffffff" opacity="0.62"/>
  <circle cx="836.4" cy="582.4" r="0.79" fill="#ffffff" opacity="0.60"/>
  <circle cx="1661.8" cy="906.1" r="1.38" fill="#ffffff" opacity="0.44"/>
  <circle cx="1135.7" cy="539.4" r="2.10" fill="#ffffff" opacity="0.35"/>
  <circle cx="99.5" cy="109.0" r="2.18" fill="#ffffff" opacity="0.65"/>
  <circle cx="52.8" cy="95.0" r="0.86" fill="#ffffff" opacity="0.41"/>
  <circle cx="1474.2" cy="654.3" r="0.98" fill="#ffffff" opacity="0.77"/>
  <circle cx="1883.6" cy="372.6" r="0.71" fill="#ffffff" opacity="0.32"/>
  <circle cx="228.7" cy="851.7" r="1.56" fill="#ffffff" opacity="0.44"/>
  <circle cx="969.2" cy="990.3" r="1.63" fill="#ffffff" opacity="0.54"/>
  <circle cx="111.7" cy="978.1" r="1.62" fill="#ffffff" opacity="0.65"/>
  <circle cx="1536.5" cy="1064.9" r="1.50" fill="#ffffff" opacity="0.82"/>
  <circle cx="1307.1" cy="437.2" r="1.83" fill="#ffffff" opacity="0.70"/>
  <circle cx="1060.8" cy="1024.9" r="0.73" fill="#ffffff" opacity="0.64"/>
  <circle cx="809.1" cy="225.0" r="1.58" fill="#ffffff" opacity="0.71"/>
  <circle cx="1372.2" cy="608.2" r="0.71" fill="#ffffff" opacity="0.78"/>
  <circle cx="386.4" cy="406.7" r="1.88" fill="#ffffff" opacity="0.52"/>
  <circle cx="1174.3" cy="45.2" r="1.91" fill="#ffffff" opacity="0.84"/>
  <circle cx="58.4" cy="508.1" r="1.49" fill="#ffffff" opacity="0.39"/>
  <circle cx="1202.8" cy="949.6" r="0.74" fill="#ffffff" opacity="0.63"/>
  <circle cx="894.3" cy="804.3" r="0.89" fill="#ffffff" opacity="0.35"/>
  <circle cx="850.4" cy="154.7" r="2.16" fill="#ffffff" opacity="0.58"/>
  <circle cx="1395.7" cy="748.8" r="2.11" fill="#ffffff" opacity="0.52"/>
  <circle cx="983.9" cy="139.7" r="1.94" fill="#ffffff" opacity="0.55"/>
  <circle cx="1068.2" cy="910.2" r="2.05" fill="#ffffff" opacity="0.71"/>
  <circle cx="635.7" cy="206.0" r="1.04" fill="#ffffff" opacity="0.40"/>
  <circle cx="530.6" cy="491.4" r="1.85" fill="#ffffff" opacity="0.31"/>
  <circle cx="1736.6" cy="774.2" r="1.60" fill="#ffffff" opacity="0.67"/>
  <circle cx="1334.6" cy="518.0" r="1.36" fill="#ffffff" opacity="0.41"/>
  <circle cx="116.2" cy="418.7" r="1.21" fill="#ffffff" opacity="0.81"/>
  <circle cx="1342.6" cy="580.9" r="1.55" fill="#ffffff" opacity="0.59"/>
  <circle cx="1017.4" cy="60.7" r="2.07" fill="#ffffff" opacity="0.42"/>
  <circle cx="1898.7" cy="58.2" r="1.37" fill="#ffffff" opacity="0.40"/>
  <circle cx="80.0" cy="559.4" r="1.82" fill="#ffffff" opacity="0.32"/>
  <circle cx="1427.7" cy="1067.9" r="1.69" fill="#ffffff" opacity="0.55"/>
  <circle cx="167.8" cy="1046.1" r="2.15" fill="#ffffff" opacity="0.66"/>
  <circle cx="785.6" cy="340.6" r="1.55" fill="#ffffff" opacity="0.75"/>
  <circle cx="1031.3" cy="868.3" r="1.80" fill="#ffffff" opacity="0.37"/>
  <circle cx="84.0" cy="702.7" r="1.41" fill="#ffffff" opacity="0.52"/>
  <circle cx="1642.1" cy="897.7" r="1.15" fill="#ffffff" opacity="0.68"/>
  <circle cx="1610.4" cy="523.2" r="2.18" fill="#ffffff" opacity="0.34"/>
  <circle cx="1481.7" cy="159.8" r="2.07" fill="#ffffff" opacity="0.61"/>
  <circle cx="478.8" cy="238.4" r="2.17" fill="#ffffff" opacity="0.65"/>
  <circle cx="495.1" cy="981.6" r="1.44" fill="#ffffff" opacity="0.76"/>
  <circle cx="1487.1" cy="516.8" r="1.22" fill="#ffffff" opacity="0.55"/>
  <circle cx="341.3" cy="597.6" r="1.64" fill="#ffffff" opacity="0.34"/>
  <circle cx="301.7" cy="1068.7" r="0.80" fill="#ffffff" opacity="0.72"/>
  <circle cx="298.4" cy="353.1" r="1.52" fill="#ffffff" opacity="0.42"/>
  <circle cx="1735.0" cy="681.1" r="0.90" fill="#ffffff" opacity="0.60"/>
  <circle cx="846.6" cy="272.5" r="1.16" fill="#ffffff" opacity="0.68"/>
  <circle cx="764.2" cy="975.1" r="1.86" fill="#ffffff" opacity="0.51"/>
  <circle cx="710.3" cy="867.7" r="1.16" fill="#ffffff" opacity="0.78"/>
  <circle cx="704.1" cy="315.8" r="2.10" fill="#ffffff" opacity="0.41"/>
  <circle cx="1381.8" cy="555.7" r="1.09" fill="#ffffff" opacity="0.80"/>
  <circle cx="1665.1" cy="569.8" r="1.53" fill="#ffffff" opacity="0.34"/>
  <circle cx="394.3" cy="905.7" r="1.93" fill="#ffffff" opacity="0.61"/>
  <circle cx="46.4" cy="303.4" r="1.60" fill="#ffffff" opacity="0.60"/>
  <circle cx="1525.8" cy="359.1" r="1.53" fill="#ffffff" opacity="0.61"/>
  <circle cx="1485.4" cy="159.7" r="2.11" fill="#ffffff" opacity="0.37"/>
  <circle cx="599.6" cy="370.1" r="1.97" fill="#ffffff" opacity="0.45"/>
  <circle cx="377.9" cy="297.2" r="1.34" fill="#ffffff" opacity="0.84"/>
</svg>
