<svg xmlns="http://www.w3.org/2000/svg" viewBox="0 0 1920 1080" preserveAspectRatio="xMidYMid slice">
  <defs>
    <linearGradient id="g" x1="0" y1="0" x2="1" y2="1">
      <stop offset="0%" stop-color="#2e1626"/>
      <stop offset="50%" stop-color="#a14d77"/>
      <stop offset="100%" stop-color="#f2c0d6"/>
    </linearGradient>
  </defs>
  <rect width="1920" height="1080" fill="url(#g)"/>
  <circle cx="1330.5" cy="680.0" r="1.32" fill="#ffe0ee" opacity="0.53"/>
  <circle cx="1363.2" cy="322.3" r="1.64" fill="#ffe0ee" opacity="0.50"/>
  <circle cx="40.1" cy="326.7" r="2.11" fill="#ffe0ee" opacity="0.42"/>
  <circle cx="1389.3" cy="358.7" r="0.91" fill="#ffe0ee" opacity="0.70"/>
  <circle cx="1200.8" cy="202.8" r="1.96" fill="#ffe0ee" opacity="0.74"/>
  <circle cx="1253.9" cy="724.4" r="1.53" fill="#ffe0ee" opacity="0.48"/>
  <circle cx="490.4" cy="967.6" r="2.02" fill="#ffe0ee" opacity="0.48"/>
  <circle cx="1123.1" cy="727.2" r="1.21" fill="#ffe0ee" opacity="0.77"/>
  <circle cx="695.1" cy="784.5" r="2.06" fill="#ffe0ee" opacity="0.33"/>
  <circle cx="914.7" cy="971.8" r="1.47" fill="#ffe0ee" opacity="0.65"/>
  <circle cx="1080.1" cy="589.7" r="1.62" fill="#ffe0ee" opacity="0.45"/>
  <circle cx="1113.9" cy="323.7" r="1.82" fill="#ffe0ee" opacity="0.39"/>
  <circle cx="346.9" cy="251.6" r="1.92" fill="#ffe0ee" opacity="0.56"/>
  <circle cx="775.6" cy="717.0" r="1.93" fill="#ffe0ee" opacity="0.68"/>
  <circle cx="1650.6" cy="193.0" r="0.72" fill="#ffe0ee" opacity="0.66"/>
  <circle cx="765.8" cy="814.3" r="1.26" fill="#ffe0ee" opacity="0.68"/>
  <circle cx="975.1" cy="1059.3" r="0.92" fill="#ffe0ee" opacity="0.30"/>
  <circle cx="244.0" cy="806.5" r="1.57" fill="#ffe0ee" opacity="0.32"/>
  <circle cx="1800.7" cy="744.3" r="1.33" fill="#ffe0ee" opacity="0.66"/>
  <circle cx="169.0" cy="1078.7" r="1.92" fill="#ffe0ee" opacity="0.32"/>
  <circle cx="1865.8" cy="954.8" r="1.95" fill="#ffe0ee" opacity="0.43"/>
  <circle cx="884.4" cy="308.6" r="1.81" fill="#ffe0ee" opacity="0.40"/>
  <circle cx="594.7" cy="1037.2" r="1.08" fill="#ffe0ee" opacity="0.46"/>
  <circle cx="1225.5" cy="211.1" r="1.91" fill="#ffe0ee" opacity="0.62"/>
  <circle cx="797.9" cy="255.5" r="0.95" fill="#ffe0ee" opacity="0.81"/>
  <circle cx="666.3" cy="233.3" r="0.93" fill="#ffe0ee" opacity="0.42"/>
  <circle cx="369.7" cy="1031.9" r="1.99" fill="#ffe0ee" opacity="0.32"/>
  <circle cx="1840.6" cy="271.6" r="0.75" fill="#ffe0ee" opacity="0.32"/>
  <circle cx="1695.9" cy="604.1" r="1.85" fill="#ffe0ee" opacity="0.68"/>
  <circle cx="256.8" cy="502.9" r="1.12" fill="#ffe0ee" opacity="0.82"/>
  <circle cx="1572.4" cy="575.0" r="0.79" fill="#ffe0ee" opacity="0.48"/>
  <circle cx="1386.9" cy="318.7" r="2.19" fill="#ffe0ee" opacity="0.32"/>
  <circle cx="862.4" cy="384.5" r="0.77" fill="#ffe0ee" opacity="0.42"/>
  <circle cx="153.3" cy="292.1" r="1.12" fill="#ffe0ee" opacity="0.44"/>
  <circle cx="694.8" cy="28.4" r="0.95" fill="#ffe0ee" opacity="0.36"/>
  <circle cx="1897.9" cy="1035.3" r="1.17" fill="#ffe0ee" opacity="0.47"/>
  <circle cx="667.1" cy="330.2" r="0.87" fill="#ffe0ee" opacity="0.54"/>
  <circle cx="671.0" cy="945.2" r="1.38" fill="#ffe0ee" opacity="0.72"/>
  <circle cx="556.9" cy="1058.5" r="2.19" fill="#ffe0ee" opacity="0.70"/>
  <circle cx="1527.3" cy="593.1" r="1.60" fill="#ffe0ee" opacity="0.35"/>
  <circle cx="164.2" cy="838.6" r="2.15" fill="#ffe0ee" opacity="0.42"/>
  <circle cx="1005.4" cy="4.1" r="1.45" fill="#ffe0ee" opacity="0.44"/>
  <circle cx="33.9" cy="381.5" r="1.37" fill="#ffe0ee" opacity="0.54"/>
  <circle cx="1563.5" cy="588.4" r="0.90" fill="#ffe0ee" opacity="0.72"/>
  <circle cx="1638.3" cy="693.8" r="0.84" fill="#ffe0ee" opacity="0.59"/>
  <circle cx="1731.4" cy="980.6" r="2.05" fill="#ffe0ee" opacity="0.81"/>
  <circle cx="1669.0" cy="1054.2" r="2.10" fill="#ffe0ee" opacity="0.62"/>
  <circle cx="73.8" cy="594.2" r="2.06" fill="#ffe0ee" opacity="0.36"/>
  <circle cx="376.8" cy="84.9" r="2.01" fill="#ffe0ee" opacity="0.76"/>
  <circle cx="95.5" cy="1012.1" r="2.04" fill="#ffe0ee" opacity="0.64"/>
  <circle cx="1741.3" cy="540.2" r="1.22" fill="#ffe0ee" opacity="0.68"/>
  <circle cx="1390.1" cy="155.4" r="0.87" fill="#ffe0ee" opacity="0.45"/>
  <circle cx="1484.7" cy="86.4" r="1.04" fill="#ffe0ee" opacity="0.53"/>
  <circle cx="531.6" cy="826.9" r="1.13" fill="#ffe0ee" opacity="0.72"/>
  <circle cx="707.6" cy="403.8" r="2.01" fill="#ffe0ee" opacity="0.67"/>
  <circle cx="1546.3" cy="371.9" r="1.94" fill="#ffe0ee" opacity="0.62"/>
  <circle cx="699.9" cy="201.6" r="1.54" fill="#ffe0ee" opacity="0.68"/>
  <circle cx="1339.8" cy="324.5" r="1.47" fill="#ffe0ee" opacity="0.77"/>
  <circle cx="889.1" cy="112.3" r="1.68" fill="#ffe0ee" opacity="0.58"/>
  <circle cx="1372.6" cy="970.4" r="2.15" fill="#ffe0ee" opacity="0.49"/>
  <circle cx="785.2" cy="906.8" r="1.49" fill="#ffe0ee" opacity="0.42"/>
  <circle cx="1694.3" cy="241.0" r="1.83" fill="#ffe0ee" opacity="0.66"/>
  <circle cx="271.2" cy="1044.0" r="1.18" fill="#ffe0ee" opacity="0.63"/>
  <circle cx="1109.3" cy="1056.1" r="1.79" fill="#ffe0ee" opacity="0.83"/>
  <circle cx="1283.5" cy="281.9" r="0.99" fill="#ffe0ee" opacity="0.81"/>
  <circle cx="259.3" cy="260.8" r="0.72" fill="#ffe0ee" opacity="0.64"/>
  <circle cx="1167.6" cy="171.2" r="1.75" fill="#ffe0ee" opacity="0.33"/>
  <circle cx="1363.2" cy="1068.3" r="0.79" fill="#ffe0ee" opacity="0.54"/>
  <circle cx="866.7" cy="652.8" r="1.28" fill="#ffe0ee" opacity="0.77"/>
  <circle cx="924.2" cy="111.4" r="1.61" fill="#ffe0ee" opacity="0.43"/>
</svg>
