<svg xmlns="http://www.w3.org/2000/svg" viewBox="0 0 1920 1080" preserveAspectRatio="xMidYMid slice">
  <defs>
    <linearGradient id="g" x1="0" y1="0" x2="1" y2="1">
      <stop offset="0%" stop-color="#021b3a"/>
      <stop offset="50%" stop-color="#064273"/>
      <stop offset="100%" stop-color="#2e7fb8"/>
    </linearGradient>
  </defs>
  <rect width="1920" height="1080" fill="url(#g)"/>
  <circle cx="641.1" cy="242.6" r="2.08" fill="#9fd0ff" opacity="0.82"/>
  <circle cx="1037.7" cy="935.6" r="1.34" fill="#9fd0ff" opacity="0.84"/>
  <circle cx="1888.7" cy="144.9" r="1.18" fill="#9fd0ff" opacity="0.82"/>
  <circle cx="733.1" cy="169.5" r="2.16" fill="#9fd0ff" opacity="0.85"/>
  <circle cx="319.3" cy="426.5" r="0.95" fill="#9fd0ff" opacity="0.49"/>
  <circle cx="607.5" cy="956.2" r="1.54" fill="#9fd0ff" opacity="0.72"/>
  <circle cx="1886.6" cy="192.6" r="1.52" fill="#9fd0ff" opacity="0.67"/>
  <circle cx="1669.3" cy="979.0" r="0.72" fill="#9fd0ff" opacity="0.84"/>
  <circle cx="1253.0" cy="313.3" r="2.02" fill="#9fd0ff" opacity="0.55"/>
  <circle cx="1104.0" cy="390.5" r="0.79" fill="#9fd0ff" opacity="0.57"/>
  <circle cx="71.9" cy="1011.8" r="1.48" fill="#9fd0ff" opacity="0.45"/>
  <circle cx="1472.3" cy="882.4" r="0.75" fill="#9fd0ff" opacity="0.34"/>
  <circle cx="1238.3" cy="285.4" r="1.24" fill="#9fd0ff" opacity="0.74"/>
  <circle cx="264.9" cy="510.3" r="1.37" fill="#9fd0ff" opacity="0.80"/>
  <circle cx="1410.6" cy="1040.3" r="1.04" fill="#9fd0ff" opacity="0.77"/>
  <circle cx="729.1" cy="305.9" r="2.10" fill="#9fd0ff" opacity="0.77"/>
  <circle cx="791.8" cy="432.0" r="1.02" fill="#9fd0ff" opacity="0.37"/>
  <circle cx="947.8" cy="286.9" r="0.79" fill="#9fd0ff" opacity="0.81"/>
  <circle cx="392.5" cy="97.6" r="0.87" fill="#9fd0ff" opacity="0.66"/>
  <circle cx="454.3" cy="585.4" r="2.04" fill="#9fd0ff" opacity="0.51"/>
  <circle cx="261.8" cy="452.4" r="1.82" fill="#9fd0ff" opacity="0.59"/>
  <circle cx="1557.6" cy="1027.6" r="1.59" fill="#9fd0ff" opacity="0.34"/>
  <circle cx="1088.8" cy="920.5" r="1.53" fill="#9fd0ff" opacity="0.37"/>
  <circle cx="548.2" cy="692.2" r="0.99" fill="#9fd0ff" opacity="0.72"/>
  <circle cx="887.9" cy="932.1" r="1.72" fill="#9fd0ff" opacity="0.71"/>
  <circle cx="1083.6" cy="1074.1" r="2.15" fill="#9fd0ff" opacity="0.37"/>
  <circle cx="256.4" cy="917.3" r="1.13" fill="#9fd0ff" opacity="0.72"/>
  <circle cx="171.9" cy="245.3" r="1.58" fill="#9fd0ff" opacity="0.37"/>
  <circle cx="966.7" cy="440.8" r="0.98" fill="#9fd0ff" opacity="0.31"/>
  <circle cx="1794.4" cy="101.9" r="1.13" fill="#9fd0ff" opacity="0.46"/>
  <circle cx="224.7" cy="865.2" r="0.99" fill="#9fd0ff" opacity="0.59"/>
  <circle cx="1053.4" cy="904.6" r="1.16" fill="#9fd0ff" opacity="0.52"/>
  <circle cx="1227.0" cy="166.7" r="0.82" fill="#9fd0ff" opacity="0.32"/>
  <circle cx="252.2" cy="861.4" r="1.09" fill="#9fd0ff" opacity="0.68"/>
  <circle cx="825.8" cy="788.6" r="1.47" fill="#9fd0ff" opacity="0.54"/>
  <circle cx="492.9" cy="248.7" r="2.05" fill="#9fd0ff" opacity="0.77"/>
  <circle cx="1352.9" cy="793.5" r="1.80" fill="#9fd0ff" opacity="0.71"/>
  <circle cx="797.2" cy="159.5" r="0.97" fill="#9fd0ff" opacity="0.31"/>
  <circle cx="1836.3" cy="511.4" r="1.87" fill="#9fd0ff" opacity="0.40"/>
  <circle cx="795.6" cy="531.9" r="1.40" fill="#9fd0ff" opacity="0.73"/>
  <circle cx="1259.4" cy="46.3" r="1.82" fill="#9fd0ff" opacity="0.44"/>
  <circle cx="1175.1" cy="163.3" r="1.71" fill="#9fd0ff" opacity="0.45"/>
  <circle cx="688.9" cy="744.4" r="1.96" fill="#9fd0ff" opacity="0.55"/>
  <circle cx="790.9" cy="44.5" r="1.65" fill="#9fd0ff" opacity="0.40"/>
  <circle cx="447.4" cy="928.8" r="1.97" fill="#9fd0ff" opacity="0.63"/>
  <circle cx="492.4" cy="957.9" r="1.51" fill="#9fd0ff" opacity="0.46"/>
  <circle cx="415.4" cy="1000.2" r="1.06" fill="#9fd0ff" opacity="0.84"/>
  <circle cx="1110.0" cy="921.1" r="1.67" fill="#9fd0ff" opacity="0.84"/>
  <circle cx="22.5" cy="1012.8" r="1.61" fill="#9fd0ff" opacity="0.46"/>
  <circle cx="1801.9" cy="276.0" r="0.81" fill="#9fd0ff" opacity="0.85"/>
  <circle cx="81.5" cy="38.2" r="2.00" fill="#9fd0ff" opacity="0.62"/>
  <circle cx="1336.5" cy="553.1" r="1.35" fill="#9fd0ff" opacity="0.37"/>
  <circle cx="1134.1" cy="138.6" r="1.07" fill="#9fd0ff" opacity="0.83"/>
  <circle cx="895.0" cy="727.2" r="0.91" fill="#9fd0ff" opacity="0.58"/>
  <circle cx="767.7" cy="985.6" r="1.19" fill="#9fd0ff" opacity="0.70"/>
  <circle cx="1786.1" cy="265.4" r="1.63" fill="#9fd0ff" opacity="0.38"/>
  <circle cx="109.4" cy="801.4" r="1.33" fill="#9fd0ff" opacity="0.65"/>
  <circle cx="152.6" cy="713.8" r="1.09" fill="#9fd0ff" opacity="0.42"/>
  <circle cx="1252.4" cy="963.3" r="0.84" fill="#9fd0ff" opacity="0.74"/>
  <circle cx="205.8" cy="391.6" r="1.93" fill="#9fd0ff" opacity="0.51"/>
  <circle cx="674.7" cy="488.2" r="1.58" fill="#9fd0ff" opacity="0.38"/>
  <circle cx="1205.6" cy="1056.9" r="0.90" fill="#9fd0ff" opacity="0.43"/>
  <circle cx="926.4" cy="261.5" r="1.00" fill="#9fd0ff" opacity="0.80"/>
  <circle cx="198.5" cy="380.9" r="1.48" fill="#9fd0ff" opacity="0.65"/>
  <circle cx="1706.1" cy="745.5" r="1.77" fill="#9fd0ff" opacity="0.40"/>
  <circle cx="1470.0" cy="551.6" r="1.46" fill="#9fd0ff" opacity="0.66"/>
  <circle cx="675.1" cy="881.6" r="2.14" fill="#9fd0ff" opacity="0.30"/>
  <circle cx="1792.0" cy="718.2" r="1.36" fill="#9fd0ff" opacity="0.79"/>
  <circle cx="1222.2" cy="894.1" r="1.75" fill="#9fd0ff" opacity="0.62"/>
  <circle cx="1606.6" cy="598.5" r="1.28" fill="#9fd0ff" opacity="0.73"/>
</svg>
