<svg xmlns="http://www.w3.org/2000/svg" viewBox="0 0 1920 1080" preserveAspectRatio="xMidYMid slice">
  <defs>
    <linearGradient id="g" x1="0" y1="0" x2="1" y2="1">
      <stop offset="0%" stop-color="#04263a"/>
      <stop offset="50%" stop-color="#1f6f8b"/>
      <stop offset="100%" stop-color="#7fc7d9"/>
    </linearGradient>
  </defs>
  <rect width="1920" height="1080" fill="url(#g)"/>
  <circle cx="1478.4" cy="784.4" r="1.45" fill="#dff4ff" opacity="0.77"/>
  <circle cx="882.7" cy="642.1" r="0.92" fill="#dff4ff" opacity="0.51"/>
  <circle cx="1696.4" cy="394.5" r="1.67" fill="#dff4ff" opacity="0.74"/>
  <circle cx="434.8" cy="42.4" r="1.86" fill="#dff4ff" opacity="0.79"/>
  <circle cx="1127.7" cy="383.9" r="1.56" fill="#dff4ff" opacity="0.64"/>
  <circle cx="330.1" cy="1015.7" r="1.14" fill="#dff4ff" opacity="0.83"/>
  <circle cx="1120.5" cy="1050.1" r="0.77" fill="#dff4ff" opacity="0.50"/>
  <circle cx="681.3" cy="396.8" r="1.92" fill="#dff4ff" opacity="0.54"/>
  <circle cx="1319.3" cy="22.6" r="1.23" fill="#dff4ff" opacity="0.70"/>
  <circle cx="640.4" cy="792.0" r="2.05" fill="#dff4ff" opacity="0.58"/>
  <circle cx="1801.4" cy="783.8" r="2.11" fill="#dff4ff" opacity="0.69"/>
  <circle cx="450.1" cy="377.6" r="1.54" fill="#dff4ff" opacity="0.57"/>
  <circle cx="212.2" cy="938.4" r="1.45" fill="#dff4ff" opacity="0.60"/>
  <circle cx="345.1" cy="737.0" r="0.97" fill="#dff4ff" opacity="0.60"/>
  <circle cx="1025.6" cy="432.7" r="1.26" fill="#dff4ff" opacity="0.65"/>
  <circle cx="337.3" cy="173.4" r="0.90" fill="#dff4ff" opacity="0.48"/>
  <circle cx="890.7" cy="576.1" r="1.48" fill="#dff4ff" opacity="0.34"/>
  <circle cx="1849.2" cy="212.5" r="1.47" fill="#dff4ff" opacity="0.30"/>
  <circle cx="1375.4" cy="481.1" r="1.44" fill="#dff4ff" opacity="0.51"/>
  <circle cx="1053.1" cy="824.7" r="0.98" fill="#dff4ff" opacity="0.75"/>
  <circle cx="89.2" cy="22.2" r="2.19" fill="#dff4ff" opacity="0.42"/>
  <circle cx="1347.4" cy="718.1" r="2.01" fill="#dff4ff" opacity="0.39"/>
  <circle cx="1530.8" cy="292.3" r="1.74" fill="#dff4ff" opacity="0.38"/>
  <circle cx="405.1" cy="641.4" r="1.29" fill="#dff4ff" opacity="0.77"/>
  <circle cx="1512.7" cy="645.6" r="1.91" fill="#dff4ff" opacity="0.69"/>
  <circle cx="596.4" cy="108.5" r="2.00" fill="#dff4ff" opacity="0.53"/>
  <circle cx="1601.0" cy="918.3" r="0.79" fill="#dff4ff" opacity="0.32"/>
  <circle cx="569.7" cy="953.6" r="0.92" fill="#dff4ff" opacity="0.36"/>
  <circle cx="1153.6" cy="275.1" r="2.19" fill="#dff4ff" opacity="0.47"/>
  <circle cx="141.6" cy="877.8" r="0.97" fill="#dff4ff" opacity="0.78"/>
  <circle cx="34.1" cy="300.2" r="1.35" fill="#dff4ff" opacity="0.55"/>
  <circle cx="742.1" cy="525.7" r="1.22" fill="#dff4ff" opacity="0.55"/>
  <circle cx="860.5" cy="206.3" r="0.99" fill="#dff4ff" opacity="0.42"/>
  <circle cx="1567.9" cy="719.9" r="1.41" fill="#dff4ff" opacity="0.32"/>
  <circle cx="685.3" cy="310.8" r="1.37" fill="#dff4ff" opacity="0.69"/>
  <circle cx="219.7" cy="413.7" r="1.20" fill="#dff4ff" opacity="0.60"/>
  <circle cx="398.5" cy="674.7" r="0.89" fill="#dff4ff" opacity="0.57"/>
  <circle cx="420.9" cy="131.8" r="2.06" fill="#dff4ff" opacity="0.32"/>
  <circle cx="953.5" cy="929.0" r="0.76" fill="#dff4ff" opacity="0.64"/>
  <circle cx="1829.0" cy="510.8" r="0.82" fill="#dff4ff" opacity="0.63"/>
  <circle cx="192.8" cy="495.2" r="1.83" fill="#dff4ff" opacity="0.50"/>
  <circle cx="804.9" cy="328.0" r="1.43" fill="#dff4ff" opacity="0.50"/>
  <circle cx="1544.7" cy="682.9" r="2.14" fill="#dff4ff" opacity="0.83"/>
  <circle cx="1041.3" cy="587.4" r="1.68" fill="#dff4ff" opacity="0.73"/>
  <circle cx="1244.8" cy="9.9" r="1.12" fill="#dff4ff" opacity="0.81"/>
  <circle cx="63.1" cy="915.1" r="1.81" fill="#dff4ff" opacity="0.78"/>
  <circle cx="987.7" cy="864.3" r="1.88" fill="#dff4ff" opacity="0.57"/>
  <circle cx="1577.8" cy="15.7" r="2.16" fill="#dff4ff" opacity="0.31"/>
  <circle cx="121.3" cy="485.3" r="1.09" fill="#dff4ff" opacity="0.79"/>
  <circle cx="1715.2" cy="1053.4" r="0.86" fill="#dff4ff" opacity="0.70"/>
  <circle cx="1846.3" cy="141.5" r="1.25" fill="#dff4ff" opacity="0.42"/>
  <circle cx="263.3" cy="152.3" r="0.72" fill="#dff4ff" opacity="0.68"/>
  <circle cx="1190.6" cy="631.7" r="0.72" fill="#dff4ff" opacity="0.77"/>
  <circle cx="353.9" cy="765.6" r="1.05" fill="#dff4ff" opacity="0.31"/>
  <circle cx="485.7" cy="417.2" r="1.06" fill="#dff4ff" opacity="0.77"/>
  <circle cx="964.4" cy="323.7" r="1.49" fill="#dff4ff" opacity="0.54"/>
  <circle cx="415.1" cy="288.9" r="1.26" fill="#dff4ff" opacity="0.77"/>
  <circle cx="1659.9" cy="273.5" r="0.83" fill="#dff4ff" opacity="0.33"/>
  <circle cx="4.0" cy="192.4" r="2.00" fill="#dff4ff" opacity="0.74"/>
  <circle cx="1602.0" cy="445.5" r="1.19" fill="#dff4ff" opacity="0.56"/>
  <circle cx="370.5" cy="850.1" r="0.78" fill="#dff4ff" opacity="0.56"/>
  <circle cx="149.5" cy="624.4" r="1.22" fill="#dff4ff" opacity="0.41"/>
  <circle cx="691.8" cy="350.5" r="2.07" fill="#dff4ff" opacity="0.32"/>
  <circle cx="1228.5" cy="219.0" r="0.73" fill="#dff4ff" opacity="0.64"/>
  <circle cx="193.4" cy="99.1" r="2.11" fill="#dff4ff" opacity="0.61"/>
  <circle cx="920.6" cy="107.3" r="1.65" fill="#dff4ff" opacity="0.84"/>
  <circle cx="282.4" cy="361.3" r="1.23" fill="#dff4ff" opacity="0.41"/>
  <circle cx="1542.7" cy="740.6" r="1.36" fill="#dff4ff" opacity="0.31"/>
  <circle cx="303.0" cy="354.2" r="1.88" fill="#dff4ff" opacity="0.41"/>
  <circle cx="1741.2" cy="447.5" r="1.34" fill="#dff4ff" opacity="0.49"/>
</svg>
