<svg xmlns="http://www.w3.org/2000/svg" viewBox="0 0 1920 1080" preserveAspectRatio="xMidYMid slice">
  <defs>
    <linearGradient id="g" x1="0" y1="0" x2="1" y2="1">
      <stop offset="0%" stop-color="#1a0f2e"/>
      <stop offset="50%" stop-color="#4b2a6b"/>
      <stop offset="100%" stop-color="#9b6fd0"/>
    </linearGradient>
  </defs>
  <rect width="1920" height="1080" fill="url(#g)"/>
  <circle cx="676.9" cy="238.2" r="2.10" fill="#e6d2ff" opacity="0.83"/>
  <circle cx="1692.8" cy="1042.5" r="0.99" fill="#e6d2ff" opacity="0.52"/>
  <circle cx="838.0" cy="283.4" r="1.24" fill="#e6d2ff" opacity="0.77"/>
  <circle cx="220.1" cy="790.1" r="2.16" fill="#e6d2ff" opacity="0.63"/>
  <circle cx="181.7" cy="629.0" r="0.93" fill="#e6d2ff" opacity="0.82"/>
  <circle cx="1079.2" cy="762.4" r="1.58" fill="#e6d2ff" opacity="0.70"/>
  <circle cx="325.8" cy="780.5" r="0.72" fill="#e6d2ff" opacity="0.35"/>
  <circle cx="1919.4" cy="635.2" r="0.79" fill="#e6d2ff" opacity="0.32"/>
  <circle cx="1682.8" cy="193.1" r="1.85" fill="#e6d2ff" opacity="0.32"/>
  <circle cx="482.8" cy="1063.8" r="1.97" fill="#e6d2ff" opacity="0.82"/>
  <circle cx="1789.5" cy="807.5" r="1.61" fill="#e6d2ff" opacity="0.55"/>
  <circle cx="1767.5" cy="975.7" r="1.02" fill="#e6d2ff" opacity="0.71"/>
  <circle cx="958.0" cy="95.1" r="1.85" fill="#e6d2ff" opacity="0.58"/>
  <circle cx="597.6" cy="826.4" r="0.72" fill="#e6d2ff" opacity="0.81"/>
  <circle cx="1707.9" cy="52.2" r="1.63" fill="#e6d2ff" opacity="0.67"/>
  <circle cx="110.9" cy="385.3" r="0.86" fill="#e6d2ff" opacity="0.58"/>
  <circle cx="68.4" cy="183.4" r="2.09" fill="#e6d2ff" opacity="0.66"/>
  <circle cx="997.8" cy="118.9" r="1.66" fill="#e6d2ff" opacity="0.42"/>
  <circle cx="734.7" cy="220.0" r="1.46" fill="#e6d2ff" opacity="0.56"/>
  <circle cx="1118.9" cy="972.6" r="1.83" fill="#e6d2ff" opacity="0.58"/>
  <circle cx="586.7" cy="59.2" r="1.87" fill="#e6d2ff" opacity="0.69"/>
  <circle cx="983.2" cy="454.7" r="1.92" fill="#e6d2ff" opacity="0.52"/>
  <circle cx="1326.7" cy="630.1" r="1.54" fill="#e6d2ff" opacity="0.66"/>
  <circle cx="591.9" cy="970.3" r="1.23" fill="#e6d2ff" opacity="0.39"/>
  <circle cx="1047.4" cy="634.0" r="1.46" fill="#e6d2ff" opacity="0.37"/>
  <circle cx="1034.1" cy="814.5" r="1.33" fill="#e6d2ff" opacity="0.32"/>
  <circle cx="1696.6" cy="927.6" r="2.13" fill="#e6d2ff" opacity="0.62"/>
  <circle cx="1081.4" cy="975.1" r="2.07" fill="#e6d2ff" opacity="0.74"/>
  <circle cx="611.7" cy="311.7" r="2.00" fill="#e6d2ff" opacity="0.73"/>
  <circle cx="569.0" cy="768.2" r="2.19" fill="#e6d2ff" opacity="0.43"/>
  <circle cx="1265.7" cy="2.6" r="1.46" fill="#e6d2ff" opacity="0.81"/>
  <circle cx="207.3" cy="994.2" r="1.14" fill="#e6d2ff" opacity="0.81"/>
  <circle cx="1645.9" cy="616.4" r="1.70" fill="#e6d2ff" opacity="0.58"/>
  <circle cx="1230.3" cy="781.8" r="1.90" fill="#e6d2ff" opacity="0.38"/>
  <circle cx="1027.1" cy="339.7" r="1.58" fill="#e6d2ff" opacity="0.71"/>
  <circle cx="824.8" cy="21.0" r="1.60" fill="#e6d2ff" opacity="0.70"/>
  <circle cx="1453.5" cy="321.9" r="1.99" fill="#e6d2ff" opacity="0.65"/>
  <circle cx="1568.0" cy="1059.1" r="1.03" fill="#e6d2ff" opacity="0.42"/>
  <circle cx="864.0" cy="429.6" r="1.24" fill="#e6d2ff" opacity="0.51"/>
  <circle cx="1292.6" cy="905.7" r="0.88" fill="#e6d2ff" opacity="0.68"/>
  <circle cx="481.0" cy="400.2" r="1.86" fill="#e6d2ff" opacity="0.45"/>
  <circle cx="673.9" cy="196.0" r="1.97" fill="#e6d2ff" opacity="0.64"/>
  <circle cx="910.0" cy="644.7" r="1.49" fill="#e6d2ff" opacity="0.63"/>
  <circle cx="1073.8" cy="277.4" r="1.83" fill="#e6d2ff" opacity="0.51"/>
  <circle cx="53.3" cy="1053.9" r="1.62" fill="#e6d2ff" opacity="0.56"/>
  <circle cx="492.2" cy="337.7" r="1.62" fill="#e6d2ff" opacity="0.47"/>
  <circle cx="1299.2" cy="852.2" r="0.88" fill="#e6d2ff" opacity="0.73"/>
  <circle cx="408.2" cy="755.0" r="1.78" fill="#e6d2ff" opacity="0.44"/>
  <circle cx="585.1" cy="876.8" r="1.92" fill="#e6d2ff" opacity="0.65"/>
  <circle cx="848.1" cy="208.6" r="1.21" fill="#e6d2ff" opacity="0.52"/>
  <circle cx="141.2" cy="873.7" r="1.38" fill="#e6d2ff" opacity="0.61"/>
  <circle cx="601.2" cy="52.3" r="1.34" fill="#e6d2ff" opacity="0.51"/>
  <circle cx="112.1" cy="577.3" r="1.08" fill="#e6d2ff" opacity="0.79"/>
  <circle cx="410.5" cy="1078.4" r="1.78" fill="#e6d2ff" opacity="0.47"/>
  <circle cx="461.0" cy="20.2" r="1.59" fill="#e6d2ff" opacity="0.67"/>
  <circle cx="107.2" cy="119.7" r="1.78" fill="#e6d2ff" opacity="0.32"/>
  <circle cx="294.4" cy="52.6" r="1.64" fill="#e6d2ff" opacity="0.38"/>
  <circle cx="378.3" cy="96.5" r="1.63" fill="#e6d2ff" opacity="0.58"/>
  <circle cx="1762.3" cy="300.6" r="0.76" fill="#e6d2ff" opacity="0.75"/>
  <circle cx="151.9" cy="842.5" r="1.09" fill="#e6d2ff" opacity="0.48"/>
  <circle cx="1789.0" cy="737.5" r="1.29" fill="#e6d2ff" opacity="0.55"/>
  <circle cx="1026.8" cy="371.2" r="1.67" fill="#e6d2ff" opacity="0.54"/>
  <circle cx="1450.5" cy="47.5" r="1.66" fill="#e6d2ff" opacity="0.38"/>
  <circle cx="570.8" cy="942.4" r="1.96" fill="#e6d2ff" opacity="0.68"/>
  <circle cx="1688.1" cy="1017.5" r="1.56" fill="#e6d2ff" opacity="0.71"/>
  <circle cx="1773.9" cy="247.0" r="0.93" fill="#e6d2ff" opacity="0.68"/>
  <circle cx="972.8" cy="453.9" r="1.91" fill="#e6d2ff" opacity="0.32"/>
  <circle cx="1248.8" cy="284.6" r="1.98" fill="#e6d2ff" opacity="0.39"/>
  <circle cx="1482.2" cy="1069.5" r="1.20" fill="#e6d2ff" opacity="0.65"/>
  <circle cx="923.3" cy="150.5" r="1.93" fill="#e6d2ff" opacity="0.50"/>
</svg>
