<svg xmlns="http://www.w3.org/2000/svg" viewBox="0 0 1920 1080" preserveAspectRatio="xMidYMid slice">
  <defs>
    <linearGradient id="g" x1="0" y1="0" x2="1" y2="1">
      <stop offset="0%" stop-color="#0a0f3a"/>
      <stop offset="50%" stop-color="#27357a"/>
      <stop offset="100%" stop-color="#6f86d6"/>
    </linearGradient>
  </defs>
  <rect width="1920" height="1080" fill="url(#g)"/>
  <circle cx="570.1" cy="592.8" r="1.43" fill="#cdd8ff" opacity="0.67"/>
  <circle cx="1638.8" cy="399.3" r="1.13" fill="#cdd8ff" opacity="0.38"/>
  <circle cx="1571.4" cy="253.0" r="1.54" fill="#cdd8ff" opacity="0.72"/>
  <circle cx="858.2" cy="25.0" r="0.84" fill="#cdd8ff" opacity="0.84"/>
  <circle cx="176.6" cy="737.4" r="1.30" fill="#cdd8ff" opacity="0.65"/>
  <circle cx="1729.3" cy="116.6" r="1.35" fill="#cdd8ff" opacity="0.85"/>
  <circle cx="73.1" cy="159.9" r="1.17" fill="#cdd8ff" opacity="0.38"/>
  <circle cx="1522.7" cy="84.8" r="1.91" fill="#cdd8ff" opacity="0.74"/>
  <circle cx="530.8" cy="898.9" r="1.09" fill="#cdd8ff" opacity="0.56"/>
  <circle cx="1667.0" cy="535.4" r="1.73" fill="#cdd8ff" opacity="0.53"/>
  <circle cx="123.5" cy="603.1" r="1.60" fill="#cdd8ff" opacity="0.65"/>
  <circle cx="1619.4" cy="547.2" r="1.68" fill="#cdd8ff" opacity="0.48"/>
  <circle cx="672.3" cy="88.7" r="2.03" fill="#cdd8ff" opacity="0.47"/>
  <circle cx="829.9" cy="943.2" r="1.27" fill="#cdd8ff" opacity="0.75"/>
  <circle cx="698.6" cy="622.2" r="1.26" fill="#cdd8ff" opacity="0.42"/>
  <circle cx="1676.8" cy="1006.4" r="1.47" fill="#cdd8ff" opacity="0.48"/>
  <circle cx="188.6" cy="45.2" r="1.61" fill="#cdd8ff" opacity="0.73"/>
  <circle cx="1787.2" cy="856.1" r="1.82" fill="#cdd8ff" opacity="0.36"/>
  <circle cx="917.8" cy="1035.5" r="1.49" fill="#cdd8ff" opacity="0.63"/>
  <circle cx="701.4" cy="27.5" r="1.57" fill="#cdd8ff" opacity="0.65"/>
  <circle cx="358.3" cy="815.8" r="1.81" fill="#cdd8ff" opacity="0.57"/>
  <circle cx="179.6" cy="507.9" r="2.19" fill="#cdd8ff" opacity="0.43"/>
  <circle cx="555.6" cy="746.6" r="1.08" fill="#cdd8ff" opacity="0.57"/>
  <circle cx="1409.2" cy="59.7" r="0.70" fill="#cdd8ff" opacity="0.78"/>
  <circle cx="1287.2" cy="390.3" r="1.66" fill="#cdd8ff" opacity="0.38"/>
  <circle cx="800.3" cy="420.3" r="1.52" fill="#cdd8ff" opacity="0.41"/>
  <circle cx="70.8" cy="378.4" r="2.14" fill="#cdd8ff" opacity="0.71"/>
  <circle cx="1395.6" cy="65.7" r="1.01" fill="#cdd8ff" opacity="0.47"/>
  <circle cx="1522.4" cy="18.3" r="1.88" fill="#cdd8ff" opacity="0.61"/>
  <circle cx="1910.3" cy="434.7" r="0.75" fill="#cdd8ff" opacity="0.34"/>
  <circle cx="929.2" cy="194.5" r="2.18" fill="#cdd8ff" opacity="0.71"/>
  <circle cx="977.5" cy="1047.2" r="1.51" fill="#cdd8ff" opacity="0.70"/>
  <circle cx="1370.2" cy="1045.3" r="2.15" fill="#cdd8ff" opacity="0.72"/>
  <circle cx="1287.5" cy="158.7" r="1.22" fill="#cdd8ff" opacity="0.35"/>
  <circle cx="1074.7" cy="666.6" r="2.10" fill="#cdd8ff" opacity="0.50"/>
  <circle cx="1069.6" cy="172.0" r="0.96" fill="#cdd8ff" opacity="0.47"/>
  <circle cx="770.4" cy="582.1" r="1.78" fill="#cdd8ff" opacity="0.61"/>
  <circle cx="1313.9" cy="17.4" r="1.68" fill="#cdd8ff" opacity="0.38"/>
  <circle cx="697.4" cy="657.3" r="1.17" fill="#cdd8ff" opacity="0.61"/>
  <circle cx="1582.0" cy="270.2" r="0.87" fill="#cdd8ff" opacity="0.58"/>
  <circle cx="512.1" cy="193.8" r="2.13" fill="#cdd8ff" opacity="0.53"/>
  <circle cx="986.6" cy="451.3" r="1.39" fill="#cdd8ff" opacity="0.78"/>
  <circle cx="30.7" cy="1064.0" r="1.34" fill="#cdd8ff" opacity="0.78"/>
  <circle cx="447.7" cy="529.4" r="0.79" fill="#cdd8ff" opacity="0.75"/>
  <circle cx="1474.4" cy="301.8" r="2.17" fill="#cdd8ff" opacity="0.56"/>
  <circle cx="686.9" cy="383.3" r="2.08" fill="#cdd8ff" opacity="0.54"/>
  <circle cx="1094.7" cy="957.6" r="1.51" fill="#cdd8ff" opacity="0.70"/>
  <circle cx="880.6" cy="834.8" r="2.09" fill="#cdd8ff" opacity="0.82"/>
  <circle cx="1324.9" cy="573.1" r="1.77" fill="#cdd8ff" opacity="0.76"/>
  <circle cx="646.9" cy="496.4" r="1.93" fill="#cdd8ff" opacity="0.43"/>
  <circle cx="1691.5" cy="728.4" r="1.09" fill="#cdd8ff" opacity="0.66"/>
  <circle cx="1344.5" cy="756.1" r="1.29" fill="#cdd8ff" opacity="0.78"/>
  <circle cx="1256.2" cy="853.7" r="1.92" fill="#cdd8ff" opacity="0.51"/>
  <circle cx="1451.2" cy="1020.9" r="2.12" fill="#cdd8ff" opacity="0.35"/>
  <circle cx="1032.7" cy="600.9" r="1.50" fill="#cdd8ff" opacity="0.78"/>
  <circle cx="1783.6" cy="364.5" r="1.19" fill="#cdd8ff" opacity="0.55"/>
  <circle cx="651.8" cy="83.4" r="1.96" fill="#cdd8ff" opacity="0.71"/>
  <circle cx="1345.6" cy="1037.1" r="1.61" fill="#cdd8ff" opacity="0.45"/>
  <circle cx="1022.6" cy="1072.7" r="1.64" fill="#cdd8ff" opacity="0.54"/>
  <circle cx="1456.9" cy="79.9" r="0.86" fill="#cdd8ff" opacity="0.78"/>
  <circle cx="1532.6" cy="62.4" r="1.98" fill="#cdd8ff" opacity="0.44"/>
  <circle cx="875.9" cy="458.5" r="0.85" fill="#cdd8ff" opacity="0.60"/>
  <circle cx="944.3" cy="489.4" r="1.83" fill="#cdd8ff" opacity="0.46"/>
  <circle cx="508.5" cy="336.0" r="0.79" fill="#cdd8ff" opacity="0.34"/>
  <circle cx="1092.2" cy="924.4" r="1.19" fill="#cdd8ff" opacity="0.75"/>
  <circle cx="914.2" cy="252.5" r="1.48" fill="#cdd8ff" opacity="0.40"/>
  <circle cx="310.7" cy="3.7" r="1.68" fill="#cdd8ff" opacity="0.72"/>
  <circle cx="848.5" cy="487.6" r="1.75" fill="#cdd8ff" opacity="0.50"/>
  <circle cx="193.0" cy="438.0" r="2.11" fill="#cdd8ff" opacity="0.36"/>
  <circle cx="1875.6" cy="577.5" r="1.28" fill="#cdd8ff" opacity="0.48"/>
</svg>
