<svg xmlns="http://www.w3.org/2000/svg" viewBox="0 0 1920 1080" preserveAspectRatio="xMidYMid slice">
  <defs>
    <linearGradient id="g" x1="0" y1="0" x2="1" y2="1">
      <stop offset="0%" stop-color="#0a0518"/>
      <stop offset="50%" stop-color="#1f0f3a"/>
      <stop offset="100%" stop-color="#3a1f5e"/>
    </linearGradient>
  </defs>
  <rect width="1920" height="1080" fill="url(#g)"/>
  <circle cx="1439.1" cy="67.2" r="1.39" fill="#dfe8ff" opacity="0.68"/>
  <circle cx="1894.3" cy="78.0" r="0.89" fill="#dfe8ff" opacity="0.54"/>
  <circle cx="1477.9" cy="464.9" r="1.13" fill="#dfe8ff" opacity="0.68"/>
  <circle cx="337.3" cy="735.9" r="1.27" fill="#dfe8ff" opacity="0.41"/>
  <circle cx="216.8" cy="125.2" r="2.13" fill="#dfe8ff" opacity="0.77"/>
  <circle cx="599.9" cy="1056.2" r="0.70" fill="#dfe8ff" opacity="0.70"/>
  <circle cx="1680.6" cy="776.2" r="0.80" fill="#dfe8ff" opacity="0.41"/>
  <circle cx="838.0" cy="1038.4" r="1.31" fill="#dfe8ff" opacity="0.38"/>
  <circle cx="824.0" cy="643.4" r="1.73" fill="#dfe8ff" opacity="0.80"/>
  <circle cx="86.7" cy="1057.6" r="2.19" fill="#dfe8ff" opacity="0.67"/>
  <circle cx="644.2" cy="112.0" r="1.26" fill="#dfe8ff" opacity="0.63"/>
  <circle cx="1643.0" cy="443.8" r="1.34" fill="#dfe8ff" opacity="0.84"/>
  <circle cx="195.1" cy="343.9" r="1.82" fill="#dfe8ff" opacity="0.83"/>
  <circle cx="1147.2" cy="57.0" r="0.86" fill="#dfe8ff" opacity="0.42"/>
  <circle cx="195.9" cy="755.1" r="0.72" fill="#dfe8ff" opacity="0.63"/>
  <circle cx="1877.4" cy="427.9" r="1.60" fill="#dfe8ff" opacity="0.52"/>
  <circle cx="1251.6" cy="650.4" r="0.72" fill="#dfe8ff" opacity="0.62"/>
  <circle cx="1265.2" cy="188.6" r="0.90" fill="#dfe8ff" opacity="0.51"/>
  <circle cx="503.3" cy="195.5" r="1.96" fill="#dfe8ff" opacity="0.80"/>
  <circle cx="56.4" cy="830.7" r="1.45" fill="#dfe8ff" opacity="0.38"/>
  <circle cx="247.8" cy="322.9" r="2.06" fill="#dfe8ff" opacity="0.36"/>
  <circle cx="1806.0" cy="986.4" r="1.54" fill="#dfe8ff" opacity="0.34"/>
  <circle cx="144.9" cy="311.1" r="1.55" fill="#dfe8ff" opacity="0.66"/>
  <circle cx="103.1" cy="422.8" r="1.24" fill="#dfe8ff" opacity="0.39"/>
  <circle cx="1197.6" cy="7.6" r="1.26" fill="#dfe8ff" opacity="0.61"/>
  <circle cx="518.3" cy="801.1" r="2.00" fill="#dfe8ff" opacity="0.75"/>
  <circle cx="1643.0" cy="458.3" r="1.15" fill="#dfe8ff" opacity="0.39"/>
  <circle cx="1631.4" cy="600.5" r="1.66" fill="#dfe8ff" opacity="0.31"/>
  <circle cx="93.6" cy="819.9" r="1.36" fill="#dfe8ff" opacity="0.33"/>
  <circle cx="581.5" cy="1072.3" r="0.86" fill="#dfe8ff" opacity="0.69"/>
  <circle cx="566.8" cy="190.3" r="1.00" fill="#dfe8ff" opacity="0.56"/>
  <circle cx="205.7" cy="920.5" r="1.76" fill="#dfe8ff" opacity="0.82"/>
  <circle cx="1005.9" cy="16.8" r="1.56" fill="#dfe8ff" opacity="0.56"/>
  <circle cx="701.3" cy="378.4" r="1.96" fill="#dfe8ff" opacity="0.54"/>
  <circle cx="1643.1" cy="16.2" r="1.55" fill="#dfe8ff" opacity="0.57"/>
  <circle cx="1780.5" cy="6.6" r="2.15" fill="#dfe8ff" opacity="0.71"/>
  <circle cx="907.0" cy="456.8" r="0.74" fill="#dfe8ff" opacity="0.71"/>
  <circle cx="1535.2" cy="515.1" r="0.90" fill="#dfe8ff" opacity="0.33"/>
  <circle cx="1153.3" cy="859.9" r="1.42" fill="#dfe8ff" opacity="0.39"/>
  <circle cx="753.7" cy="971.9" r="2.19" fill="#dfe8ff" opacity="0.53"/>
  <circle cx="1172.1" cy="503.2" r="1.77" fill="#dfe8ff" opacity="0.59"/>
  <circle cx="556.1" cy="105.1" r="1.66" fill="#dfe8ff" opacity="0.42"/>
  <circle cx="868.0" cy="357.5" r="1.09" fill="#dfe8ff" opacity="0.51"/>
  <circle cx="1784.4" cy="603.2" r="2.06" fill="#dfe8ff" opacity="0.76"/>
  <circle cx="111.2" cy="70.4" r="1.86" fill="#dfe8ff" opacity="0.84"/>
  <circle cx="1752.1" cy="889.9" r="1.91" fill="#dfe8ff" opacity="0.34"/>
  <circle cx="233.0" cy="406.9" r="2.16" fill="#dfe8ff" opacity="0.54"/>
  <circle cx="1137.9" cy="471.2" r="1.57" fill="#dfe8ff" opacity="0.81"/>
  <circle cx="115.6" cy="125.7" r="0.73" fill="#dfe8ff" opacity="0.32"/>
  <circle cx="162.0" cy="640.4" r="1.78" fill="#dfe8ff" opacity="0.66"/>
  <circle cx="1797.5" cy="195.1" r="1.32" fill="#dfe8ff" opacity="0.79"/>
  <circle cx="1447.7" cy="192.9" r="1.42" fill="#dfe8ff" opacity="0.30"/>
  <circle cx="1147.4" cy="555.1" r="0.76" fill="#dfe8ff" opacity="0.33"/>
  <circle cx="773.6" cy="1078.0" r="1.09" fill="#dfe8ff" opacity="0.71"/>
  <circle cx="1040.8" cy="361.0" r="2.00" fill="#dfe8ff" opacity="0.83"/>
  <circle cx="1904.0" cy="362.4" r="1.89" fill="#dfe8ff" opacity="0.84"/>
  <circle cx="1841.6" cy="1021.9" r="1.01" fill="#dfe8ff" opacity="0.43"/>
  <circle cx="289.9" cy="94.1" r="1.14" fill="#dfe8ff" opacity="0.64"/>
  <circle cx="630.4" cy="1.3" r="1.49" fill="#dfe8ff" opacity="0.49"/>
  <circle cx="922.7" cy="752.4" r="0.92" fill="#dfe8ff" opacity="0.73"/>
  <circle cx="623.8" cy="715.9" r="2.17" fill="#dfe8ff" opacity="0.41"/>
  <circle cx="541.8" cy="1052.2" r="2.19" fill="#dfe8ff" opacity="0.83"/>
  <circle cx="590.0" cy="189.2" r="1.30" fill="#dfe8ff" opacity="0.61"/>
  <circle cx="506.1" cy="1006.7" r="1.74" fill="#dfe8ff" opacity="0.80"/>
  <circle cx="1862.3" cy="642.7" r="1.62" fill="#dfe8ff" opacity="0.39"/>
  <circle cx="298.1" cy="830.5" r="1.33" fill="#dfe8ff" opacity="0.71"/>
  <circle cx="723.1" cy="1021.8" r="2.06" fill="#dfe8ff" opacity="0.76"/>
  <circle cx="700.4" cy="594.2" r="1.14" fill="#dfe8ff" opacity="0.76"/>
  <circle cx="5.8" cy="356.7" r="0.75" fill="#dfe8ff" opacity="0.44"/>
  <circle cx="658.0" cy="885.8" r="1.61" fill="#dfe8ff" opacity="0.30"/>
  <circle cx="156.3" cy="1072.0" r="1.42" fill="#dfe8ff" opacity="0.43"/>
  <circle cx="1369.8" cy="295.5" r="2.04" fill="#dfe8ff" opacity="0.68"/>
  <circle cx="1018.5" cy="142.8" r="0.82" fill="#dfe8ff" opacity="0.68"/>
  <circle cx="1815.7" cy="684.7" r="1.93" fill="#dfe8ff" opacity="0.64"/>
  <circle cx="1549.1" cy="192.1" r="1.29" fill="#dfe8ff" opacity="0.41"/>
  <circle cx="655.2" cy="460.6" r="1.55" fill="#dfe8ff" opacity="0.79"/>
  <circle cx="1638.1" cy="683.0" r="1.51" fill="#dfe8ff" opacity="0.37"/>
  <circle cx="132.2" cy="597.0" r="0.71" fill="#dfe8ff" opacity="0.74"/>
  <circle cx="1298.6" cy="635.4" r="0.89" fill="#dfe8ff" opacity="0.59"/>
  <circle cx="1801.1" cy="628.8" r="1.24" fill="#dfe8ff" opacity="0.74"/>
</svg>
