<svg xmlns="http://www.w3.org/2000/svg" viewBox="0 0 1920 1080" preserveAspectRatio="xMidYMid slice">
  <defs>
    <linearGradient id="g" x1="0" y1="0" x2="1" y2="1">
      <stop offset="0%" stop-color="#12040c"/>
      <stop offset="50%" stop-color="#3a0f2a"/>
      <stop offset="100%" stop-color="#5e1f44"/>
    </linearGradient>
  </defs>
  <rect width="1920" height="1080" fill="url(#g)"/>
  <circle cx="1671.4" cy="861.8" r="0.97" fill="#dfe8ff" opacity="0.78"/>
  <circle cx="1518.7" cy="152.3" r="1.79" fill="#dfe8ff" opacity="0.33"/>
  <circle cx="341.4" cy="601.1" r="1.72" fill="#dfe8ff" opacity="0.52"/>
  <circle cx="1062.2" cy="322.7" r="1.55" fill="#dfe8ff" opacity="0.84"/>
  <circle cx="554.8" cy="9.1" r="1.44" fill="#dfe8ff" opacity="0.55"/>
  <circle cx="1770.9" cy="460.7" r="2.09" fill="#dfe8ff" opacity="0.75"/>
  <circle cx="904.3" cy="861.8" r="1.69" fill="#dfe8ff" opacity="0.40"/>
  <circle cx="1709.0" cy="684.1" r="1.89" fill="#dfe8ff" opacity="0.70"/>
  <circle cx="1808.1" cy="956.6" r="1.12" fill="#dfe8ff" opacity="0.68"/>
  <circle cx="1840.6" cy="288.2" r="1.66" fill="#dfe8ff" opacity="0.47"/>
  <circle cx="1465.2" cy="887.9" r="0.89" fill="#dfe8ff" opacity="0.47"/>
  <circle cx="185.6" cy="589.0" r="1.56" fill="#dfe8ff" opacity="0.76"/>
  <circle cx="1013.1" cy="122.9" r="1.41" fill="#dfe8ff" opacity="0.40"/>
  <circle cx="176.7" cy="223.0" r="1.05" fill="#dfe8ff" opacity="0.82"/>
  <circle cx="1425.2" cy="176.2" r="0.82" fill="#dfe8ff" opacity="0.56"/>
  <circle cx="1016.3" cy="107.4" r="1.87" fill="#dfe8ff" opacity="0.69"/>
  <circle cx="1446.7" cy="971.8" r="1.36" fill="#dfe8ff" opacity="0.41"/>
  <circle cx="244.2" cy="370.3" r="0.85" fill="#dfe8ff" opacity="0.80"/>
  <circle cx="1692.3" cy="559.8" r="1.06" fill="#dfe8ff" opacity="0.42"/>
  <circle cx="1252.8" cy="805.4" r="1.25" fill="#dfe8ff" opacity="0.44"/>
  <circle cx="1416.3" cy="941.3" r="1.25" fill="#dfe8ff" opacity="0.36"/>
  <circle cx="937.7" cy="416.7" r="1.07" fill="#dfe8ff" opacity="0.38"/>
  <circle cx="1259.3" cy="685.9" r="2.00" fill="#dfe8ff" opacity="0.30"/>
  <circle cx="899.7" cy="463.9" r="1.75" fill="#dfe8ff" opacity="0.53"/>
  <circle cx="602.9" cy="1027.7" r="1.42" fill="#dfe8ff" opacity="0.58"/>
  <circle cx="101.4" cy="502.2" r="1.51" fill="#dfe8ff" opacity="0.43"/>
  <circle cx="1112.0" cy="580.2" r="0.93" fill="#dfe8ff" opacity="0.84"/>
  <circle cx="1112.6" cy="531.6" r="0.86" fill="#dfe8ff" opacity="0.81"/>
  <circle cx="1661.9" cy="554.1" r="1.77" fill="#dfe8ff" opacity="0.63"/>
  <circle cx="881.7" cy="790.0" r="1.57" fill="#dfe8ff" opacity="0.57"/>
  <circle cx="266.4" cy="983.6" r="1.18" fill="#dfe8ff" opacity="0.68"/>
  <circle cx="898.7" cy="2.7" r="1.71" fill="#dfe8ff" opacity="0.45"/>
  <circle cx="1265.9" cy="663.9" r="0.72" fill="#dfe8ff" opacity="0.52"/>
  <circle cx="1299.1" cy="222.8" r="2.04" fill="#dfe8ff" opacity="0.45"/>
  <circle cx="1302.5" cy="533.1" r="1.53" fill="#dfe8ff" opacity="0.62"/>
  <circle cx="1655.2" cy="883.4" r="2.01" fill="#dfe8ff" opacity="0.38"/>
  <circle cx="1101.6" cy="719.6" r="2.19" fill="#dfe8ff" opacity="0.83"/>
  <circle cx="289.7" cy="820.5" r="1.69" fill="#dfe8ff" opacity="0.34"/>
  <circle cx="1285.9" cy="129.9" r="1.07" fill="#dfe8ff" opacity="0.48"/>
  <circle cx="1464.8" cy="368.3" r="1.17" fill="#dfe8ff" opacity="0.60"/>
  <circle cx="212.6" cy="770.2" r="1.92" fill="#dfe8ff" opacity="0.61"/>
  <circle cx="1521.6" cy="763.5" r="1.51" fill="#dfe8ff" opacity="0.85"/>
  <circle cx="1564.1" cy="941.0" r="1.65" fill="#dfe8ff" opacity="0.38"/>
  <circle cx="401.5" cy="459.6" r="1.22" fill="#dfe8ff" opacity="0.34"/>
  <circle cx="1363.2" cy="1063.9" r="0.77" fill="#dfe8ff" opacity="0.78"/>
  <circle cx="1680.2" cy="628.1" r="1.38" fill="#dfe8ff" opacity="0.34"/>
  <circle cx="1231.7" cy="230.4" r="0.87" fill="#dfe8ff" opacity="0.75"/>
  <circle cx="1600.3" cy="983.7" r="2.01" fill="#dfe8ff" opacity="0.51"/>
  <circle cx="742.9" cy="56.6" r="0.79" fill="#dfe8ff" opacity="0.75"/>
  <circle cx="879.8" cy="759.3" r="0.91" fill="#dfe8ff" opacity="0.52"/>
  <circle cx="147.3" cy="422.4" r="1.35" fill="#dfe8ff" opacity="0.46"/>
  <circle cx="1176.1" cy="415.2" r="1.54" fill="#dfe8ff" opacity="0.56"/>
  <circle cx="649.6" cy="1040.9" r="1.38" fill="#dfe8ff" opacity="0.42"/>
  <circle cx="1310.1" cy="684.2" r="1.88" fill="#dfe8ff" opacity="0.84"/>
  <circle cx="345.0" cy="226.2" r="1.03" fill="#dfe8ff" opacity="0.61"/>
  <circle cx="1752.4" cy="776.6" r="1.73" fill="#dfe8ff" opacity="0.54"/>
  <circle cx="419.0" cy="411.1" r="1.20" fill="#dfe8ff" opacity="0.54"/>
  <circle cx="412.1" cy="787.8" r="0.75" fill="#dfe8ff" opacity="0.55"/>
  <circle cx="1292.2" cy="759.0" r="1.07" fill="#dfe8ff" opacity="0.44"/>
  <circle cx="1732.2" cy="226.7" r="0.71" fill="#dfe8ff" opacity="0.68"/>
  <circle cx="1415.0" cy="422.9" r="1.93" fill="#dfe8ff" opacity="0.82"/>
  <circle cx="963.5" cy="307.0" r="1.27" fill="#dfe8ff" opacity="0.72"/>
  <circle cx="721.6" cy="734.8" r="0.74" fill="#dfe8ff" opacity="0.56"/>
  <circle cx="409.3" cy="1021.0" r="1.38" fill="#dfe8ff" opacity="0.63"/>
  <circle cx="1903.6" cy="830.9" r="1.49" fill="#dfe8ff" opacity="0.32"/>
  <circle cx="838.0" cy="1001.5" r="1.56" fill="#dfe8ff" opacity="0.41"/>
  <circle cx="1243.3" cy="969.5" r="0.78" fill="#dfe8ff" opacity="0.49"/>
  <circle cx="1759.4" cy="247.9" r="1.28" fill="#dfe8ff" opacity="0.33"/>
  <circle cx="1658.6" cy="239.8" r="2.02" fill="#dfe8ff" opacity="0.59"/>
  <circle cx="1258.5" cy="184.9" r="1.92" fill="#dfe8ff" opacity="0.30"/>
  <circle cx="1014.2" cy="182.3" r="0.84" fill="#dfe8ff" opacity="0.68"/>
  <circle cx="560.1" cy="148.2" r="1.46" fill="#dfe8ff" opacity="0.72"/>
  <circle cx="677.6" cy="168.3" r="1.01" fill="#dfe8ff" opacity="0.66"/>
  <circle cx="650.7" cy="117.4" r="2.16" fill="#dfe8ff" opacity="0.36"/>
  <circle cx="1254.5" cy="790.0" r="1.23" fill="#dfe8ff" opacity="0.73"/>
  <circle cx="856.5" cy="1015.4" r="2.00" fill="#dfe8ff" opacity="0.73"/>
  <circle cx="261.8" cy="616.2" r="2.09" fill="#dfe8ff" opacity="0.67"/>
  <circle cx="1303.7" cy="100.7" r="1.64" fill="#dfe8ff" opacity="0.83"/>
  <circle cx="463.1" cy="387.5" r="1.56" fill="#dfe8ff" opacity="0.48"/>
  <circle cx="1424.9" cy="1064.2" r="1.03" fill="#dfe8ff" opacity="0.70"/>
</svg>
