<svg xmlns="http://www.w3.org/2000/svg" viewBox="0 0 1920 1080" preserveAspectRatio="xMidYMid slice">
  <defs>
    <linearGradient id="g" x1="0" y1="0" x2="1" y2="1">
      <stop offset="0%" stop-color="#040506"/>
      <stop offset="50%" stop-color="#0f1115"/>
      <stop offset="100%" stop-color="#1c1f24"/>
    </linearGradient>
  </defs>
  <rect width="1920" height="1080" fill="url(#g)"/>
  <circle cx="266.5" cy="689.9" r="1.22" fill="#dfe8ff" opacity="0.62"/>
  <circle cx="1834.9" cy="317.8" r="0.97" fill="#dfe8ff" opacity="0.54"/>
  <circle cx="1227.3" cy="1054.3" r="1.51" fill="#dfe8ff" opacity="0.49"/>
  <circle cx="1146.3" cy="775.2" r="1.62" fill="#dfe8ff" opacity="0.60"/>
  <circle cx="336.8" cy="19.8" r="1.54" fill="#dfe8ff" opacity="0.53"/>
  <circle cx="623.7" cy="924.5" r="1.77" fill="#dfe8ff" opacity="0.58"/>
  <circle cx="916.4" cy="724.2" r="2.06" fill="#dfe8ff" opacity="0.66"/>
  <circle cx="1712.6" cy="257.9" r="1.11" fill="#dfe8ff" opacity="0.55"/>
  <circle cx="1330.9" cy="669.4" r="2.10" fill="#dfe8ff" opacity="0.75"/>
  <circle cx="802.7" cy="448.4" r="1.35" fill="#dfe8ff" opacity="0.41"/>
  <circle cx="1078.6" cy="894.0" r="1.18" fill="#dfe8ff" opacity="0.81"/>
  <circle cx="155.0" cy="713.9" r="1.57" fill="#dfe8ff" opacity="0.38"/>
  <circle cx="873.1" cy="1043.1" r="1.18" fill="#dfe8ff" opacity="0.39"/>
  <circle cx="504.2" cy="697.2" r="1.56" fill="#dfe8ff" opacity="0.62"/>
  <circle cx="1096.6" cy="228.7" r="1.94" fill="#dfe8ff" opacity="0.68"/>
  <circle cx="691.9" cy="80.0" r="0.91" fill="#dfe8ff" opacity="0.76"/>
  <circle cx="1265.1" cy="929.9" r="1.22" fill="#dfe8ff" opacity="0.69"/>
  <circle cx="1743.4" cy="501.1" r="1.22" fill="#dfe8ff" opacity="0.77"/>
  <circle cx="367.6" cy="234.8" r="1.12" fill="#dfe8ff" opacity="0.75"/>
  <circle cx="724.4" cy="981.1" r="2.01" fill="#dfe8ff" opacity="0.49"/>
  <circle cx="139.2" cy="500.4" r="1.59" fill="#dfe8ff" opacity="0.62"/>
  <circle cx="215.6" cy="1010.6" r="1.55" fill="#dfe8ff" opacity="0.62"/>
  <circle cx="1614.8" cy="802.4" r="1.80" fill="#dfe8ff" opacity="0.84"/>
  <circle cx="611.8" cy="248.3" r="1.36" fill="#dfe8ff" opacity="0.53"/>
  <circle cx="4.7" cy="627.1" r="0.88" fill="#dfe8ff" opacity="0.37"/>
  <circle cx="93.2" cy="1020.6" r="0.91" fill="#dfe8ff" opacity="0.43"/>
  <circle cx="495.0" cy="682.9" r="1.46" fill="#dfe8ff" opacity="0.67"/>
  <circle cx="358.8" cy="124.6" r="1.52" fill="#dfe8ff" opacity="0.69"/>
  <circle cx="1545.6" cy="836.2" r="1.30" fill="#dfe8ff" opacity="0.82"/>
  <circle cx="1480.9" cy="1044.8" r="1.32" fill="#dfe8ff" opacity="0.68"/>
  <circle cx="1249.4" cy="6.2" r="0.82" fill="#dfe8ff" opacity="0.55"/>
  <circle cx="179.2" cy="700.6" r="1.02" fill="#dfe8ff" opacity="0.73"/>
  <circle cx="1603.2" cy="510.6" r="2.19" fill="#dfe8ff" opacity="0.51"/>
  <circle cx="483.2" cy="750.2" r="1.54" fill="#dfe8ff" opacity="0.39"/>
  <circle cx="1911.6" cy="625.9" r="0.84" fill="#dfe8ff" opacity="0.84"/>
  <circle cx="95.2" cy="955.9" r="2.18" fill="#dfe8ff" opacity="0.65"/>
  <circle cx="844.4" cy="1006.5" r="1.15" fill="#dfe8ff" opacity="0.57"/>
  <circle cx="311.4" cy="187.0" r="1.72" fill="#dfe8ff" opacity="0.84"/>
  <circle cx="1849.0" cy="306.9" r="2.02" fill="#dfe8ff" opacity="0.60"/>
  <circle cx="366.8" cy="258.7" r="1.88" fill="#dfe8ff" opacity="0.59"/>
  <circle cx="991.3" cy="792.1" r="2.02" fill="#dfe8ff" opacity="0.81"/>
  <circle cx="1223.0" cy="47.6" r="0.93" fill="#dfe8ff" opacity="0.72"/>
  <circle cx="1159.1" cy="158.8" r="1.05" fill="#dfe8ff" opacity="0.81"/>
  <circle cx="1788.8" cy="788.2" r="1.91" fill="#dfe8ff" opacity="0.45"/>
  <circle cx="419.9" cy="506.4" r="1.04" fill="#dfe8ff" opacity="0.70"/>
  <circle cx="1743.9" cy="554.1" r="2.19" fill="#dfe8ff" opacity="0.47"/>
  <circle cx="624.5" cy="720.2" r="0.88" fill="#dfe8ff" opacity="0.58"/>
  <circle cx="558.3" cy="319.9" r="2.16" fill="#dfe8ff" opacity="0.40"/>
  <circle cx="1838.2" cy="920.9" r="2.18" fill="#dfe8ff" opacity="0.36"/>
  <circle cx="718.9" cy="1.6" r="1.74" fill="#dfe8ff" opacity="0.51"/>
  <circle cx="269.5" cy="978.8" r="0.80" fill="#dfe8ff" opacity="0.34"/>
  <circle cx="883.0" cy="417.1" r="1.56" fill="#dfe8ff" opacity="0.49"/>
  <circle cx="1697.1" cy="1072.9" r="1.01" fill="#dfe8ff" opacity="0.66"/>
  <circle cx="790.5" cy="329.1" r="1.25" fill="#dfe8ff" opacity="0.64"/>
  <circle cx="1065.3" cy="669.3" r="1.03" fill="#dfe8ff" opacity="0.58"/>
  <circle cx="7.8" cy="18.9" r="2.13" fill="#dfe8ff" opacity="0.70"/>
  <circle cx="353.5" cy="776.4" r="1.86" fill="#dfe8ff" opacity="0.47"/>
  <circle cx="47.5" cy="738.5" r="1.79" fill="#dfe8ff" opacity="0.31"/>
  <circle cx="307.8" cy="663.6" r="0.70" fill="#dfe8ff" opacity="0.55"/>
  <circle cx="1700.2" cy="459.1" r="0.87" fill="#dfe8ff" opacity="0.61"/>
  <circle cx="1608.0" cy="375.0" r="1.64" fill="#dfe8ff" opacity="0.61"/>
  <circle cx="912.3" cy="509.4" r="0.94" fill="#dfe8ff" opacity="0.77"/>
  <circle cx="1337.5" cy="175.7" r="1.28" fill="#dfe8ff" opacity="0.79"/>
  <circle cx="839.1" cy="670.1" r="1.69" fill="#dfe8ff" opacity="0.78"/>
  <circle cx="1810.0" cy="707.3" r="1.97" fill="#dfe8ff" opacity="0.69"/>
  <circle cx="1738.0" cy="403.7" r="1.71" fill="#dfe8ff" opacity="0.61"/>
  <circle cx="1868.5" cy="534.7" r="2.09" fill="#dfe8ff" opacity="0.45"/>
  <circle cx="710.9" cy="931.9" r="1.04" fill="#dfe8ff" opacity="0.84"/>
  <circle cx="1179.7" cy="951.8" r="1.99" fill="#dfe8ff" opacity="0.80"/>
  <circle cx="342.3" cy="959.8" r="2.03" fill="#dfe8ff" opacity="0.83"/>
  <circle cx="963.5" cy="583.2" r="2.12" fill="#dfe8ff" opacity="0.57"/>
  <circle cx="432.7" cy="418.4" r="1.70" fill="#dfe8ff" opacity="0.51"/>
  <circle cx="1494.4" cy="1065.9" r="1.01" fill="#dfe8ff" opacity="0.60"/>
  <circle cx="1057.7" cy="745.3" r="0.82" fill="#dfe8ff" opacity="0.84"/>
  <circle cx="1464.9" cy="404.1" r="1.13" fill="#dfe8ff" opacity="0.83"/>
  <circle cx="1806.2" cy="66.1" r="1.00" fill="#dfe8ff" opacity="0.75"/>
  <circle cx="1793.7" cy="799.6" r="1.58" fill="#dfe8ff" opacity="0.58"/>
  <circle cx="1889.8" cy="336.2" r="0.99" fill="#dfe8ff" opacity="0.80"/>
  <circle cx="1375.4" cy="699.7" r="1.57" fill="#dfe8ff" opacity="0.63"/>
  <circle cx="1414.1" cy="186.8" r="1.29" fill="#dfe8ff" opacity="0.46"/>
</svg>
