<svg xmlns="http://www.w3.org/2000/svg" viewBox="0 0 1920 1080" preserveAspectRatio="xMidYMid slice">
  <defs>
    <linearGradient id="g" x1="0" y1="0" x2="1" y2="1">
      <stop offset="0%" stop-color="#0d0414"/>
      <stop offset="50%" stop-color="#2a0f3a"/>
      <stop offset="100%" stop-color="#4a1f5e"/>
    </linearGradient>
  </defs>
  <rect width="1920" height="1080" fill="url(#g)"/>
  <circle cx="560.9" cy="335.0" r="0.74" fill="#dfe8ff" opacity="0.55"/>
  <circle cx="906.4" cy="522.7" r="0.94" fill="#dfe8ff" opacity="0.77"/>
  <circle cx="824.5" cy="558.3" r="1.31" fill="#dfe8ff" opacity="0.52"/>
  <circle cx="1676.9" cy="908.2" r="0.96" fill="#dfe8ff" opacity="0.56"/>
  <circle cx="1766.2" cy="511.4" r="0.92" fill="#dfe8ff" opacity="0.44"/>
  <circle cx="937.0" cy="22.5" r="2.18" fill="#dfe8ff" opacity="0.45"/>
  <circle cx="477.6" cy="374.1" r="0.74" fill="#dfe8ff" opacity="0.78"/>
  <circle cx="1377.6" cy="401.8" r="1.48" fill="#dfe8ff" opacity="0.51"/>
  <circle cx="309.8" cy="1028.8" r="1.55" fill="#dfe8ff" opacity="0.53"/>
  <circle cx="317.4" cy="1028.0" r="1.69" fill="#dfe8ff" opacity="0.43"/>
  <circle cx="184.0" cy="403.7" r="0.78" fill="#dfe8ff" opacity="0.82"/>
  <circle cx="1100.7" cy="743.9" r="1.33" fill="#dfe8ff" opacity="0.44"/>
  <circle cx="934.5" cy="86.4" r="1.09" fill="#dfe8ff" opacity="0.66"/>
  <circle cx="1563.5" cy="343.0" r="1.14" fill="#dfe8ff" opacity="0.50"/>
  <circle cx="1826.8" cy="625.5" r="1.42" fill="#dfe8ff" opacity="0.69"/>
  <circle cx="286.0" cy="1058.1" r="1.77" fill="#dfe8ff" opacity="0.63"/>
  <circle cx="1530.2" cy="42.4" r="1.86" fill="#dfe8ff" opacity="0.67"/>
  <circle cx="1872.1" cy="468.4" r="1.30" fill="#dfe8ff" opacity="0.84"/>
  <circle cx="1579.6" cy="854.4" r="2.14" fill="#dfe8ff" opacity="0.31"/>
  <circle cx="445.0" cy="147.2" r="1.14" fill="#dfe8ff" opacity="0.49"/>
  <circle cx="652.9" cy="281.6" r="2.02" fill="#dfe8ff" opacity="0.84"/>
  <circle cx="812.0" cy="112.0" r="1.08" fill="#dfe8ff" opacity="0.60"/>
  <circle cx="1844.3" cy="478.0" r="1.13" fill="#dfe8ff" opacity="0.30"/>
  <circle cx="1658.7" cy="98.0" r="1.15" fill="#dfe8ff" opacity="0.32"/>
  <circle cx="898.1" cy="288.1" r="1.70" fill="#dfe8ff" opacity="0.51"/>
  <circle cx="545.1" cy="688.7" r="1.74" fill="#dfe8ff" opacity="0.63"/>
  <circle cx="666.0" cy="22.0" r="0.76" fill="#dfe8ff" opacity="0.57"/>
  <circle cx="1488.2" cy="456.8" r="1.73" fill="#dfe8ff" opacity="0.66"/>
  <circle cx="1202.8" cy="455.3" r="1.21" fill="#dfe8ff" opacity="0.53"/>
  <circle cx="1250.5" cy="989.4" r="1.09" fill="#dfe8ff" opacity="0.73"/>
  <circle cx="69.6" cy="547.3" r="1.88" fill="#dfe8ff" opacity="0.64"/>
  <circle cx="725.0" cy="653.0" r="1.65" fill="#dfe8ff" opacity="0.59"/>
  <circle cx="1566.7" cy="733.8" r="1.13" fill="#dfe8ff" opacity="0.67"/>
  <circle cx="1051.7" cy="929.1" r="1.51" fill="#dfe8ff" opacity="0.31"/>
  <circle cx="1807.3" cy="150.2" r="0.83" fill="#dfe8ff" opacity="0.83"/>
  <circle cx="1341.5" cy="271.5" r="0.96" fill="#dfe8ff" opacity="0.73"/>
  <circle cx="715.6" cy="186.3" r="1.01" fill="#dfe8ff" opacity="0.70"/>
  <circle cx="1250.4" cy="924.7" r="1.45" fill="#dfe8ff" opacity="0.52"/>
  <circle cx="575.8" cy="181.2" r="0.88" fill="#dfe8ff" opacity="0.41"/>
  <circle cx="18.5" cy="66.6" r="1.12" fill="#dfe8ff" opacity="0.58"/>
  <circle cx="816.5" cy="872.0" r="2.04" fill="#dfe8ff" opacity="0.42"/>
  <circle cx="558.4" cy="1031.4" r="0.86" fill="#dfe8ff" opacity="0.33"/>
  <circle cx="163.5" cy="763.0" r="1.93" fill="#dfe8ff" opacity="0.32"/>
  <circle cx="1479.4" cy="98.0" r="1.45" fill="#dfe8ff" opacity="0.48"/>
  <circle cx="1471.2" cy="1070.2" r="1.69" fill="#dfe8ff" opacity="0.74"/>
  <circle cx="821.2" cy="282.4" r="1.80" fill="#dfe8ff" opacity="0.39"/>
  <circle cx="468.4" cy="579.9" r="1.26" fill="#dfe8ff" opacity="0.42"/>
  <circle cx="1041.7" cy="21.7" r="2.11" fill="#dfe8ff" opacity="0.33"/>
  <circle cx="554.0" cy="811.5" r="0.81" fill="#dfe8ff" opacity="0.34"/>
  <circle cx="1324.9" cy="577.1" r="2.11" fill="#dfe8ff" opacity="0.37"/>
  <circle cx="496.2" cy="904.9" r="1.11" fill="#dfe8ff" opacity="0.51"/>
  <circle cx="523.2" cy="582.3" r="1.05" fill="#dfe8ff" opacity="0.72"/>
  <circle cx="1560.0" cy="272.6" r="1.53" fill="#dfe8ff" opacity="0.66"/>
  <circle cx="517.9" cy="740.8" r="1.71" fill="#dfe8ff" opacity="0.53"/>
  <circle cx="743.5" cy="986.0" r="1.16" fill="#dfe8ff" opacity="0.67"/>
  <circle cx="1469.9" cy="549.8" r="1.95" fill="#dfe8ff" opacity="0.49"/>
  <circle cx="1544.4" cy="1011.4" r="0.70" fill="#dfe8ff" opacity="0.84"/>
  <circle cx="1343.5" cy="493.3" r="0.95" fill="#dfe8ff" opacity="0.67"/>
  <circle cx="807.7" cy="676.1" r="1.27" fill="#dfe8ff" opacity="0.48"/>
  <circle cx="78.5" cy="846.1" r="1.09" fill="#dfe8ff" opacity="0.71"/>
  <circle cx="379.0" cy="497.4" r="1.98" fill="#dfe8ff" opacity="0.53"/>
  <circle cx="1854.5" cy="312.8" r="1.53" fill="#dfe8ff" opacity="0.48"/>
  <circle cx="67.1" cy="515.3" r="1.93" fill="#dfe8ff" opacity="0.37"/>
  <circle cx="1151.4" cy="861.7" r="1.12" fill="#dfe8ff" opacity="0.42"/>
  <circle cx="407.4" cy="601.5" r="1.71" fill="#dfe8ff" opacity="0.68"/>
  <circle cx="394.2" cy="342.4" r="1.34" fill="#dfe8ff" opacity="0.34"/>
  <circle cx="407.6" cy="880.3" r="2.02" fill="#dfe8ff" opacity="0.66"/>
  <circle cx="585.1" cy="93.0" r="2.08" fill="#dfe8ff" opacity="0.57"/>
  <circle cx="1628.2" cy="462.4" r="0.98" fill="#dfe8ff" opacity="0.33"/>
  <circle cx="658.4" cy="164.5" r="1.99" fill="#dfe8ff" opacity="0.77"/>
  <circle cx="456.2" cy="338.8" r="1.47" fill="#dfe8ff" opacity="0.84"/>
  <circle cx="1526.4" cy="1035.2" r="0.83" fill="#dfe8ff" opacity="0.46"/>
  <circle cx="1198.8" cy="269.0" r="1.00" fill="#dfe8ff" opacity="0.82"/>
  <circle cx="496.6" cy="1039.8" r="1.57" fill="#dfe8ff" opacity="0.58"/>
  <circle cx="1698.2" cy="6.8" r="1.83" fill="#dfe8ff" opacity="0.39"/>
  <circle cx="1098.9" cy="4.3" r="1.77" fill="#dfe8ff" opacity="0.33"/>
  <circle cx="1760.9" cy="968.0" r="2.10" fill="#dfe8ff" opacity="0.35"/>
  <circle cx="1658.9" cy="511.3" r="1.62" fill="#dfe8ff" opacity="0.76"/>
  <circle cx="697.1" cy="454.0" r="1.18" fill="#dfe8ff" opacity="0.84"/>
  <circle cx="300.3" cy="671.1" r="1.53" fill="#dfe8ff" opacity="0.49"/>
</svg>
