<svg xmlns="http://www.w3.org/2000/svg" viewBox="0 0 1920 1080" preserveAspectRatio="xMidYMid slice">
  <defs>
    <linearGradient id="g" x1="0" y1="0" x2="1" y2="1">
      <stop offset="0%" stop-color="#0a0c10"/>
      <stop offset="50%" stop-color="#1a1f26"/>
      <stop offset="100%" stop-color="#2e3640"/>
    </linearGradient>
  </defs>
  <rect width="1920" height="1080" fill="url(#g)"/>
  <circle cx="599.5" cy="638.3" r="0.85" fill="#dfe8ff" opacity="0.30"/>
  <circle cx="739.1" cy="92.9" r="0.97" fill="#dfe8ff" opacity="0.62"/>
  <circle cx="1559.8" cy="209.9" r="1.35" fill="#dfe8ff" opacity="0.31"/>
  <circle cx="499.4" cy="519.9" r="2.17" fill="#dfe8ff" opacity="0.50"/>
  <circle cx="689.4" cy="639.7" r="1.24" fill="#dfe8ff" opacity="0.68"/>
  <circle cx="171.8" cy="87.7" r="1.62" fill="#dfe8ff" opacity="0.32"/>
  <circle cx="1825.0" cy="1047.1" r="1.87" fill="#dfe8ff" opacity="0.61"/>
  <circle cx="583.4" cy="249.3" r="1.13" fill="#dfe8ff" opacity="0.32"/>
  <circle cx="659.6" cy="892.1" r="1.11" fill="#dfe8ff" opacity="0.55"/>
  <circle cx="1919.8" cy="311.5" r="1.08" fill="#dfe8ff" opacity="0.61"/>
  <circle cx="210.4" cy="1000.8" r="1.44" fill="#dfe8ff" opacity="0.71"/>
  <circle cx="147.9" cy="872.9" r="0.86" fill="#dfe8ff" opacity="0.51"/>
  <circle cx="485.3" cy="351.5" r="1.38" fill="#dfe8ff" opacity="0.47"/>
  <circle cx="104.4" cy="358.4" r="1.53" fill="#dfe8ff" opacity="0.63"/>
  <circle cx="761.2" cy="858.8" r="1.21" fill="#dfe8ff" opacity="0.83"/>
  <circle cx="1509.5" cy="1070.5" r="0.75" fill="#dfe8ff" opacity="0.83"/>
  <circle cx="1356.2" cy="928.6" r="1.98" fill="#dfe8ff" opacity="0.34"/>
  <circle cx="870.9" cy="754.0" r="2.05" fill="#dfe8ff" opacity="0.56"/>
  <circle cx="736.8" cy="100.6" r="0.71" fill="#dfe8ff" opacity="0.65"/>
  <circle cx="1206.7" cy="42.6" r="2.08" fill="#dfe8ff" opacity="0.43"/>
  <circle cx="1228.2" cy="841.3" r="0.90" fill="#dfe8ff" opacity="0.48"/>
  <circle cx="824.4" cy="766.9" r="1.25" fill="#dfe8ff" opacity="0.44"/>
  <circle cx="1808.4" cy="695.5" r="0.91" fill="#dfe8ff" opacity="0.79"/>
  <circle cx="527.4" cy="619.0" r="1.47" fill="#dfe8ff" opacity="0.66"/>
  <circle cx="1875.1" cy="60.2" r="1.45" fill="#dfe8ff" opacity="0.52"/>
  <circle cx="1393.3" cy="1078.8" r="2.12" fill="#dfe8ff" opacity="0.76"/>
  <circle cx="1451.1" cy="573.6" r="0.77" fill="#dfe8ff" opacity="0.37"/>
  <circle cx="1562.1" cy="77.1" r="1.45" fill="#dfe8ff" opacity="0.44"/>
  <circle cx="300.6" cy="991.3" r="1.91" fill="#dfe8ff" opacity="0.44"/>
  <circle cx="1411.6" cy="915.2" r="1.21" fill="#dfe8ff" opacity="0.48"/>
  <circle cx="499.9" cy="771.5" r="1.44" fill="#dfe8ff" opacity="0.56"/>
  <circle cx="237.6" cy="242.1" r="1.43" fill="#dfe8ff" opacity="0.37"/>
  <circle cx="463.5" cy="8.8" r="1.25" fill="#dfe8ff" opacity="0.59"/>
  <circle cx="1697.6" cy="20.7" r="1.72" fill="#dfe8ff" opacity="0.39"/>
  <circle cx="403.1" cy="796.2" r="1.21" fill="#dfe8ff" opacity="0.69"/>
  <circle cx="301.8" cy="45.0" r="1.89" fill="#dfe8ff" opacity="0.63"/>
  <circle cx="1028.0" cy="200.9" r="0.76" fill="#dfe8ff" opacity="0.52"/>
  <circle cx="718.7" cy="341.8" r="0.93" fill="#dfe8ff" opacity="0.49"/>
  <circle cx="1317.7" cy="85.6" r="1.27" fill="#dfe8ff" opacity="0.43"/>
  <circle cx="257.2" cy="722.6" r="1.87" fill="#dfe8ff" opacity="0.60"/>
  <circle cx="1421.0" cy="2.8" r="1.60" fill="#dfe8ff" opacity="0.55"/>
  <circle cx="753.0" cy="1011.3" r="2.17" fill="#dfe8ff" opacity="0.73"/>
  <circle cx="1173.1" cy="64.3" r="2.07" fill="#dfe8ff" opacity="0.71"/>
  <circle cx="850.2" cy="152.9" r="1.89" fill="#dfe8ff" opacity="0.80"/>
  <circle cx="601.1" cy="12.4" r="1.15" fill="#dfe8ff" opacity="0.68"/>
  <circle cx="791.8" cy="424.1" r="1.61" fill="#dfe8ff" opacity="0.52"/>
  <circle cx="1476.3" cy="1023.7" r="1.31" fill="#dfe8ff" opacity="0.72"/>
  <circle cx="1282.9" cy="279.0" r="0.75" fill="#dfe8ff" opacity="0.39"/>
  <circle cx="1809.1" cy="966.8" r="2.18" fill="#dfe8ff" opacity="0.78"/>
  <circle cx="1889.3" cy="72.9" r="0.98" fill="#dfe8ff" opacity="0.77"/>
  <circle cx="1564.2" cy="1033.2" r="1.96" fill="#dfe8ff" opacity="0.36"/>
  <circle cx="484.8" cy="364.7" r="1.63" fill="#dfe8ff" opacity="0.56"/>
  <circle cx="1858.6" cy="67.0" r="0.91" fill="#dfe8ff" opacity="0.46"/>
  <circle cx="889.8" cy="569.3" r="2.07" fill="#dfe8ff" opacity="0.50"/>
  <circle cx="39.7" cy="895.6" r="0.84" fill="#dfe8ff" opacity="0.50"/>
  <circle cx="1131.6" cy="548.1" r="1.37" fill="#dfe8ff" opacity="0.53"/>
  <circle cx="632.7" cy="651.0" r="1.98" fill="#dfe8ff" opacity="0.48"/>
  <circle cx="492.7" cy="630.1" r="2.08" fill="#dfe8ff" opacity="0.34"/>
  <circle cx="1543.8" cy="23.4" r="0.81" fill="#dfe8ff" opacity="0.48"/>
  <circle cx="1452.5" cy="736.6" r="1.81" fill="#dfe8ff" opacity="0.45"/>
  <circle cx="1018.4" cy="203.0" r="0.73" fill="#dfe8ff" opacity="0.36"/>
  <circle cx="1055.3" cy="594.1" r="2.00" fill="#dfe8ff" opacity="0.78"/>
  <circle cx="1014.4" cy="542.4" r="1.20" fill="#dfe8ff" opacity="0.85"/>
  <circle cx="534.2" cy="759.3" r="1.13" fill="#dfe8ff" opacity="0.80"/>
  <circle cx="1553.5" cy="752.5" r="2.05" fill="#dfe8ff" opacity="0.85"/>
  <circle cx="932.6" cy="659.9" r="1.68" fill="#dfe8ff" opacity="0.84"/>
  <circle cx="25.2" cy="194.6" r="1.70" fill="#dfe8ff" opacity="0.57"/>
  <circle cx="1679.5" cy="592.9" r="1.02" fill="#dfe8ff" opacity="0.38"/>
  <circle cx="839.7" cy="424.3" r="1.70" fill="#dfe8ff" opacity="0.48"/>
  <circle cx="1494.4" cy="484.3" r="2.15" fill="#dfe8ff" opacity="0.77"/>
  <circle cx="1377.0" cy="450.9" r="2.16" fill="#dfe8ff" opacity="0.48"/>
  <circle cx="656.6" cy="1002.6" r="1.93" fill="#dfe8ff" opacity="0.70"/>
  <circle cx="396.1" cy="305.3" r="0.93" fill="#dfe8ff" opacity="0.54"/>
  <circle cx="11.9" cy="600.0" r="0.90" fill="#dfe8ff" opacity="0.34"/>
  <circle cx="757.5" cy="1021.8" r="1.68" fill="#dfe8ff" opacity="0.73"/>
  <circle cx="1100.6" cy="842.2" r="0.86" fill="#dfe8ff" opacity="0.48"/>
  <circle cx="953.4" cy="743.4" r="1.98" fill="#dfe8ff" opacity="0.79"/>
  <circle cx="718.5" cy="342.4" r="1.61" fill="#dfe8ff" opacity="0.69"/>
  <circle cx="150.0" cy="809.7" r="0.94" fill="#dfe8ff" opacity="0.31"/>
  <circle cx="692.7" cy="804.7" r="1.20" fill="#dfe8ff" opacity="0.45"/>
</svg>
