<svg xmlns="http://www.w3.org/2000/svg" viewBox="0 0 1920 1080" preserveAspectRatio="xMidYMid slice">
  <defs>
    <linearGradient id="g" x1="0" y1="0" x2="1" y2="1">
      <stop offset="0%" stop-color="#040810"/>
      <stop offset="50%" stop-color="#0e1a2e"/>
      <stop offset="100%" stop-color="#1c3050"/>
    </linearGradient>
  </defs>
  <rect width="1920" height="1080" fill="url(#g)"/>
  <circle cx="1732.6" cy="291.9" r="1.83" fill="#dfe8ff" opacity="0.37"/>
  <circle cx="1048.9" cy="298.6" r="0.97" fill="#dfe8ff" opacity="0.76"/>
  <circle cx="388.5" cy="856.9" r="0.99" fill="#dfe8ff" opacity="0.42"/>
  <circle cx="778.3" cy="669.6" r="0.87" fill="#dfe8ff" opacity="0.64"/>
  <circle cx="311.1" cy="98.8" r="1.07" fill="#dfe8ff" opacity="0.51"/>
  <circle cx="826.1" cy="403.2" r="1.74" fill="#dfe8ff" opacity="0.45"/>
  <circle cx="1212.1" cy="136.2" r="0.97" fill="#dfe8ff" opacity="0.48"/>
  <circle cx="1423.1" cy="8.7" r="1.75" fill="#dfe8ff" opacity="0.71"/>
  <circle cx="506.0" cy="724.8" r="0.73" fill="#dfe8ff" opacity="0.78"/>
  <circle cx="1289.0" cy="973.2" r="0.92" fill="#dfe8ff" opacity="0.55"/>
  <circle cx="622.6" cy="1003.6" r="2.08" fill="#dfe8ff" opacity="0.44"/>
  <circle cx="1205.6" cy="435.0" r="1.99" fill="#dfe8ff" opacity="0.74"/>
  <circle cx="1235.8" cy="48.7" r="1.50" fill="#dfe8ff" opacity="0.49"/>
  <circle cx="1730.2" cy="201.9" r="1.22" fill="#dfe8ff" opacity="0.49"/>
  <circle cx="552.5" cy="847.4" r="0.99" fill="#dfe8ff" opacity="0.39"/>
  <circle cx="1277.4" cy="156.2" r="1.38" fill="#dfe8ff" opacity="0.33"/>
  <circle cx="1028.4" cy="296.9" r="1.47" fill="#dfe8ff" opacity="0.68"/>
  <circle cx="461.6" cy="352.7" r="1.41" fill="#dfe8ff" opacity="0.64"/>
  <circle cx="1873.7" cy="796.0" r="0.84" fill="#dfe8ff" opacity="0.46"/>
  <circle cx="200.1" cy="159.4" r="1.45" fill="#dfe8ff" opacity="0.54"/>
  <circle cx="816.3" cy="465.2" r="1.36" fill="#dfe8ff" opacity="0.35"/>
  <circle cx="540.3" cy="747.6" r="0.92" fill="#dfe8ff" opacity="0.77"/>
  <circle cx="1317.7" cy="913.7" r="1.59" fill="#dfe8ff" opacity="0.79"/>
  <circle cx="746.0" cy="926.3" r="0.92" fill="#dfe8ff" opacity="0.55"/>
  <circle cx="1167.8" cy="184.5" r="1.86" fill="#dfe8ff" opacity="0.82"/>
  <circle cx="610.4" cy="686.9" r="2.18" fill="#dfe8ff" opacity="0.54"/>
  <circle cx="1662.3" cy="191.2" r="0.97" fill="#dfe8ff" opacity="0.72"/>
  <circle cx="831.1" cy="603.9" r="2.03" fill="#dfe8ff" opacity="0.59"/>
  <circle cx="289.8" cy="392.3" r="0.93" fill="#dfe8ff" opacity="0.43"/>
  <circle cx="1826.5" cy="782.9" r="1.46" fill="#dfe8ff" opacity="0.70"/>
  <circle cx="1304.8" cy="478.5" r="1.41" fill="#dfe8ff" opacity="0.41"/>
  <circle cx="1846.7" cy="47.9" r="1.10" fill="#dfe8ff" opacity="0.48"/>
  <circle cx="1078.9" cy="621.2" r="2.00" fill="#dfe8ff" opacity="0.40"/>
  <circle cx="655.1" cy="602.3" r="1.25" fill="#dfe8ff" opacity="0.39"/>
  <circle cx="1742.6" cy="116.6" r="1.36" fill="#dfe8ff" opacity="0.66"/>
  <circle cx="1553.5" cy="710.4" r="2.06" fill="#dfe8ff" opacity="0.56"/>
  <circle cx="961.5" cy="404.5" r="1.48" fill="#dfe8ff" opacity="0.42"/>
  <circle cx="1543.8" cy="828.3" r="1.92" fill="#dfe8ff" opacity="0.34"/>
  <circle cx="1101.1" cy="945.4" r="1.55" fill="#dfe8ff" opacity="0.69"/>
  <circle cx="1004.1" cy="219.7" r="1.03" fill="#dfe8ff" opacity="0.82"/>
  <circle cx="871.9" cy="974.9" r="2.12" fill="#dfe8ff" opacity="0.71"/>
  <circle cx="712.1" cy="569.5" r="1.86" fill="#dfe8ff" opacity="0.52"/>
  <circle cx="132.3" cy="948.1" r="1.71" fill="#dfe8ff" opacity="0.56"/>
  <circle cx="360.8" cy="766.3" r="0.97" fill="#dfe8ff" opacity="0.39"/>
  <circle cx="1778.9" cy="87.7" r="0.74" fill="#dfe8ff" opacity="0.75"/>
  <circle cx="656.6" cy="212.3" r="2.12" fill="#dfe8ff" opacity="0.78"/>
  <circle cx="1836.0" cy="21.4" r="1.17" fill="#dfe8ff" opacity="0.44"/>
  <circle cx="1519.2" cy="968.6" r="1.48" fill="#dfe8ff" opacity="0.73"/>
  <circle cx="723.8" cy="178.0" r="1.53" fill="#dfe8ff" opacity="0.40"/>
  <circle cx="1031.2" cy="89.2" r="1.94" fill="#dfe8ff" opacity="0.48"/>
  <circle cx="1647.6" cy="605.7" r="1.56" fill="#dfe8ff" opacity="0.68"/>
  <circle cx="1615.0" cy="209.9" r="1.47" fill="#dfe8ff" opacity="0.33"/>
  <circle cx="1017.7" cy="135.7" r="1.50" fill="#dfe8ff" opacity="0.64"/>
  <circle cx="1835.6" cy="106.0" r="0.97" fill="#dfe8ff" opacity="0.81"/>
  <circle cx="249.6" cy="406.1" r="0.76" fill="#dfe8ff" opacity="0.77"/>
  <circle cx="155.3" cy="191.4" r="1.12" fill="#dfe8ff" opacity="0.82"/>
  <circle cx="1526.6" cy="1068.6" r="1.94" fill="#dfe8ff" opacity="0.62"/>
  <circle cx="126.1" cy="240.4" r="1.65" fill="#dfe8ff" opacity="0.42"/>
  <circle cx="686.9" cy="847.6" r="1.25" fill="#dfe8ff" opacity="0.58"/>
  <circle cx="1684.7" cy="582.4" r="2.00" fill="#dfe8ff" opacity="0.44"/>
  <circle cx="909.3" cy="722.3" r="0.92" fill="#dfe8ff" opacity="0.59"/>
  <circle cx="1536.5" cy="358.2" r="0.79" fill="#dfe8ff" opacity="0.66"/>
  <circle cx="14.4" cy="218.3" r="1.84" fill="#dfe8ff" opacity="0.37"/>
  <circle cx="1214.6" cy="168.4" r="0.73" fill="#dfe8ff" opacity="0.78"/>
  <circle cx="1889.3" cy="817.7" r="1.53" fill="#dfe8ff" opacity="0.46"/>
  <circle cx="346.7" cy="601.1" r="1.77" fill="#dfe8ff" opacity="0.50"/>
  <circle cx="1457.3" cy="666.9" r="0.93" fill="#dfe8ff" opacity="0.64"/>
  <circle cx="1639.7" cy="273.3" r="1.57" fill="#dfe8ff" opacity="0.63"/>
  <circle cx="113.2" cy="355.9" r="1.82" fill="#dfe8ff" opacity="0.31"/>
  <circle cx="1443.8" cy="653.2" r="0.74" fill="#dfe8ff" opacity="0.36"/>
  <circle cx="726.7" cy="1002.2" r="1.59" fill="#dfe8ff" opacity="0.81"/>
  <circle cx="1618.5" cy="876.9" r="1.12" fill="#dfe8ff" opacity="0.31"/>
  <circle cx="527.5" cy="1013.6" r="1.88" fill="#dfe8ff" opacity="0.50"/>
  <circle cx="289.0" cy="109.1" r="1.09" fill="#dfe8ff" opacity="0.65"/>
  <circle cx="288.9" cy="269.1" r="1.25" fill="#dfe8ff" opacity="0.77"/>
  <circle cx="1003.4" cy="326.0" r="1.77" fill="#dfe8ff" opacity="0.60"/>
  <circle cx="1262.9" cy="711.6" r="1.21" fill="#dfe8ff" opacity="0.58"/>
  <circle cx="1390.1" cy="895.5" r="1.23" fill="#dfe8ff" opacity="0.50"/>
  <circle cx="1591.7" cy="989.5" r="1.16" fill="#dfe8ff" opacity="0.78"/>
  <circle cx="224.9" cy="17.4" r="1.67" fill="#dfe8ff" opacity="0.31"/>
</svg>
