<svg xmlns="http://www.w3.org/2000/svg" viewBox="0 0 1920 1080" preserveAspectRatio="xMidYMid slice">
  <defs>
    <linearGradient id="g" x1="0" y1="0" x2="1" y2="1">
      <stop offset="0%" stop-color="#050506"/>
      <stop offset="50%" stop-color="#121316"/>
      <stop offset="100%" stop-color="#1f2228"/>
    </linearGradient>
  </defs>
  <rect width="1920" height="1080" fill="url(#g)"/>
  <circle cx="939.1" cy="771.5" r="1.68" fill="#dfe8ff" opacity="0.67"/>
  <circle cx="1504.6" cy="970.9" r="1.11" fill="#dfe8ff" opacity="0.52"/>
  <circle cx="673.1" cy="360.1" r="2.11" fill="#dfe8ff" opacity="0.63"/>
  <circle cx="586.3" cy="697.5" r="1.66" fill="#dfe8ff" opacity="0.78"/>
  <circle cx="1356.3" cy="432.9" r="0.96" fill="#dfe8ff" opacity="0.74"/>
  <circle cx="1111.1" cy="134.4" r="2.02" fill="#dfe8ff" opacity="0.40"/>
  <circle cx="1268.3" cy="24.4" r="1.31" fill="#dfe8ff" opacity="0.73"/>
  <circle cx="317.4" cy="722.1" r="1.32" fill="#dfe8ff" opacity="0.54"/>
  <circle cx="1843.9" cy="579.2" r="1.41" fill="#dfe8ff" opacity="0.80"/>
  <circle cx="1011.1" cy="467.4" r="1.65" fill="#dfe8ff" opacity="0.48"/>
  <circle cx="644.9" cy="701.6" r="1.76" fill="#dfe8ff" opacity="0.81"/>
  <circle cx="1117.7" cy="191.1" r="1.54" fill="#dfe8ff" opacity="0.61"/>
  <circle cx="1580.5" cy="211.0" r="1.58" fill="#dfe8ff" opacity="0.45"/>
  <circle cx="803.5" cy="755.7" r="1.86" fill="#dfe8ff" opacity="0.52"/>
  <circle cx="95.6" cy="913.0" r="0.97" fill="#dfe8ff" opacity="0.41"/>
  <circle cx="488.0" cy="1045.5" r="1.05" fill="#dfe8ff" opacity="0.46"/>
  <circle cx="1361.5" cy="423.3" r="1.07" fill="#dfe8ff" opacity="0.64"/>
  <circle cx="1519.8" cy="426.1" r="1.41" fill="#dfe8ff" opacity="0.72"/>
  <circle cx="1490.8" cy="739.7" r="2.14" fill="#dfe8ff" opacity="0.55"/>
  <circle cx="978.0" cy="113.6" r="1.90" fill="#dfe8ff" opacity="0.81"/>
  <circle cx="1617.7" cy="388.2" r="2.20" fill="#dfe8ff" opacity="0.82"/>
  <circle cx="126.2" cy="414.2" r="1.91" fill="#dfe8ff" opacity="0.83"/>
  <circle cx="313.1" cy="107.3" r="0.83" fill="#dfe8ff" opacity="0.69"/>
  <circle cx="783.7" cy="998.4" r="1.19" fill="#dfe8ff" opacity="0.32"/>
  <circle cx="1597.1" cy="763.9" r="1.30" fill="#dfe8ff" opacity="0.70"/>
  <circle cx="833.3" cy="812.1" r="1.59" fill="#dfe8ff" opacity="0.47"/>
  <circle cx="241.6" cy="753.5" r="2.06" fill="#dfe8ff" opacity="0.81"/>
  <circle cx="628.2" cy="170.4" r="1.36" fill="#dfe8ff" opacity="0.64"/>
  <circle cx="1095.0" cy="561.6" r="0.87" fill="#dfe8ff" opacity="0.67"/>
  <circle cx="302.5" cy="7.1" r="1.73" fill="#dfe8ff" opacity="0.78"/>
  <circle cx="1470.9" cy="598.0" r="0.94" fill="#dfe8ff" opacity="0.78"/>
  <circle cx="1665.1" cy="848.1" r="1.38" fill="#dfe8ff" opacity="0.50"/>
  <circle cx="888.2" cy="27.2" r="0.87" fill="#dfe8ff" opacity="0.31"/>
  <circle cx="977.0" cy="73.7" r="1.80" fill="#dfe8ff" opacity="0.48"/>
  <circle cx="1054.2" cy="114.1" r="1.40" fill="#dfe8ff" opacity="0.43"/>
  <circle cx="1237.6" cy="210.9" r="1.83" fill="#dfe8ff" opacity="0.70"/>
  <circle cx="604.5" cy="968.5" r="1.64" fill="#dfe8ff" opacity="0.62"/>
  <circle cx="622.0" cy="717.3" r="1.77" fill="#dfe8ff" opacity="0.60"/>
  <circle cx="494.1" cy="1028.3" r="1.70" fill="#dfe8ff" opacity="0.44"/>
  <circle cx="584.3" cy="191.9" r="1.62" fill="#dfe8ff" opacity="0.84"/>
  <circle cx="688.4" cy="313.0" r="1.95" fill="#dfe8ff" opacity="0.66"/>
  <circle cx="229.5" cy="140.6" r="1.61" fill="#dfe8ff" opacity="0.45"/>
  <circle cx="1436.5" cy="820.1" r="1.44" fill="#dfe8ff" opacity="0.48"/>
  <circle cx="224.0" cy="234.0" r="2.05" fill="#dfe8ff" opacity="0.40"/>
  <circle cx="218.3" cy="339.9" r="1.75" fill="#dfe8ff" opacity="0.74"/>
  <circle cx="872.3" cy="414.0" r="1.84" fill="#dfe8ff" opacity="0.59"/>
  <circle cx="1529.8" cy="851.3" r="1.22" fill="#dfe8ff" opacity="0.56"/>
  <circle cx="1608.3" cy="764.7" r="1.13" fill="#dfe8ff" opacity="0.75"/>
  <circle cx="1263.6" cy="47.1" r="2.19" fill="#dfe8ff" opacity="0.49"/>
  <circle cx="1452.6" cy="739.4" r="2.12" fill="#dfe8ff" opacity="0.68"/>
  <circle cx="243.8" cy="994.5" r="1.15" fill="#dfe8ff" opacity="0.44"/>
  <circle cx="1071.7" cy="670.1" r="0.88" fill="#dfe8ff" opacity="0.37"/>
  <circle cx="396.9" cy="141.9" r="1.90" fill="#dfe8ff" opacity="0.76"/>
  <circle cx="245.7" cy="365.9" r="1.01" fill="#dfe8ff" opacity="0.51"/>
  <circle cx="1143.9" cy="637.1" r="0.75" fill="#dfe8ff" opacity="0.44"/>
  <circle cx="342.9" cy="815.8" r="1.82" fill="#dfe8ff" opacity="0.78"/>
  <circle cx="136.5" cy="540.5" r="0.90" fill="#dfe8ff" opacity="0.80"/>
  <circle cx="1073.0" cy="506.1" r="1.26" fill="#dfe8ff" opacity="0.60"/>
  <circle cx="859.7" cy="856.2" r="1.12" fill="#dfe8ff" opacity="0.41"/>
  <circle cx="208.4" cy="432.9" r="1.87" fill="#dfe8ff" opacity="0.30"/>
  <circle cx="234.9" cy="776.5" r="1.51" fill="#dfe8ff" opacity="0.53"/>
  <circle cx="1846.4" cy="402.9" r="0.74" fill="#dfe8ff" opacity="0.55"/>
  <circle cx="1262.5" cy="400.7" r="1.09" fill="#dfe8ff" opacity="0.74"/>
  <circle cx="352.4" cy="323.6" r="0.74" fill="#dfe8ff" opacity="0.73"/>
  <circle cx="693.1" cy="554.3" r="1.31" fill="#dfe8ff" opacity="0.68"/>
  <circle cx="1855.1" cy="650.7" r="1.69" fill="#dfe8ff" opacity="0.75"/>
  <circle cx="1006.1" cy="987.4" r="1.16" fill="#dfe8ff" opacity="0.84"/>
  <circle cx="383.9" cy="687.1" r="1.11" fill="#dfe8ff" opacity="0.52"/>
  <circle cx="1553.5" cy="116.1" r="1.52" fill="#dfe8ff" opacity="0.64"/>
  <circle cx="489.7" cy="960.2" r="1.55" fill="#dfe8ff" opacity="0.79"/>
  <circle cx="1659.7" cy="198.0" r="1.71" fill="#dfe8ff" opacity="0.42"/>
  <circle cx="468.2" cy="227.9" r="1.08" fill="#dfe8ff" opacity="0.64"/>
  <circle cx="1896.0" cy="1005.2" r="2.11" fill="#dfe8ff" opacity="0.83"/>
  <circle cx="687.8" cy="264.0" r="1.94" fill="#dfe8ff" opacity="0.71"/>
  <circle cx="1616.0" cy="809.9" r="0.93" fill="#dfe8ff" opacity="0.62"/>
  <circle cx="799.6" cy="593.2" r="1.15" fill="#dfe8ff" opacity="0.50"/>
  <circle cx="1291.6" cy="74.2" r="0.93" fill="#dfe8ff" opacity="0.57"/>
  <circle cx="1761.2" cy="487.3" r="0.72" fill="#dfe8ff" opacity="0.59"/>
  <circle cx="1359.8" cy="424.2" r="2.20" fill="#dfe8ff" opacity="0.74"/>
  <circle cx="1168.2" cy="321.0" r="1.10" fill="#dfe8ff" opacity="0.65"/>
</svg>
