<svg xmlns="http://www.w3.org/2000/svg" viewBox="0 0 1920 1080" preserveAspectRatio="xMidYMid slice">
  <defs>
    <linearGradient id="g" x1="0" y1="0" x2="1" y2="1">
      <stop offset="0%" stop-color="#0a0518"/>
      <stop offset="50%" stop-color="#241046"/>
      <stop offset="100%" stop-color="#3a1f6e"/>
    </linearGradient>
  </defs>
  <rect width="1920" height="1080" fill="url(#g)"/>
  <circle cx="598.7" cy="693.9" r="1.98" fill="#dfe8ff" opacity="0.33"/>
  <circle cx="859.9" cy="616.1" r="1.07" fill="#dfe8ff" opacity="0.49"/>
  <circle cx="1240.7" cy="961.8" r="0.96" fill="#dfe8ff" opacity="0.55"/>
  <circle cx="83.9" cy="411.8" r="1.37" fill="#dfe8ff" opacity="0.84"/>
  <circle cx="1350.0" cy="581.9" r="1.74" fill="#dfe8ff" opacity="0.39"/>
  <circle cx="1638.9" cy="922.7" r="0.99" fill="#dfe8ff" opacity="0.80"/>
  <circle cx="877.4" cy="7.2" r="1.20" fill="#dfe8ff" opacity="0.33"/>
  <circle cx="633.7" cy="840.1" r="0.72" fill="#dfe8ff" opacity="0.34"/>
  <circle cx="1620.0" cy="515.3" r="1.39" fill="#dfe8ff" opacity="0.42"/>
  <circle cx="1263.5" cy="121.9" r="1.32" fill="#dfe8ff" opacity="0.70"/>
  <circle cx="491.3" cy="176.7" r="1.73" fill="#dfe8ff" opacity="0.56"/>
  <circle cx="1423.1" cy="675.2" r="0.73" fill="#dfe8ff" opacity="0.71"/>
  <circle cx="768.3" cy="971.7" r="1.90" fill="#dfe8ff" opacity="0.44"/>
  <circle cx="1476.4" cy="122.3" r="1.33" fill="#dfe8ff" opacity="0.36"/>
  <circle cx="1212.3" cy="480.4" r="0.80" fill="#dfe8ff" opacity="0.68"/>
  <circle cx="1394.1" cy="617.5" r="0.90" fill="#dfe8ff" opacity="0.33"/>
  <circle cx="1323.4" cy="340.3" r="1.98" fill="#dfe8ff" opacity="0.39"/>
  <circle cx="1757.6" cy="73.4" r="1.66" fill="#dfe8ff" opacity="0.84"/>
  <circle cx="1558.4" cy="108.2" r="1.04" fill="#dfe8ff" opacity="0.41"/>
  <circle cx="1757.3" cy="39.4" r="1.00" fill="#dfe8ff" opacity="0.71"/>
  <circle cx="1269.8" cy="536.6" r="1.98" fill="#dfe8ff" opacity="0.49"/>
  <circle cx="634.7" cy="1067.0" r="0.72" fill="#dfe8ff" opacity="0.82"/>
  <circle cx="197.4" cy="309.8" r="1.00" fill="#dfe8ff" opacity="0.82"/>
  <circle cx="475.9" cy="916.0" r="1.78" fill="#dfe8ff" opacity="0.73"/>
  <circle cx="890.3" cy="830.1" r="0.83" fill="#dfe8ff" opacity="0.39"/>
  <circle cx="1118.0" cy="382.7" r="0.86" fill="#dfe8ff" opacity="0.47"/>
  <circle cx="502.4" cy="572.9" r="2.11" fill="#dfe8ff" opacity="0.47"/>
  <circle cx="1467.4" cy="78.3" r="1.19" fill="#dfe8ff" opacity="0.64"/>
  <circle cx="450.0" cy="380.2" r="2.17" fill="#dfe8ff" opacity="0.80"/>
  <circle cx="843.4" cy="699.2" r="0.73" fill="#dfe8ff" opacity="0.47"/>
  <circle cx="49.5" cy="824.5" r="1.52" fill="#dfe8ff" opacity="0.38"/>
  <circle cx="1691.9" cy="335.6" r="0.95" fill="#dfe8ff" opacity="0.55"/>
  <circle cx="1569.5" cy="974.2" r="1.01" fill="#dfe8ff" opacity="0.63"/>
  <circle cx="1865.5" cy="249.9" r="1.58" fill="#dfe8ff" opacity="0.38"/>
  <circle cx="1280.2" cy="338.1" r="1.81" fill="#dfe8ff" opacity="0.66"/>
  <circle cx="1014.3" cy="292.0" r="1.25" fill="#dfe8ff" opacity="0.59"/>
  <circle cx="891.9" cy="866.6" r="1.78" fill="#dfe8ff" opacity="0.57"/>
  <circle cx="55.8" cy="679.0" r="2.02" fill="#dfe8ff" opacity="0.48"/>
  <circle cx="457.0" cy="251.7" r="1.40" fill="#dfe8ff" opacity="0.79"/>
  <circle cx="470.2" cy="1004.9" r="1.54" fill="#dfe8ff" opacity="0.39"/>
  <circle cx="134.6" cy="236.1" r="0.92" fill="#dfe8ff" opacity="0.30"/>
  <circle cx="309.7" cy="541.1" r="1.79" fill="#dfe8ff" opacity="0.59"/>
  <circle cx="519.0" cy="91.1" r="2.05" fill="#dfe8ff" opacity="0.60"/>
  <circle cx="206.2" cy="688.7" r="0.75" fill="#dfe8ff" opacity="0.81"/>
  <circle cx="1379.7" cy="573.2" r="1.47" fill="#dfe8ff" opacity="0.49"/>
  <circle cx="1097.6" cy="726.5" r="1.65" fill="#dfe8ff" opacity="0.77"/>
  <circle cx="1163.3" cy="743.4" r="1.96" fill="#dfe8ff" opacity="0.78"/>
  <circle cx="1425.4" cy="663.9" r="1.18" fill="#dfe8ff" opacity="0.31"/>
  <circle cx="1751.3" cy="942.0" r="1.25" fill="#dfe8ff" opacity="0.47"/>
  <circle cx="1186.0" cy="771.1" r="1.04" fill="#dfe8ff" opacity="0.50"/>
  <circle cx="1208.8" cy="911.9" r="1.35" fill="#dfe8ff" opacity="0.42"/>
  <circle cx="1544.0" cy="739.2" r="2.06" fill="#dfe8ff" opacity="0.45"/>
  <circle cx="1473.0" cy="986.6" r="1.39" fill="#dfe8ff" opacity="0.69"/>
  <circle cx="1742.1" cy="66.6" r="1.10" fill="#dfe8ff" opacity="0.73"/>
  <circle cx="1007.9" cy="0.4" r="2.03" fill="#dfe8ff" opacity="0.74"/>
  <circle cx="331.1" cy="481.6" r="2.14" fill="#dfe8ff" opacity="0.60"/>
  <circle cx="581.9" cy="730.0" r="2.09" fill="#dfe8ff" opacity="0.39"/>
  <circle cx="1755.7" cy="860.5" r="0.96" fill="#dfe8ff" opacity="0.67"/>
  <circle cx="1005.2" cy="940.2" r="0.91" fill="#dfe8ff" opacity="0.53"/>
  <circle cx="943.0" cy="0.2" r="2.09" fill="#dfe8ff" opacity="0.57"/>
  <circle cx="1213.4" cy="424.2" r="1.84" fill="#dfe8ff" opacity="0.35"/>
  <circle cx="1138.0" cy="80.1" r="2.04" fill="#dfe8ff" opacity="0.73"/>
  <circle cx="1265.8" cy="233.1" r="2.15" fill="#dfe8ff" opacity="0.44"/>
  <circle cx="859.5" cy="752.7" r="0.77" fill="#dfe8ff" opacity="0.36"/>
  <circle cx="95.5" cy="194.7" r="2.03" fill="#dfe8ff" opacity="0.47"/>
  <circle cx="1582.6" cy="117.5" r="1.16" fill="#dfe8ff" opacity="0.49"/>
  <circle cx="1119.4" cy="501.8" r="1.14" fill="#dfe8ff" opacity="0.85"/>
  <circle cx="145.0" cy="713.7" r="1.40" fill="#dfe8ff" opacity="0.46"/>
  <circle cx="1514.8" cy="151.8" r="1.39" fill="#dfe8ff" opacity="0.59"/>
  <circle cx="739.0" cy="870.6" r="1.06" fill="#dfe8ff" opacity="0.61"/>
  <circle cx="1580.4" cy="882.0" r="0.83" fill="#dfe8ff" opacity="0.55"/>
  <circle cx="657.0" cy="728.5" r="2.15" fill="#dfe8ff" opacity="0.38"/>
  <circle cx="806.2" cy="1005.3" r="1.64" fill="#dfe8ff" opacity="0.74"/>
  <circle cx="1448.3" cy="1022.1" r="0.75" fill="#dfe8ff" opacity="0.81"/>
  <circle cx="40.4" cy="568.7" r="1.83" fill="#dfe8ff" opacity="0.79"/>
  <circle cx="971.9" cy="693.4" r="1.89" fill="#dfe8ff" opacity="0.31"/>
  <circle cx="1321.9" cy="222.9" r="1.79" fill="#dfe8ff" opacity="0.46"/>
  <circle cx="1344.5" cy="791.3" r="1.17" fill="#dfe8ff" opacity="0.77"/>
  <circle cx="700.4" cy="866.3" r="1.72" fill="#dfe8ff" opacity="0.55"/>
  <circle cx="940.5" cy="834.6" r="1.45" fill="#dfe8ff" opacity="0.52"/>
</svg>
