<svg xmlns="http://www.w3.org/2000/svg" viewBox="0 0 1920 1080" preserveAspectRatio="xMidYMid slice">
  <defs>
    <linearGradient id="g" x1="0" y1="0" x2="1" y2="1">
      <stop offset="0%" stop-color="#100204"/>
      <stop offset="50%" stop-color="#2e0810"/>
      <stop offset="100%" stop-color="#4a1018"/>
    </linearGradient>
  </defs>
  <rect width="1920" height="1080" fill="url(#g)"/>
  <circle cx="525.2" cy="825.4" r="0.83" fill="#dfe8ff" opacity="0.50"/>
  <circle cx="768.8" cy="918.1" r="1.76" fill="#dfe8ff" opacity="0.79"/>
  <circle cx="1720.5" cy="183.7" r="1.59" fill="#dfe8ff" opacity="0.31"/>
  <circle cx="924.3" cy="1010.1" r="1.81" fill="#dfe8ff" opacity="0.58"/>
  <circle cx="48.6" cy="616.7" r="2.12" fill="#dfe8ff" opacity="0.67"/>
  <circle cx="1328.4" cy="721.6" r="1.33" fill="#dfe8ff" opacity="0.54"/>
  <circle cx="299.6" cy="630.9" r="1.58" fill="#dfe8ff" opacity="0.50"/>
  <circle cx="1051.1" cy="411.4" r="0.71" fill="#dfe8ff" opacity="0.44"/>
  <circle cx="138.2" cy="107.4" r="1.48" fill="#dfe8ff" opacity="0.72"/>
  <circle cx="659.7" cy="464.9" r="1.03" fill="#dfe8ff" opacity="0.34"/>
  <circle cx="1894.5" cy="154.6" r="1.35" fill="#dfe8ff" opacity="0.45"/>
  <circle cx="1366.6" cy="329.3" r="1.53" fill="#dfe8ff" opacity="0.41"/>
  <circle cx="1104.1" cy="437.6" r="1.90" fill="#dfe8ff" opacity="0.76"/>
  <circle cx="727.2" cy="601.0" r="0.75" fill="#dfe8ff" opacity="0.66"/>
  <circle cx="1418.2" cy="767.3" r="1.90" fill="#dfe8ff" opacity="0.71"/>
  <circle cx="484.0" cy="1057.9" r="1.02" fill="#dfe8ff" opacity="0.37"/>
  <circle cx="1361.1" cy="821.2" r="1.40" fill="#dfe8ff" opacity="0.57"/>
  <circle cx="694.5" cy="432.1" r="1.45" fill="#dfe8ff" opacity="0.66"/>
  <circle cx="1007.5" cy="972.1" r="2.18" fill="#dfe8ff" opacity="0.55"/>
  <circle cx="987.4" cy="426.3" r="0.90" fill="#dfe8ff" opacity="0.45"/>
  <circle cx="1742.2" cy="491.8" r="1.14" fill="#dfe8ff" opacity="0.70"/>
  <circle cx="419.9" cy="538.6" r="1.30" fill="#dfe8ff" opacity="0.55"/>
  <circle cx="242.9" cy="437.2" r="0.86" fill="#dfe8ff" opacity="0.65"/>
  <circle cx="1904.1" cy="690.2" r="1.86" fill="#dfe8ff" opacity="0.75"/>
  <circle cx="1323.5" cy="657.5" r="1.30" fill="#dfe8ff" opacity="0.36"/>
  <circle cx="1540.4" cy="1016.4" r="0.80" fill="#dfe8ff" opacity="0.35"/>
  <circle cx="1897.0" cy="497.9" r="2.07" fill="#dfe8ff" opacity="0.31"/>
  <circle cx="1008.5" cy="1002.1" r="1.24" fill="#dfe8ff" opacity="0.61"/>
  <circle cx="264.5" cy="989.1" r="1.61" fill="#dfe8ff" opacity="0.77"/>
  <circle cx="226.0" cy="941.8" r="1.02" fill="#dfe8ff" opacity="0.80"/>
  <circle cx="612.8" cy="40.9" r="1.55" fill="#dfe8ff" opacity="0.61"/>
  <circle cx="1283.8" cy="1033.0" r="1.53" fill="#dfe8ff" opacity="0.71"/>
  <circle cx="1647.9" cy="395.3" r="1.46" fill="#dfe8ff" opacity="0.30"/>
  <circle cx="60.9" cy="346.7" r="1.46" fill="#dfe8ff" opacity="0.34"/>
  <circle cx="873.6" cy="980.4" r="1.50" fill="#dfe8ff" opacity="0.41"/>
  <circle cx="1744.7" cy="1010.3" r="1.81" fill="#dfe8ff" opacity="0.69"/>
  <circle cx="1594.6" cy="393.6" r="0.71" fill="#dfe8ff" opacity="0.36"/>
  <circle cx="156.8" cy="348.3" r="1.06" fill="#dfe8ff" opacity="0.46"/>
  <circle cx="1368.8" cy="1017.0" r="0.76" fill="#dfe8ff" opacity="0.50"/>
  <circle cx="551.9" cy="963.2" r="1.29" fill="#dfe8ff" opacity="0.82"/>
  <circle cx="1827.9" cy="2.0" r="1.76" fill="#dfe8ff" opacity="0.51"/>
  <circle cx="1725.7" cy="867.3" r="1.58" fill="#dfe8ff" opacity="0.54"/>
  <circle cx="1180.1" cy="934.3" r="0.81" fill="#dfe8ff" opacity="0.33"/>
  <circle cx="1060.7" cy="682.1" r="0.87" fill="#dfe8ff" opacity="0.36"/>
  <circle cx="94.9" cy="277.2" r="0.77" fill="#dfe8ff" opacity="0.36"/>
  <circle cx="252.7" cy="553.8" r="1.48" fill="#dfe8ff" opacity="0.32"/>
  <circle cx="864.4" cy="502.4" r="0.84" fill="#dfe8ff" opacity="0.53"/>
  <circle cx="1805.2" cy="172.5" r="1.34" fill="#dfe8ff" opacity="0.76"/>
  <circle cx="1522.1" cy="887.5" r="1.31" fill="#dfe8ff" opacity="0.44"/>
  <circle cx="303.9" cy="579.0" r="1.73" fill="#dfe8ff" opacity="0.52"/>
  <circle cx="863.4" cy="168.2" r="0.84" fill="#dfe8ff" opacity="0.32"/>
  <circle cx="405.6" cy="860.0" r="0.94" fill="#dfe8ff" opacity="0.82"/>
  <circle cx="663.5" cy="147.0" r="1.76" fill="#dfe8ff" opacity="0.51"/>
  <circle cx="1293.6" cy="60.1" r="0.79" fill="#dfe8ff" opacity="0.48"/>
  <circle cx="849.1" cy="384.4" r="1.32" fill="#dfe8ff" opacity="0.82"/>
  <circle cx="535.1" cy="443.4" r="1.82" fill="#dfe8ff" opacity="0.40"/>
  <circle cx="1600.2" cy="1009.7" r="1.88" fill="#dfe8ff" opacity="0.45"/>
  <circle cx="571.7" cy="951.8" r="0.83" fill="#dfe8ff" opacity="0.84"/>
  <circle cx="795.9" cy="426.1" r="1.27" fill="#dfe8ff" opacity="0.65"/>
  <circle cx="577.5" cy="266.9" r="1.01" fill="#dfe8ff" opacity="0.36"/>
  <circle cx="1570.5" cy="497.8" r="1.28" fill="#dfe8ff" opacity="0.72"/>
  <circle cx="274.5" cy="161.9" r="1.07" fill="#dfe8ff" opacity="0.38"/>
  <circle cx="211.2" cy="693.0" r="1.34" fill="#dfe8ff" opacity="0.74"/>
  <circle cx="758.2" cy="680.4" r="1.61" fill="#dfe8ff" opacity="0.66"/>
  <circle cx="670.1" cy="62.2" r="1.53" fill="#dfe8ff" opacity="0.31"/>
  <circle cx="942.9" cy="33.4" r="1.10" fill="#dfe8ff" opacity="0.52"/>
  <circle cx="1116.6" cy="225.0" r="1.96" fill="#dfe8ff" opacity="0.46"/>
  <circle cx="197.4" cy="1022.5" r="1.59" fill="#dfe8ff" opacity="0.64"/>
  <circle cx="1553.2" cy="646.7" r="0.84" fill="#dfe8ff" opacity="0.68"/>
  <circle cx="1442.4" cy="478.3" r="1.36" fill="#dfe8ff" opacity="0.49"/>
  <circle cx="582.1" cy="574.3" r="1.42" fill="#dfe8ff" opacity="0.37"/>
  <circle cx="712.1" cy="981.6" r="2.20" fill="#dfe8ff" opacity="0.71"/>
  <circle cx="555.1" cy="351.5" r="1.49" fill="#dfe8ff" opacity="0.61"/>
  <circle cx="1255.7" cy="656.5" r="1.18" fill="#dfe8ff" opacity="0.84"/>
  <circle cx="1045.8" cy="513.9" r="2.07" fill="#dfe8ff" opacity="0.33"/>
  <circle cx="583.6" cy="201.3" r="1.12" fill="#dfe8ff" opacity="0.54"/>
  <circle cx="1351.8" cy="389.8" r="1.32" fill="#dfe8ff" opacity="0.75"/>
  <circle cx="3.1" cy="755.4" r="1.95" fill="#dfe8ff" opacity="0.32"/>
  <circle cx="865.1" cy="767.3" r="0.73" fill="#dfe8ff" opacity="0.84"/>
  <circle cx="507.9" cy="738.0" r="1.83" fill="#dfe8ff" opacity="0.38"/>
</svg>
