<svg xmlns="http://www.w3.org/2000/svg" viewBox="0 0 1600 1000"><defs><linearGradient id="bg" x1="0" y1="0" x2="0" y2="1"><stop offset="0" stop-color="#0a1814"/><stop offset="0.5" stop-color="#1a2820"/><stop offset="1" stop-color="#0d1218"/></linearGradient><radialGradient id="vig" cx="0.5" cy="0.5" r="0.7"><stop offset="0" stop-color="#000" stop-opacity="0"/><stop offset="1" stop-color="#000" stop-opacity="0.4"/></radialGradient></defs><rect width="1600" height="1000" fill="url(#bg)"/><text x="100" y="80" font-size="48" fill="#d4af37" font-weight="bold" letter-spacing="2">K线风云</text><text x="100" y="115" font-size="16" fill="#f5e6c8" opacity="0.6">红涨绿跌·多周期叠加·MACD</text><g transform="translate(180,250)"><line x1="20" y1="175.7571884997884" x2="20" y2="61.86791315133532" stroke="#b71c1c" stroke-width="1"/><rect x="0" y="106.00069266684346" width="40" height="73.99930733315654" fill="#b71c1c" opacity="0.9"/><line x1="80" y1="158.07575489584173" x2="80" y2="75.31500081334676" stroke="#b71c1c" stroke-width="1"/><rect x="60" y="157.07103484462408" width="40" height="22.92896515537592" fill="#b71c1c" opacity="0.9"/><line x1="140" y1="217.8007808798021" x2="140" y2="83.52121778046109" stroke="#b71c1c" stroke-width="1"/><rect x="120" y="143.10881103216317" width="40" height="36.891188967836825" fill="#b71c1c" opacity="0.9"/><line x1="200" y1="228.8225676547336" x2="200" y2="56.75481672460202" stroke="#b71c1c" stroke-width="1"/><rect x="180" y="141.20889082303864" width="40" height="38.791109176961356" fill="#b71c1c" opacity="0.9"/><line x1="260" y1="223.37938917399148" x2="260" y2="57.00418543481448" stroke="#b71c1c" stroke-width="1"/><rect x="240" y="109.09894890515992" width="40" height="70.90105109484008" fill="#b71c1c" opacity="0.9"/><line x1="320" y1="220.78354654103052" x2="320" y2="46.638681187844426" stroke="#b71c1c" stroke-width="1"/><rect x="300" y="180.0" width="40" height="0.2132143800614017" fill="#b71c1c" opacity="0.9"/><line x1="380" y1="178.15164204843202" x2="380" y2="44.35475182887797" stroke="#b71c1c" stroke-width="1"/><rect x="360" y="180.0" width="40" height="3.320980240076608" fill="#b71c1c" opacity="0.9"/><line x1="440" y1="205.6253835133268" x2="440" y2="44.06961468087812" stroke="#b71c1c" stroke-width="1"/><rect x="420" y="142.78471119178832" width="40" height="37.21528880821168" fill="#b71c1c" opacity="0.9"/><line x1="500" y1="227.16321993483803" x2="500" y2="34.83465945946011" stroke="#b71c1c" stroke-width="1"/><rect x="480" y="130.30170439455765" width="40" height="49.698295605442354" fill="#b71c1c" opacity="0.9"/><line x1="560" y1="165.9642350917606" x2="560" y2="39.168315994628884" stroke="#b71c1c" stroke-width="1"/><rect x="540" y="108.09967896157038" width="40" height="71.90032103842962" fill="#b71c1c" opacity="0.9"/><line x1="620" y1="169.7841475077862" x2="620" y2="49.852883462285014" stroke="#b71c1c" stroke-width="1"/><rect x="600" y="115.6743452527185" width="40" height="64.3256547472815" fill="#b71c1c" opacity="0.9"/><line x1="680" y1="127.47188527003024" x2="680" y2="79.97347016042926" stroke="#b71c1c" stroke-width="1"/><rect x="660" y="145.91091640213807" width="40" height="34.08908359786193" fill="#b71c1c" opacity="0.9"/><line x1="740" y1="212.3754926777596" x2="740" y2="86.76372201540602" stroke="#b71c1c" stroke-width="1"/><rect x="720" y="136.73721752003294" width="40" height="43.26278247996706" fill="#b71c1c" opacity="0.9"/><line x1="800" y1="225.67880073093883" x2="800" y2="64.54142080860481" stroke="#b71c1c" stroke-width="1"/><rect x="780" y="92.34383480852725" width="40" height="87.65616519147275" fill="#b71c1c" opacity="0.9"/><line x1="860" y1="233.12899889209163" x2="860" y2="47.916759142343004" stroke="#b71c1c" stroke-width="1"/><rect x="840" y="147.23756790688282" width="40" height="32.762432093117184" fill="#b71c1c" opacity="0.9"/><line x1="920" y1="226.99698503622145" x2="920" y2="80.14372024790404" stroke="#b71c1c" stroke-width="1"/><rect x="900" y="136.79839776764626" width="40" height="43.201602232353736" fill="#b71c1c" opacity="0.9"/><line x1="980" y1="208.1560872907629" x2="980" y2="77.99209025647606" stroke="#b71c1c" stroke-width="1"/><rect x="960" y="154.5864681132278" width="40" height="25.413531886772205" fill="#b71c1c" opacity="0.9"/><line x1="1040" y1="178.58753730603007" x2="1040" y2="46.3761187057954" stroke="#b71c1c" stroke-width="1"/><rect x="1020" y="180.0" width="40" height="17.737361687903416" fill="#b71c1c" opacity="0.9"/><line x1="1100" y1="166.6628643895354" x2="1100" y2="70.13241723737502" stroke="#b71c1c" stroke-width="1"/><rect x="1080" y="148.27703925582003" width="40" height="31.72296074417997" fill="#b71c1c" opacity="0.9"/><line x1="1160" y1="206.90176531527464" x2="1160" y2="80.4303397837535" stroke="#b71c1c" stroke-width="1"/><rect x="1140" y="180.0" width="40" height="5.777078930422647" fill="#b71c1c" opacity="0.9"/></g><path d="M180,430.0 L243.2,401.6 L306.3,375.6 L369.5,354.1 L432.6,338.9 L495.8,331.2 L558.9,331.6 L622.1,339.7 L685.3,354.8 L748.4,375.3 L811.6,399.3 L874.7,424.4 L937.9,448.2 L1001.1,468.5 L1064.2,483.2 L1127.4,491.0 L1190.5,490.9 L1253.7,482.7 L1316.8,467.1 L1380.0,445.4" fill="none" stroke="#d4af37" stroke-width="2" stroke-linejoin="round" opacity="0.9"/><path d="M180,370.0 L243.2,371.1 L306.3,376.8 L369.5,386.5 L432.6,399.7 L495.8,415.4 L558.9,432.5 L622.1,450.0 L685.3,466.6 L748.4,481.3 L811.6,493.1 L874.7,501.1 L937.9,504.8 L1001.1,504.0 L1064.2,498.4 L1127.4,488.5 L1190.5,474.8 L1253.7,458.1 L1316.8,439.2 L1380.0,419.4" fill="none" stroke="#f5e6c8" stroke-width="2" stroke-linejoin="round" opacity="0.9"/><rect width="1600" height="1000" fill="url(#vig)"/></svg>