<svg xmlns="http://www.w3.org/2000/svg" viewBox="0 0 1600 1000"><defs><linearGradient id="bg" x1="0" y1="0" x2="0" y2="1"><stop offset="0" stop-color="#0a1814"/><stop offset="0.5" stop-color="#1a2820"/><stop offset="1" stop-color="#0d1218"/></linearGradient><radialGradient id="vig" cx="0.5" cy="0.5" r="0.7"><stop offset="0" stop-color="#000" stop-opacity="0"/><stop offset="1" stop-color="#000" stop-opacity="0.4"/></radialGradient></defs><rect width="1600" height="1000" fill="url(#bg)"/><text x="100" y="80" font-size="48" fill="#d4af37" font-weight="bold" letter-spacing="2">债券帝国</text><text x="100" y="115" font-size="16" fill="#f5e6c8" opacity="0.6">国债·收益率曲线·信用评级</text><g transform="translate(250,400)"><rect width="200" height="120" fill="none" stroke="#d4af37" stroke-width="2"/><text x="100" y="30" font-size="16" fill="#d4af37" text-anchor="middle" font-weight="bold">BOND</text><line x1="20" y1="50" x2="180" y2="50" stroke="#d4af37" stroke-width="0.5"/><text x="100" y="70" font-size="11" fill="#f5e6c8" text-anchor="middle">PRINCIPAL: $10,000</text><text x="100" y="90" font-size="11" fill="#f5e6c8" text-anchor="middle">COUPON: 4.5%</text></g><g transform="translate(600,280)"><text x="0" y="-10" font-size="14" fill="#d4af37" font-weight="bold">收益率曲线</text><path d="M0,200 L0,0" stroke="#f5e6c8" stroke-width="0.5" opacity="0.3"/><path d="M0,200 L500,200" stroke="#f5e6c8" stroke-width="0.5" opacity="0.3"/><path d="M0,50 L50,80 L100,100 L150,110 L200,115 L250,120 L300,130 L350,140 L400,150 L450,160 L500,170" fill="none" stroke="#d4af37" stroke-width="2.5"/></g><rect width="1600" height="1000" fill="url(#vig)"/></svg>