<svg xmlns="http://www.w3.org/2000/svg" viewBox="0 0 1600 1000"><defs><linearGradient id="bg" x1="0" y1="0" x2="0" y2="1"><stop offset="0" stop-color="#0a1814"/><stop offset="0.5" stop-color="#1a2820"/><stop offset="1" stop-color="#0d1218"/></linearGradient><radialGradient id="vig" cx="0.5" cy="0.5" r="0.7"><stop offset="0" stop-color="#000" stop-opacity="0"/><stop offset="1" stop-color="#000" stop-opacity="0.4"/></radialGradient></defs><rect width="1600" height="1000" fill="url(#bg)"/><text x="100" y="80" font-size="48" fill="#d4af37" font-weight="bold" letter-spacing="2">全球金融中心</text><text x="100" y="115" font-size="16" fill="#f5e6c8" opacity="0.6">5 座城市天际线·上海/伦敦/香港/东京</text><g transform="translate(200,300)"><rect width="160" height="220" fill="#f5e6c8" opacity="0.85"/><rect x="20.0" y="22.0" width="12.0" height="13.2" fill="#fff" opacity="0.4"/><rect x="60.0" y="22.0" width="12.0" height="13.2" fill="#fff" opacity="0.4"/><rect x="100.0" y="22.0" width="12.0" height="13.2" fill="#fff" opacity="0.4"/><rect x="140.0" y="22.0" width="12.0" height="13.2" fill="#fff" opacity="0.4"/><rect x="20.0" y="66.0" width="12.0" height="13.2" fill="#fff" opacity="0.4"/><rect x="60.0" y="66.0" width="12.0" height="13.2" fill="#fff" opacity="0.4"/><rect x="100.0" y="66.0" width="12.0" height="13.2" fill="#fff" opacity="0.4"/><rect x="140.0" y="66.0" width="12.0" height="13.2" fill="#fff" opacity="0.4"/><rect x="20.0" y="110.0" width="12.0" height="13.2" fill="#fff" opacity="0.4"/><rect x="60.0" y="110.0" width="12.0" height="13.2" fill="#fff" opacity="0.4"/><rect x="100.0" y="110.0" width="12.0" height="13.2" fill="#fff" opacity="0.4"/><rect x="140.0" y="110.0" width="12.0" height="13.2" fill="#fff" opacity="0.4"/><rect x="20.0" y="154.0" width="12.0" height="13.2" fill="#fff" opacity="0.4"/><rect x="60.0" y="154.0" width="12.0" height="13.2" fill="#fff" opacity="0.4"/><rect x="100.0" y="154.0" width="12.0" height="13.2" fill="#fff" opacity="0.4"/><rect x="140.0" y="154.0" width="12.0" height="13.2" fill="#fff" opacity="0.4"/><rect x="20.0" y="198.0" width="12.0" height="13.2" fill="#fff" opacity="0.4"/><rect x="60.0" y="198.0" width="12.0" height="13.2" fill="#fff" opacity="0.4"/><rect x="100.0" y="198.0" width="12.0" height="13.2" fill="#fff" opacity="0.4"/><rect x="140.0" y="198.0" width="12.0" height="13.2" fill="#fff" opacity="0.4"/></g><text x="280" y="550" font-size="13" fill="#f5e6c8" text-anchor="middle">上海 陆家嘴</text><g transform="translate(550,320)"><rect width="180" height="200" fill="#f5e6c8" opacity="0.85"/><rect x="22.5" y="20.0" width="13.5" height="12.0" fill="#fff" opacity="0.4"/><rect x="67.5" y="20.0" width="13.5" height="12.0" fill="#fff" opacity="0.4"/><rect x="112.5" y="20.0" width="13.5" height="12.0" fill="#fff" opacity="0.4"/><rect x="157.5" y="20.0" width="13.5" height="12.0" fill="#fff" opacity="0.4"/><rect x="22.5" y="60.0" width="13.5" height="12.0" fill="#fff" opacity="0.4"/><rect x="67.5" y="60.0" width="13.5" height="12.0" fill="#fff" opacity="0.4"/><rect x="112.5" y="60.0" width="13.5" height="12.0" fill="#fff" opacity="0.4"/><rect x="157.5" y="60.0" width="13.5" height="12.0" fill="#fff" opacity="0.4"/><rect x="22.5" y="100.0" width="13.5" height="12.0" fill="#fff" opacity="0.4"/><rect x="67.5" y="100.0" width="13.5" height="12.0" fill="#fff" opacity="0.4"/><rect x="112.5" y="100.0" width="13.5" height="12.0" fill="#fff" opacity="0.4"/><rect x="157.5" y="100.0" width="13.5" height="12.0" fill="#fff" opacity="0.4"/><rect x="22.5" y="140.0" width="13.5" height="12.0" fill="#fff" opacity="0.4"/><rect x="67.5" y="140.0" width="13.5" height="12.0" fill="#fff" opacity="0.4"/><rect x="112.5" y="140.0" width="13.5" height="12.0" fill="#fff" opacity="0.4"/><rect x="157.5" y="140.0" width="13.5" height="12.0" fill="#fff" opacity="0.4"/><rect x="22.5" y="180.0" width="13.5" height="12.0" fill="#fff" opacity="0.4"/><rect x="67.5" y="180.0" width="13.5" height="12.0" fill="#fff" opacity="0.4"/><rect x="112.5" y="180.0" width="13.5" height="12.0" fill="#fff" opacity="0.4"/><rect x="157.5" y="180.0" width="13.5" height="12.0" fill="#fff" opacity="0.4"/></g><text x="640" y="550" font-size="13" fill="#f5e6c8" text-anchor="middle">London</text><g transform="translate(900,310)"><rect width="190" height="210" fill="#f5e6c8" opacity="0.85"/><rect x="23.75" y="21.0" width="14.25" height="12.6" fill="#fff" opacity="0.4"/><rect x="71.25" y="21.0" width="14.25" height="12.6" fill="#fff" opacity="0.4"/><rect x="118.75" y="21.0" width="14.25" height="12.6" fill="#fff" opacity="0.4"/><rect x="166.25" y="21.0" width="14.25" height="12.6" fill="#fff" opacity="0.4"/><rect x="23.75" y="63.0" width="14.25" height="12.6" fill="#fff" opacity="0.4"/><rect x="71.25" y="63.0" width="14.25" height="12.6" fill="#fff" opacity="0.4"/><rect x="118.75" y="63.0" width="14.25" height="12.6" fill="#fff" opacity="0.4"/><rect x="166.25" y="63.0" width="14.25" height="12.6" fill="#fff" opacity="0.4"/><rect x="23.75" y="105.0" width="14.25" height="12.6" fill="#fff" opacity="0.4"/><rect x="71.25" y="105.0" width="14.25" height="12.6" fill="#fff" opacity="0.4"/><rect x="118.75" y="105.0" width="14.25" height="12.6" fill="#fff" opacity="0.4"/><rect x="166.25" y="105.0" width="14.25" height="12.6" fill="#fff" opacity="0.4"/><rect x="23.75" y="147.0" width="14.25" height="12.6" fill="#fff" opacity="0.4"/><rect x="71.25" y="147.0" width="14.25" height="12.6" fill="#fff" opacity="0.4"/><rect x="118.75" y="147.0" width="14.25" height="12.6" fill="#fff" opacity="0.4"/><rect x="166.25" y="147.0" width="14.25" height="12.6" fill="#fff" opacity="0.4"/><rect x="23.75" y="189.0" width="14.25" height="12.6" fill="#fff" opacity="0.4"/><rect x="71.25" y="189.0" width="14.25" height="12.6" fill="#fff" opacity="0.4"/><rect x="118.75" y="189.0" width="14.25" height="12.6" fill="#fff" opacity="0.4"/><rect x="166.25" y="189.0" width="14.25" height="12.6" fill="#fff" opacity="0.4"/></g><text x="995" y="550" font-size="13" fill="#f5e6c8" text-anchor="middle">香港 中环</text><g transform="translate(1250,320)"><rect width="180" height="200" fill="#f5e6c8" opacity="0.85"/><rect x="22.5" y="20.0" width="13.5" height="12.0" fill="#fff" opacity="0.4"/><rect x="67.5" y="20.0" width="13.5" height="12.0" fill="#fff" opacity="0.4"/><rect x="112.5" y="20.0" width="13.5" height="12.0" fill="#fff" opacity="0.4"/><rect x="157.5" y="20.0" width="13.5" height="12.0" fill="#fff" opacity="0.4"/><rect x="22.5" y="60.0" width="13.5" height="12.0" fill="#fff" opacity="0.4"/><rect x="67.5" y="60.0" width="13.5" height="12.0" fill="#fff" opacity="0.4"/><rect x="112.5" y="60.0" width="13.5" height="12.0" fill="#fff" opacity="0.4"/><rect x="157.5" y="60.0" width="13.5" height="12.0" fill="#fff" opacity="0.4"/><rect x="22.5" y="100.0" width="13.5" height="12.0" fill="#fff" opacity="0.4"/><rect x="67.5" y="100.0" width="13.5" height="12.0" fill="#fff" opacity="0.4"/><rect x="112.5" y="100.0" width="13.5" height="12.0" fill="#fff" opacity="0.4"/><rect x="157.5" y="100.0" width="13.5" height="12.0" fill="#fff" opacity="0.4"/><rect x="22.5" y="140.0" width="13.5" height="12.0" fill="#fff" opacity="0.4"/><rect x="67.5" y="140.0" width="13.5" height="12.0" fill="#fff" opacity="0.4"/><rect x="112.5" y="140.0" width="13.5" height="12.0" fill="#fff" opacity="0.4"/><rect x="157.5" y="140.0" width="13.5" height="12.0" fill="#fff" opacity="0.4"/><rect x="22.5" y="180.0" width="13.5" height="12.0" fill="#fff" opacity="0.4"/><rect x="67.5" y="180.0" width="13.5" height="12.0" fill="#fff" opacity="0.4"/><rect x="112.5" y="180.0" width="13.5" height="12.0" fill="#fff" opacity="0.4"/><rect x="157.5" y="180.0" width="13.5" height="12.0" fill="#fff" opacity="0.4"/></g><text x="1340" y="550" font-size="13" fill="#f5e6c8" text-anchor="middle">東京 丸の内</text><rect width="1600" height="1000" fill="url(#vig)"/></svg>