<svg xmlns="http://www.w3.org/2000/svg" viewBox="0 0 1600 1000"><defs><linearGradient id="bg" x1="0" y1="0" x2="0" y2="1"><stop offset="0" stop-color="#0a1814"/><stop offset="0.5" stop-color="#1a2820"/><stop offset="1" stop-color="#0d1218"/></linearGradient><radialGradient id="vig" cx="0.5" cy="0.5" r="0.7"><stop offset="0" stop-color="#000" stop-opacity="0"/><stop offset="1" stop-color="#000" stop-opacity="0.4"/></radialGradient></defs><rect width="1600" height="1000" fill="url(#bg)"/><text x="100" y="80" font-size="48" fill="#d4af37" font-weight="bold" letter-spacing="2">华尔街地标</text><text x="100" y="115" font-size="16" fill="#f5e6c8" opacity="0.6">纽交所·铜牛·美联储·三一教堂</text><g transform="translate(180,250)"><rect width="200" height="350" fill="#f5e6c8" opacity="0.85"/><rect x="25.0" y="35.0" width="15.0" height="21.0" fill="#fff" opacity="0.4"/><rect x="75.0" y="35.0" width="15.0" height="21.0" fill="#fff" opacity="0.4"/><rect x="125.0" y="35.0" width="15.0" height="21.0" fill="#fff" opacity="0.4"/><rect x="175.0" y="35.0" width="15.0" height="21.0" fill="#fff" opacity="0.4"/><rect x="25.0" y="105.0" width="15.0" height="21.0" fill="#fff" opacity="0.4"/><rect x="75.0" y="105.0" width="15.0" height="21.0" fill="#fff" opacity="0.4"/><rect x="125.0" y="105.0" width="15.0" height="21.0" fill="#fff" opacity="0.4"/><rect x="175.0" y="105.0" width="15.0" height="21.0" fill="#fff" opacity="0.4"/><rect x="25.0" y="175.0" width="15.0" height="21.0" fill="#fff" opacity="0.4"/><rect x="75.0" y="175.0" width="15.0" height="21.0" fill="#fff" opacity="0.4"/><rect x="125.0" y="175.0" width="15.0" height="21.0" fill="#fff" opacity="0.4"/><rect x="175.0" y="175.0" width="15.0" height="21.0" fill="#fff" opacity="0.4"/><rect x="25.0" y="245.0" width="15.0" height="21.0" fill="#fff" opacity="0.4"/><rect x="75.0" y="245.0" width="15.0" height="21.0" fill="#fff" opacity="0.4"/><rect x="125.0" y="245.0" width="15.0" height="21.0" fill="#fff" opacity="0.4"/><rect x="175.0" y="245.0" width="15.0" height="21.0" fill="#fff" opacity="0.4"/><rect x="25.0" y="315.0" width="15.0" height="21.0" fill="#fff" opacity="0.4"/><rect x="75.0" y="315.0" width="15.0" height="21.0" fill="#fff" opacity="0.4"/><rect x="125.0" y="315.0" width="15.0" height="21.0" fill="#fff" opacity="0.4"/><rect x="175.0" y="315.0" width="15.0" height="21.0" fill="#fff" opacity="0.4"/></g><g transform="translate(1100,300)"><rect width="200" height="300" fill="#f5e6c8" opacity="0.85"/><rect x="25.0" y="30.0" width="15.0" height="18.0" fill="#fff" opacity="0.4"/><rect x="75.0" y="30.0" width="15.0" height="18.0" fill="#fff" opacity="0.4"/><rect x="125.0" y="30.0" width="15.0" height="18.0" fill="#fff" opacity="0.4"/><rect x="175.0" y="30.0" width="15.0" height="18.0" fill="#fff" opacity="0.4"/><rect x="25.0" y="90.0" width="15.0" height="18.0" fill="#fff" opacity="0.4"/><rect x="75.0" y="90.0" width="15.0" height="18.0" fill="#fff" opacity="0.4"/><rect x="125.0" y="90.0" width="15.0" height="18.0" fill="#fff" opacity="0.4"/><rect x="175.0" y="90.0" width="15.0" height="18.0" fill="#fff" opacity="0.4"/><rect x="25.0" y="150.0" width="15.0" height="18.0" fill="#fff" opacity="0.4"/><rect x="75.0" y="150.0" width="15.0" height="18.0" fill="#fff" opacity="0.4"/><rect x="125.0" y="150.0" width="15.0" height="18.0" fill="#fff" opacity="0.4"/><rect x="175.0" y="150.0" width="15.0" height="18.0" fill="#fff" opacity="0.4"/><rect x="25.0" y="210.0" width="15.0" height="18.0" fill="#fff" opacity="0.4"/><rect x="75.0" y="210.0" width="15.0" height="18.0" fill="#fff" opacity="0.4"/><rect x="125.0" y="210.0" width="15.0" height="18.0" fill="#fff" opacity="0.4"/><rect x="175.0" y="210.0" width="15.0" height="18.0" fill="#fff" opacity="0.4"/><rect x="25.0" y="270.0" width="15.0" height="18.0" fill="#fff" opacity="0.4"/><rect x="75.0" y="270.0" width="15.0" height="18.0" fill="#fff" opacity="0.4"/><rect x="125.0" y="270.0" width="15.0" height="18.0" fill="#fff" opacity="0.4"/><rect x="175.0" y="270.0" width="15.0" height="18.0" fill="#fff" opacity="0.4"/></g><g transform="translate(450,250)"><rect width="80" height="350" fill="none" stroke="#f5e6c8" stroke-width="1.5" opacity="0.8"/><polygon points="0,0 40,-80 80,0" fill="none" stroke="#f5e6c8" stroke-width="1.5" opacity="0.8"/><line x1="40" y1="-80" x2="40" y2="-120" stroke="#f5e6c8" stroke-width="2"/><polygon points="35,-130 45,-130 40,-150" fill="#d4af37"/></g><g transform="translate(800,550)"><path d="M-60,0 Q-80,-30 -50,-40 Q-30,-45 -20,-30 Q0,-30 20,-40 Q40,-50 50,-30 Q60,-20 60,0 L60,20 L-60,20 Z" fill="none" stroke="#d4af37" stroke-width="3"/><text x="0" y="60" font-size="14" fill="#d4af37" text-anchor="middle" font-weight="bold">CHARGING BULL</text></g><rect width="1600" height="1000" fill="url(#vig)"/></svg>