<svg xmlns="http://www.w3.org/2000/svg" viewBox="0 0 1600 1000"><defs><linearGradient id="bg" x1="0" y1="0" x2="0" y2="1"><stop offset="0" stop-color="#0a1814"/><stop offset="0.5" stop-color="#1a2820"/><stop offset="1" stop-color="#0d1218"/></linearGradient><radialGradient id="vig" cx="0.5" cy="0.5" r="0.7"><stop offset="0" stop-color="#000" stop-opacity="0"/><stop offset="1" stop-color="#000" stop-opacity="0.4"/></radialGradient></defs><rect width="1600" height="1000" fill="url(#bg)"/><text x="100" y="80" font-size="48" fill="#d4af37" font-weight="bold" letter-spacing="2">危机记忆</text><text x="100" y="115" font-size="16" fill="#f5e6c8" opacity="0.6">1929·2008·郁金香·南海·大萧条</text><g transform="translate(200,350)" opacity="0.85"><rect width="200" height="150" fill="#f5e6c8" opacity="0.9"/><text x="100" y="40" font-size="24" fill="#0a1814" text-anchor="middle" font-weight="bold">CRASH!</text><text x="100" y="70" font-size="12" fill="#0a1814" text-anchor="middle">October 29, 1929</text><line x1="20" y1="85" x2="180" y2="85" stroke="#0a1814" stroke-width="1"/></g><g transform="translate(500,350)" opacity="0.85"><rect width="200" height="150" fill="none" stroke="#d4af37" stroke-width="2"/><text x="100" y="50" font-size="20" fill="#d4af37" text-anchor="middle" font-weight="bold">LEHMAN</text><text x="100" y="80" font-size="14" fill="#d4af37" text-anchor="middle">BANKRUPTCY</text><text x="100" y="110" font-size="12" fill="#f5e6c8" text-anchor="middle">Sep 15, 2008</text></g><g transform="translate(800,500)"><path d="M0,0 Q-10,-30 0,-50 Q10,-30 0,0" fill="#ffd700" opacity="0.8"/><text x="0" y="40" font-size="12" fill="#f5e6c8" text-anchor="middle">1637 郁金香狂热</text></g><g transform="translate(1050,500)"><path d="M-50,0 L50,0 L40,30 L-40,30 Z" fill="none" stroke="#d4af37" stroke-width="2"/><line x1="0" y1="0" x2="0" y2="-60" stroke="#d4af37" stroke-width="2"/><text x="0" y="50" font-size="12" fill="#f5e6c8" text-anchor="middle">1720 南海泡沫</text></g><g transform="translate(250,700)"><path d="M0,0 L100,10 L250,30 L400,50 L550,70 L700,80 L850,90 L1000,95 L1200,98" fill="none" stroke="#b71c1c" stroke-width="3"/><text x="600" y="-10" font-size="14" fill="#d4af37" font-weight="bold">DJIA 1929-1932</text></g><rect width="1600" height="1000" fill="url(#vig)"/></svg>