<svg xmlns="http://www.w3.org/2000/svg" viewBox="0 0 1600 1000"><defs><linearGradient id="bg" x1="0" y1="0" x2="0" y2="1"><stop offset="0" stop-color="#0a1814"/><stop offset="0.5" stop-color="#1a2820"/><stop offset="1" stop-color="#0d1218"/></linearGradient><radialGradient id="vig" cx="0.5" cy="0.5" r="0.7"><stop offset="0" stop-color="#000" stop-opacity="0"/><stop offset="1" stop-color="#000" stop-opacity="0.4"/></radialGradient></defs><rect width="1600" height="1000" fill="url(#bg)"/><text x="100" y="80" font-size="48" fill="#d4af37" font-weight="bold" letter-spacing="2">商品帝国</text><text x="100" y="115" font-size="16" fill="#f5e6c8" opacity="0.6">铜·铝·铁矿·大豆·玉米·原油·棉花</text><path d="M900,500.0 L917.2,476.6 L934.5,455.2 L951.7,437.5 L969.0,425.1 L986.2,418.9 L1003.4,419.5 L1020.7,426.5 L1037.9,439.3 L1055.2,456.7 L1072.4,476.9 L1089.7,498.1 L1106.9,518.2 L1124.1,535.3 L1141.4,547.9 L1158.6,554.6 L1175.9,554.7 L1193.1,548.2 L1210.3,535.5 L1227.6,517.6 L1244.8,496.0 L1262.1,472.5 L1279.3,449.1 L1296.6,427.9 L1313.8,410.5 L1331.0,398.4 L1348.3,392.6 L1365.5,393.5 L1382.8,400.9 L1400.0,414.0" fill="none" stroke="#d4af37" stroke-width="2.5" stroke-linejoin="round" opacity="0.9"/><g transform="translate(200,350)"><circle r="35" fill="none" stroke="#d4af37" stroke-width="2"/><text x="0" y="6" font-size="16" fill="#ff7a45" text-anchor="middle" font-weight="bold">Cu</text><text x="0" y="55" font-size="12" fill="#f5e6c8" text-anchor="middle">铜</text></g><g transform="translate(400,350)"><circle r="35" fill="none" stroke="#d4af37" stroke-width="2"/><text x="0" y="6" font-size="16" fill="#ccc" text-anchor="middle" font-weight="bold">Al</text><text x="0" y="55" font-size="12" fill="#f5e6c8" text-anchor="middle">铝</text></g><g transform="translate(600,350)"><circle r="35" fill="none" stroke="#d4af37" stroke-width="2"/><text x="0" y="6" font-size="16" fill="#a52a2a" text-anchor="middle" font-weight="bold">Fe</text><text x="0" y="55" font-size="12" fill="#f5e6c8" text-anchor="middle">铁矿</text></g><g transform="translate(200,550)"><circle r="35" fill="none" stroke="#d4af37" stroke-width="2"/><text x="0" y="6" font-size="16" fill="#9acd32" text-anchor="middle" font-weight="bold">豆</text><text x="0" y="55" font-size="12" fill="#f5e6c8" text-anchor="middle">大豆</text></g><g transform="translate(400,550)"><circle r="35" fill="none" stroke="#d4af37" stroke-width="2"/><text x="0" y="6" font-size="16" fill="#daa520" text-anchor="middle" font-weight="bold">玉</text><text x="0" y="55" font-size="12" fill="#f5e6c8" text-anchor="middle">玉米</text></g><g transform="translate(600,550)"><circle r="35" fill="none" stroke="#d4af37" stroke-width="2"/><text x="0" y="6" font-size="16" fill="#1a1a1a" text-anchor="middle" font-weight="bold">油</text><text x="0" y="55" font-size="12" fill="#f5e6c8" text-anchor="middle">原油</text></g><rect width="1600" height="1000" fill="url(#vig)"/></svg>