<svg xmlns="http://www.w3.org/2000/svg" viewBox="0 0 1600 1000"><defs><linearGradient id="bg" x1="0" y1="0" x2="0" y2="1"><stop offset="0" stop-color="#0a1814"/><stop offset="0.5" stop-color="#1a2820"/><stop offset="1" stop-color="#0d1218"/></linearGradient><radialGradient id="vig" cx="0.5" cy="0.5" r="0.7"><stop offset="0" stop-color="#000" stop-opacity="0"/><stop offset="1" stop-color="#000" stop-opacity="0.4"/></radialGradient></defs><rect width="1600" height="1000" fill="url(#bg)"/><text x="100" y="80" font-size="48" fill="#d4af37" font-weight="bold" letter-spacing="2">央行体系</text><text x="100" y="115" font-size="16" fill="#f5e6c8" opacity="0.6">利率·通胀·QE·缩表</text><path d="M180,475.0 L205.0,436.8 L230.0,401.9 L255.0,373.3 L280.0,353.5 L305.0,344.1 L330.0,345.8 L355.0,358.3 L380.0,380.6 L405.0,410.3 L430.0,444.9 L455.0,481.0 L480.0,515.3 L505.0,544.7 L530.0,566.4 L555.0,578.4 L580.0,579.5 L605.0,569.5 L630.0,549.1 L655.0,520.1 L680.0,484.9 L705.0,446.6 L730.0,408.6 L755.0,373.9 L780.0,345.8" fill="none" stroke="#d4af37" stroke-width="2.5" stroke-linejoin="round" opacity="0.9"/><text x="180" y="290" font-size="14" fill="#d4af37" font-weight="bold">联邦基金利率</text><g transform="translate(1050,450)"><text x="0" y="-30" font-size="14" fill="#d4af37" font-weight="bold" text-anchor="middle">CPI</text><path d="M-60,0 A60,60 0 0 1 60,0" fill="none" stroke="#f5e6c8" stroke-width="2" opacity="0.5"/><path d="M-60,0 A60,60 0 0 1 30,-52" fill="none" stroke="#d4af37" stroke-width="3"/><text x="0" y="20" font-size="20" fill="#d4af37" text-anchor="middle" font-weight="bold">3.2%</text></g><rect width="1600" height="1000" fill="url(#vig)"/></svg>