<svg xmlns="http://www.w3.org/2000/svg" viewBox="0 0 1600 1000"><defs><linearGradient id="bg" x1="0" y1="0" x2="0" y2="1"><stop offset="0" stop-color="#0a1814"/><stop offset="0.5" stop-color="#1a2820"/><stop offset="1" stop-color="#0d1218"/></linearGradient><radialGradient id="vig" cx="0.5" cy="0.5" r="0.7"><stop offset="0" stop-color="#000" stop-opacity="0"/><stop offset="1" stop-color="#000" stop-opacity="0.4"/></radialGradient></defs><rect width="1600" height="1000" fill="url(#bg)"/><text x="100" y="80" font-size="48" fill="#d4af37" font-weight="bold" letter-spacing="2">并购风云</text><text x="100" y="115" font-size="16" fill="#f5e6c8" opacity="0.6">洛克菲勒·摩根·卡内基</text><path d="M226.5,530L226.5,458.0C233.0,426.0246.0,416.6261.6,413.0C272.0,398.6275.64,377.0270.96,359.0A23.4,23.4 0 1 1 299.04,359.0C294.36,377.0298.0,398.6308.4,413.0C324.0,416.6337.0,426.0343.5,458.0L343.5,530Z" fill="#f5e6c8" opacity="0.8"/><text x="285" y="565" font-size="13" fill="#f5e6c8" text-anchor="middle" font-family="Georgia" letter-spacing="2">ROCKEFELLER</text><path d="M566.5,530L566.5,458.0C573.0,426.0586.0,416.6601.6,413.0C612.0,398.6615.64,377.0610.96,359.0A23.4,23.4 0 1 1 639.04,359.0C634.36,377.0638.0,398.6648.4,413.0C664.0,416.6677.0,426.0683.5,458.0L683.5,530Z" fill="#f5e6c8" opacity="0.8"/><text x="625" y="565" font-size="13" fill="#f5e6c8" text-anchor="middle" font-family="Georgia" letter-spacing="2">MORGAN</text><path d="M906.5,530L906.5,458.0C913.0,426.0926.0,416.6941.6,413.0C952.0,398.6955.64,377.0950.96,359.0A23.4,23.4 0 1 1 979.04,359.0C974.36,377.0978.0,398.6988.4,413.0C1004.0,416.61017.0,426.01023.5,458.0L1023.5,530Z" fill="#f5e6c8" opacity="0.8"/><text x="965" y="565" font-size="13" fill="#f5e6c8" text-anchor="middle" font-family="Georgia" letter-spacing="2">CARNEGIE</text><g transform="translate(1200,450)"><circle r="50" fill="none" stroke="#b71c1c" stroke-width="2"/><line x1="-50" y1="0" x2="50" y2="0" stroke="#b71c1c" stroke-width="3"/><text x="0" y="80" font-size="11" fill="#f5e6c8" text-anchor="middle">反垄断</text></g><rect width="1600" height="1000" fill="url(#vig)"/></svg>