<svg xmlns="http://www.w3.org/2000/svg" viewBox="0 0 1600 1000"><defs><linearGradient id="bg" x1="0" y1="0" x2="0" y2="1"><stop offset="0" stop-color="#0a1814"/><stop offset="0.5" stop-color="#1a2820"/><stop offset="1" stop-color="#0d1218"/></linearGradient><radialGradient id="vig" cx="0.5" cy="0.5" r="0.7"><stop offset="0" stop-color="#000" stop-opacity="0"/><stop offset="1" stop-color="#000" stop-opacity="0.4"/></radialGradient></defs><rect width="1600" height="1000" fill="url(#bg)"/><text x="100" y="80" font-size="48" fill="#d4af37" font-weight="bold" letter-spacing="2">数字货币</text><text x="100" y="115" font-size="16" fill="#f5e6c8" opacity="0.6">比特币·以太坊·挖矿·冷钱包</text><g transform="translate(250,500)"><circle r="50" fill="none" stroke="#d4af37" stroke-width="3"/><text x="0" y="18" font-size="50" fill="#d4af37" text-anchor="middle" font-weight="bold" font-family="Georgia">₿</text><text x="0" y="80" font-size="11" fill="#f5e6c8" text-anchor="middle">BITCOIN</text></g><g transform="translate(500,500)"><polygon points="0,-50 35,0 0,30 -35,0" fill="none" stroke="#d4af37" stroke-width="2.5"/><text x="0" y="80" font-size="11" fill="#f5e6c8" text-anchor="middle">ETHEREUM</text></g><g transform="translate(750,500)"><rect x="-40" y="-30" width="80" height="60" fill="none" stroke="#d4af37" stroke-width="2"/><rect x="-30" y="-20" width="10" height="6" fill="#d4af37" opacity="0.7"/><rect x="-30" y="-10" width="10" height="6" fill="#d4af37" opacity="0.7"/><rect x="-30" y="0" width="10" height="6" fill="#d4af37" opacity="0.7"/><rect x="-30" y="10" width="10" height="6" fill="#d4af37" opacity="0.7"/><rect x="-15" y="-20" width="10" height="6" fill="#d4af37" opacity="0.7"/><rect x="-15" y="-10" width="10" height="6" fill="#d4af37" opacity="0.7"/><rect x="-15" y="0" width="10" height="6" fill="#d4af37" opacity="0.7"/><rect x="-15" y="10" width="10" height="6" fill="#d4af37" opacity="0.7"/><rect x="0" y="-20" width="10" height="6" fill="#d4af37" opacity="0.7"/><rect x="0" y="-10" width="10" height="6" fill="#d4af37" opacity="0.7"/><rect x="0" y="0" width="10" height="6" fill="#d4af37" opacity="0.7"/><rect x="0" y="10" width="10" height="6" fill="#d4af37" opacity="0.7"/><rect x="15" y="-20" width="10" height="6" fill="#d4af37" opacity="0.7"/><rect x="15" y="-10" width="10" height="6" fill="#d4af37" opacity="0.7"/><rect x="15" y="0" width="10" height="6" fill="#d4af37" opacity="0.7"/><rect x="15" y="10" width="10" height="6" fill="#d4af37" opacity="0.7"/><text x="0" y="80" font-size="11" fill="#f5e6c8" text-anchor="middle">挖矿芯片</text></g><g transform="translate(1300,500)"><rect x="-30" y="-30" width="60" height="60" rx="4" fill="none" stroke="#d4af37" stroke-width="2"/><circle cx="0" cy="0" r="3" fill="#d4af37"/><text x="0" y="50" font-size="11" fill="#f5e6c8" text-anchor="middle">冷钱包</text></g><rect width="1600" height="1000" fill="url(#vig)"/></svg>