<svg xmlns="http://www.w3.org/2000/svg" viewBox="0 0 1600 1000"><defs><linearGradient id="bg" x1="0" y1="0" x2="0" y2="1"><stop offset="0" stop-color="#0a1814"/><stop offset="0.5" stop-color="#1a2820"/><stop offset="1" stop-color="#0d1218"/></linearGradient><radialGradient id="vig" cx="0.5" cy="0.5" r="0.7"><stop offset="0" stop-color="#000" stop-opacity="0"/><stop offset="1" stop-color="#000" stop-opacity="0.4"/></radialGradient></defs><rect width="1600" height="1000" fill="url(#bg)"/><text x="100" y="80" font-size="48" fill="#d4af37" font-weight="bold" letter-spacing="2">美元群像</text><text x="100" y="115" font-size="16" fill="#f5e6c8" opacity="0.6">5 位历史人物 · Franklin/Washington/Hamilton/Lincoln/Jackson</text><path d="M204.0,350L204.0,310.0C208.0,290.0216.0,287.0225.6,285.0C232.0,277.0234.24,265.0231.36,255.0A14.399999999999999,14.399999999999999 0 1 1 248.64,255.0C245.76,265.0248.0,277.0254.4,285.0C264.0,287.0272.0,290.0276.0,310.0L276.0,350Z" fill="#f5e6c8" opacity="0.8"/><text x="240" y="380" font-size="13" fill="#f5e6c8" text-anchor="middle" font-family="Georgia" letter-spacing="2">FRANKLIN</text><path d="M454.0,350L454.0,310.0C458.0,290.0466.0,287.0475.6,285.0C482.0,277.0484.24,265.0481.36,255.0A14.399999999999999,14.399999999999999 0 1 1 498.64,255.0C495.76,265.0498.0,277.0504.4,285.0C514.0,287.0522.0,290.0526.0,310.0L526.0,350Z" fill="#f5e6c8" opacity="0.8"/><text x="490" y="380" font-size="13" fill="#f5e6c8" text-anchor="middle" font-family="Georgia" letter-spacing="2">WASHINGTON</text><path d="M704.0,350L704.0,310.0C708.0,290.0716.0,287.0725.6,285.0C732.0,277.0734.24,265.0731.36,255.0A14.399999999999999,14.399999999999999 0 1 1 748.64,255.0C745.76,265.0748.0,277.0754.4,285.0C764.0,287.0772.0,290.0776.0,310.0L776.0,350Z" fill="#f5e6c8" opacity="0.8"/><text x="740" y="380" font-size="13" fill="#f5e6c8" text-anchor="middle" font-family="Georgia" letter-spacing="2">LINCOLN</text><path d="M954.0,350L954.0,310.0C958.0,290.0966.0,287.0975.6,285.0C982.0,277.0984.24,265.0981.36,255.0A14.399999999999999,14.399999999999999 0 1 1 998.64,255.0C995.76,265.0998.0,277.01004.4,285.0C1014.0,287.01022.0,290.01026.0,310.0L1026.0,350Z" fill="#f5e6c8" opacity="0.8"/><text x="990" y="380" font-size="13" fill="#f5e6c8" text-anchor="middle" font-family="Georgia" letter-spacing="2">JACKSON</text><path d="M1204.0,350L1204.0,310.0C1208.0,290.01216.0,287.01225.6,285.0C1232.0,277.01234.24,265.01231.36,255.0A14.399999999999999,14.399999999999999 0 1 1 1248.64,255.0C1245.76,265.01248.0,277.01254.4,285.0C1264.0,287.01272.0,290.01276.0,310.0L1276.0,350Z" fill="#f5e6c8" opacity="0.8"/><text x="1240" y="380" font-size="13" fill="#f5e6c8" text-anchor="middle" font-family="Georgia" letter-spacing="2">HAMILTON</text><text x="800" y="650" font-size="140" fill="#d4af37" text-anchor="middle" font-weight="bold" font-family="Georgia" opacity="0.9">$</text><rect width="1600" height="1000" fill="url(#vig)"/></svg>