<svg xmlns="http://www.w3.org/2000/svg" viewBox="0 0 1600 1000"><defs><linearGradient id="bg" x1="0" y1="0" x2="0" y2="1"><stop offset="0" stop-color="#0a1814"/><stop offset="0.5" stop-color="#1a2820"/><stop offset="1" stop-color="#0d1218"/></linearGradient><radialGradient id="vig" cx="0.5" cy="0.5" r="0.7"><stop offset="0" stop-color="#000" stop-opacity="0"/><stop offset="1" stop-color="#000" stop-opacity="0.4"/></radialGradient></defs><rect width="1600" height="1000" fill="url(#bg)"/><text x="100" y="80" font-size="48" fill="#d4af37" font-weight="bold" letter-spacing="2">股市编年</text><text x="100" y="115" font-size="16" fill="#f5e6c8" opacity="0.6">6 大指数 50 年走势</text><path d="M100,300.0 L173.7,295.9 L247.4,291.9 L321.1,288.2 L394.7,284.8 L468.4,281.9 L542.1,279.3 L615.8,277.3 L689.5,275.6 L763.2,274.2 L836.8,273.0 L910.5,271.8 L984.2,270.6 L1057.9,269.2 L1131.6,267.5 L1205.3,265.4 L1278.9,262.9 L1352.6,259.9 L1426.3,256.5 L1500.0,252.8" fill="none" stroke="#d4af37" stroke-width="2" stroke-linejoin="round" opacity="0.9"/><text x="100" y="210" font-size="13" fill="#d4af37">DJIA</text><path d="M100,440.0 L173.7,433.5 L247.4,427.6 L321.1,422.8 L394.7,419.5 L468.4,417.7 L542.1,417.5 L615.8,418.2 L689.5,419.5 L763.2,420.7 L836.8,421.3 L910.5,420.6 L984.2,418.4 L1057.9,414.6 L1131.6,409.5 L1205.3,403.3 L1278.9,396.7 L1352.6,390.3 L1426.3,384.7 L1500.0,380.3" fill="none" stroke="#ffd700" stroke-width="2" stroke-linejoin="round" opacity="0.9"/><text x="100" y="360" font-size="13" fill="#d4af37">NASDAQ</text><path d="M100,590.0 L173.7,587.6 L247.4,585.6 L321.1,584.0 L394.7,582.7 L468.4,581.5 L542.1,580.3 L615.8,579.1 L689.5,577.6 L763.2,575.8 L836.8,573.6 L910.5,571.0 L984.2,567.9 L1057.9,564.4 L1131.6,560.6 L1205.3,556.6 L1278.9,552.5 L1352.6,548.4 L1426.3,544.5 L1500.0,540.8" fill="none" stroke="#d4af37" stroke-width="2" stroke-linejoin="round" opacity="0.9"/><text x="100" y="510" font-size="13" fill="#d4af37">S&P 500</text><path d="M100,730.0 L173.7,726.4 L247.4,722.9 L321.1,719.6 L394.7,716.5 L468.4,713.7 L542.1,711.2 L615.8,709.1 L689.5,707.4 L763.2,706.1 L836.8,705.1 L910.5,704.5 L984.2,704.3 L1057.9,704.3 L1131.6,704.5 L1205.3,704.9 L1278.9,705.3 L1352.6,705.7 L1426.3,706.0 L1500.0,706.1" fill="none" stroke="#f5e6c8" stroke-width="2" stroke-linejoin="round" opacity="0.9"/><text x="100" y="660" font-size="13" fill="#d4af37">恒生</text><path d="M100,890.0 L173.7,880.7 L247.4,873.2 L321.1,868.7 L394.7,867.9 L468.4,870.5 L542.1,875.3 L615.8,880.5 L689.5,884.5 L763.2,885.7 L836.8,883.3 L910.5,877.4 L984.2,868.9 L1057.9,859.4 L1131.6,850.7 L1205.3,844.4 L1278.9,841.5 L1352.6,842.2 L1426.3,845.9 L1500.0,851.1" fill="none" stroke="#ffd700" stroke-width="2" stroke-linejoin="round" opacity="0.9"/><text x="100" y="810" font-size="13" fill="#d4af37">上证</text><rect width="1600" height="1000" fill="url(#vig)"/></svg>