<svg xmlns="http://www.w3.org/2000/svg" viewBox="0 0 1600 1000"><defs><linearGradient id="bg" x1="0" y1="0" x2="0" y2="1"><stop offset="0" stop-color="#0a1814"/><stop offset="0.5" stop-color="#1a2820"/><stop offset="1" stop-color="#0d1218"/></linearGradient><radialGradient id="vig" cx="0.5" cy="0.5" r="0.7"><stop offset="0" stop-color="#000" stop-opacity="0"/><stop offset="1" stop-color="#000" stop-opacity="0.4"/></radialGradient></defs><rect width="1600" height="1000" fill="url(#bg)"/><text x="100" y="80" font-size="48" fill="#d4af37" font-weight="bold" letter-spacing="2">能源金融</text><text x="100" y="115" font-size="16" fill="#f5e6c8" opacity="0.6">石油·天然气·碳交易·新能源</text><g transform="translate(200,500)"><path d="M0,0 L0,-100 L30,-150 L40,-150 L40,-100" fill="none" stroke="#d4af37" stroke-width="2"/><path d="M40,-100 L60,-130 L80,-100 Z" fill="#d4af37" opacity="0.4"/><text x="20" y="20" font-size="11" fill="#f5e6c8" text-anchor="middle">石油</text></g><g transform="translate(450,500)"><path d="M0,0 Q-15,-30 0,-50 Q15,-30 0,0" fill="#ffd700" opacity="0.7"/><text x="0" y="20" font-size="11" fill="#f5e6c8" text-anchor="middle">天然气</text></g><g transform="translate(650,500)"><circle r="35" fill="none" stroke="#d4af37" stroke-width="2"/><text x="0" y="5" font-size="16" fill="#d4af37" text-anchor="middle" font-weight="bold">CO₂</text></g><g transform="translate(900,500)"><rect x="-30" y="-30" width="60" height="60" fill="none" stroke="#d4af37" stroke-width="1.5"/><line x1="-30" y1="0" x2="30" y2="0" stroke="#d4af37" stroke-width="1"/><line x1="0" y1="-30" x2="0" y2="30" stroke="#d4af37" stroke-width="1"/><text x="0" y="50" font-size="11" fill="#f5e6c8" text-anchor="middle">光伏</text></g><rect width="1600" height="1000" fill="url(#vig)"/></svg>