<svg xmlns="http://www.w3.org/2000/svg" viewBox="0 0 1600 1000"><defs><linearGradient id="bg" x1="0" y1="0" x2="0" y2="1"><stop offset="0" stop-color="#0a1814"/><stop offset="0.5" stop-color="#1a2820"/><stop offset="1" stop-color="#0d1218"/></linearGradient><radialGradient id="vig" cx="0.5" cy="0.5" r="0.7"><stop offset="0" stop-color="#000" stop-opacity="0"/><stop offset="1" stop-color="#000" stop-opacity="0.4"/></radialGradient></defs><rect width="1600" height="1000" fill="url(#bg)"/><text x="100" y="80" font-size="48" fill="#d4af37" font-weight="bold" letter-spacing="2">иґ§еёЃжј”иї›</text><text x="100" y="115" font-size="16" fill="#f5e6c8" opacity="0.6">иґќеЈів†’й“њй’±в†’й‡‘еёЃв†’зєёеёЃв†’ж‰«з Ѓв†’жЇ”з‰№еёЃ</text><g transform="translate(120,450)" opacity="0.9"><path d="M0,0 Q-25,-20 -25,-40 Q-15,-50 0,-45 Q15,-50 25,-40 Q25,-20 0,0" fill="none" stroke="#f5e6c8" stroke-width="2"/></g><g transform="translate(320,450)"><circle r="35" fill="none" stroke="#d4af37" stroke-width="2"/></g><g transform="translate(520,450)"><circle r="30" fill="none" stroke="#d4af37" stroke-width="2"/><path d="M1.5,30L1.5,14.0C3.0,3.06.0,4.89.600000000000001,4.0C12.0,0.800000000000000712.84,-4.011.76,-8.0A5.3999999999999995,5.3999999999999995 0 1 1 18.24,-8.0C17.16,-4.018.0,0.800000000000000720.4,4.0C24.0,4.827.0,3.028.5,14.0L28.5,30Z" fill="#d4af37" opacity="0.5"/></g><g transform="translate(720,450)"><rect width="160" height="80" fill="none" stroke="#d4af37" stroke-width="2"/><text x="120" y="30" font-size="14" fill="#d4af37" text-anchor="middle">100</text></g><g transform="translate(920,450)"><rect width="120" height="70" rx="6" fill="none" stroke="#d4af37" stroke-width="2"/></g><g transform="translate(1320,450)"><circle r="40" fill="none" stroke="#d4af37" stroke-width="2.5"/><text x="0" y="15" font-size="48" fill="#d4af37" text-anchor="middle" font-weight="bold" font-family="Georgia">B</text></g><rect width="1600" height="1000" fill="url(#vig)"/></svg>