<svg xmlns="http://www.w3.org/2000/svg" viewBox="0 0 1600 1000"><defs><linearGradient id="bg" x1="0" y1="0" x2="0" y2="1"><stop offset="0" stop-color="#0a1814"/><stop offset="0.5" stop-color="#1a2820"/><stop offset="1" stop-color="#0d1218"/></linearGradient><radialGradient id="vig" cx="0.5" cy="0.5" r="0.7"><stop offset="0" stop-color="#000" stop-opacity="0"/><stop offset="1" stop-color="#000" stop-opacity="0.4"/></radialGradient></defs><rect width="1600" height="1000" fill="url(#bg)"/><text x="100" y="80" font-size="48" fill="#d4af37" font-weight="bold" letter-spacing="2">贸易之路</text><text x="100" y="115" font-size="16" fill="#f5e6c8" opacity="0.6">丝绸→香料→大西洋→中欧班列</text><circle cx="261" cy="637" r="2" fill="#f5e6c8" opacity="0.15"/><circle cx="1093" cy="27" r="2" fill="#f5e6c8" opacity="0.15"/><circle cx="806" cy="606" r="2" fill="#f5e6c8" opacity="0.15"/><circle cx="1155" cy="678" r="2" fill="#f5e6c8" opacity="0.15"/><circle cx="55" cy="85" r="2" fill="#f5e6c8" opacity="0.15"/><circle cx="1316" cy="438" r="2" fill="#f5e6c8" opacity="0.15"/><circle cx="277" cy="887" r="2" fill="#f5e6c8" opacity="0.15"/><circle cx="945" cy="186" r="2" fill="#f5e6c8" opacity="0.15"/><circle cx="102" cy="266" r="2" fill="#f5e6c8" opacity="0.15"/><circle cx="776" cy="335" r="2" fill="#f5e6c8" opacity="0.15"/><circle cx="433" cy="465" r="2" fill="#f5e6c8" opacity="0.15"/><circle cx="669" cy="345" r="2" fill="#f5e6c8" opacity="0.15"/><circle cx="1558" cy="900" r="2" fill="#f5e6c8" opacity="0.15"/><circle cx="776" cy="284" r="2" fill="#f5e6c8" opacity="0.15"/><circle cx="1540" cy="974" r="2" fill="#f5e6c8" opacity="0.15"/><circle cx="863" cy="258" r="2" fill="#f5e6c8" opacity="0.15"/><circle cx="167" cy="481" r="2" fill="#f5e6c8" opacity="0.15"/><circle cx="39" cy="767" r="2" fill="#f5e6c8" opacity="0.15"/><circle cx="1104" cy="53" r="2" fill="#f5e6c8" opacity="0.15"/><circle cx="716" cy="229" r="2" fill="#f5e6c8" opacity="0.15"/><circle cx="1331" cy="70" r="2" fill="#f5e6c8" opacity="0.15"/><circle cx="1599" cy="980" r="2" fill="#f5e6c8" opacity="0.15"/><circle cx="1334" cy="41" r="2" fill="#f5e6c8" opacity="0.15"/><circle cx="1544" cy="31" r="2" fill="#f5e6c8" opacity="0.15"/><circle cx="506" cy="204" r="2" fill="#f5e6c8" opacity="0.15"/><circle cx="41" cy="636" r="2" fill="#f5e6c8" opacity="0.15"/><circle cx="312" cy="244" r="2" fill="#f5e6c8" opacity="0.15"/><circle cx="258" cy="484" r="2" fill="#f5e6c8" opacity="0.15"/><circle cx="1371" cy="117" r="2" fill="#f5e6c8" opacity="0.15"/><circle cx="1155" cy="970" r="2" fill="#f5e6c8" opacity="0.15"/><g transform="translate(200,500)"><path d="M-100,0 Q-50,-30 0,0 Q50,30 100,0" fill="none" stroke="#d4af37" stroke-width="2" stroke-dasharray="4,3"/><text x="0" y="30" font-size="12" fill="#f5e6c8" text-anchor="middle">丝绸之路</text></g><g transform="translate(550,500)"><path d="M-60,0 L60,0 L50,30 L-50,30 Z" fill="none" stroke="#d4af37" stroke-width="2"/><line x1="0" y1="0" x2="0" y2="-80" stroke="#d4af37" stroke-width="2"/><text x="0" y="50" font-size="12" fill="#f5e6c8" text-anchor="middle">香料帆船</text></g><g transform="translate(900,500)"><circle cx="-50" cy="0" r="10" fill="none" stroke="#d4af37" stroke-width="2"/><circle cx="50" cy="0" r="10" fill="none" stroke="#d4af37" stroke-width="2"/><circle cx="0" cy="40" r="10" fill="none" stroke="#d4af37" stroke-width="2"/><text x="0" y="80" font-size="12" fill="#f5e6c8" text-anchor="middle">大西洋三角</text></g><rect width="1600" height="1000" fill="url(#vig)"/></svg>