<svg xmlns="http://www.w3.org/2000/svg" viewBox="0 0 1600 1000"><defs><linearGradient id="bg" x1="0" y1="0" x2="0" y2="1"><stop offset="0" stop-color="#0a1814"/><stop offset="0.5" stop-color="#1a2820"/><stop offset="1" stop-color="#0d1218"/></linearGradient><radialGradient id="vig" cx="0.5" cy="0.5" r="0.7"><stop offset="0" stop-color="#000" stop-opacity="0"/><stop offset="1" stop-color="#000" stop-opacity="0.4"/></radialGradient></defs><rect width="1600" height="1000" fill="url(#bg)"/><text x="100" y="80" font-size="48" fill="#d4af37" font-weight="bold" letter-spacing="2">金融建筑群</text><text x="100" y="115" font-size="16" fill="#f5e6c8" opacity="0.6">5 大央行总部</text><g transform="translate(120,350)"><rect width="160" height="200" fill="#f5e6c8" opacity="0.85"/><rect x="26.666666666666668" y="25.0" width="16.0" height="15.0" fill="#fff" opacity="0.4"/><rect x="80.0" y="25.0" width="16.0" height="15.0" fill="#fff" opacity="0.4"/><rect x="133.33333333333334" y="25.0" width="16.0" height="15.0" fill="#fff" opacity="0.4"/><rect x="26.666666666666668" y="75.0" width="16.0" height="15.0" fill="#fff" opacity="0.4"/><rect x="80.0" y="75.0" width="16.0" height="15.0" fill="#fff" opacity="0.4"/><rect x="133.33333333333334" y="75.0" width="16.0" height="15.0" fill="#fff" opacity="0.4"/><rect x="26.666666666666668" y="125.0" width="16.0" height="15.0" fill="#fff" opacity="0.4"/><rect x="80.0" y="125.0" width="16.0" height="15.0" fill="#fff" opacity="0.4"/><rect x="133.33333333333334" y="125.0" width="16.0" height="15.0" fill="#fff" opacity="0.4"/><rect x="26.666666666666668" y="175.0" width="16.0" height="15.0" fill="#fff" opacity="0.4"/><rect x="80.0" y="175.0" width="16.0" height="15.0" fill="#fff" opacity="0.4"/><rect x="133.33333333333334" y="175.0" width="16.0" height="15.0" fill="#fff" opacity="0.4"/></g><text x="200" y="575" font-size="13" fill="#f5e6c8" text-anchor="middle">美联储</text><g transform="translate(360,380)"><rect width="180" height="170" fill="#f5e6c8" opacity="0.85"/><rect x="30.0" y="21.25" width="18.0" height="12.75" fill="#fff" opacity="0.4"/><rect x="90.0" y="21.25" width="18.0" height="12.75" fill="#fff" opacity="0.4"/><rect x="150.0" y="21.25" width="18.0" height="12.75" fill="#fff" opacity="0.4"/><rect x="30.0" y="63.75" width="18.0" height="12.75" fill="#fff" opacity="0.4"/><rect x="90.0" y="63.75" width="18.0" height="12.75" fill="#fff" opacity="0.4"/><rect x="150.0" y="63.75" width="18.0" height="12.75" fill="#fff" opacity="0.4"/><rect x="30.0" y="106.25" width="18.0" height="12.75" fill="#fff" opacity="0.4"/><rect x="90.0" y="106.25" width="18.0" height="12.75" fill="#fff" opacity="0.4"/><rect x="150.0" y="106.25" width="18.0" height="12.75" fill="#fff" opacity="0.4"/><rect x="30.0" y="148.75" width="18.0" height="12.75" fill="#fff" opacity="0.4"/><rect x="90.0" y="148.75" width="18.0" height="12.75" fill="#fff" opacity="0.4"/><rect x="150.0" y="148.75" width="18.0" height="12.75" fill="#fff" opacity="0.4"/></g><text x="450" y="575" font-size="13" fill="#f5e6c8" text-anchor="middle">ECB</text><g transform="translate(620,400)"><rect width="200" height="150" fill="#f5e6c8" opacity="0.85"/><rect x="25.0" y="25.0" width="15.0" height="15.0" fill="#fff" opacity="0.4"/><rect x="75.0" y="25.0" width="15.0" height="15.0" fill="#fff" opacity="0.4"/><rect x="125.0" y="25.0" width="15.0" height="15.0" fill="#fff" opacity="0.4"/><rect x="175.0" y="25.0" width="15.0" height="15.0" fill="#fff" opacity="0.4"/><rect x="25.0" y="75.0" width="15.0" height="15.0" fill="#fff" opacity="0.4"/><rect x="75.0" y="75.0" width="15.0" height="15.0" fill="#fff" opacity="0.4"/><rect x="125.0" y="75.0" width="15.0" height="15.0" fill="#fff" opacity="0.4"/><rect x="175.0" y="75.0" width="15.0" height="15.0" fill="#fff" opacity="0.4"/><rect x="25.0" y="125.0" width="15.0" height="15.0" fill="#fff" opacity="0.4"/><rect x="75.0" y="125.0" width="15.0" height="15.0" fill="#fff" opacity="0.4"/><rect x="125.0" y="125.0" width="15.0" height="15.0" fill="#fff" opacity="0.4"/><rect x="175.0" y="125.0" width="15.0" height="15.0" fill="#fff" opacity="0.4"/></g><text x="720" y="575" font-size="13" fill="#f5e6c8" text-anchor="middle">PBOC</text><g transform="translate(900,370)"><rect width="180" height="180" fill="#f5e6c8" opacity="0.85"/><rect x="30.0" y="22.5" width="18.0" height="13.5" fill="#fff" opacity="0.4"/><rect x="90.0" y="22.5" width="18.0" height="13.5" fill="#fff" opacity="0.4"/><rect x="150.0" y="22.5" width="18.0" height="13.5" fill="#fff" opacity="0.4"/><rect x="30.0" y="67.5" width="18.0" height="13.5" fill="#fff" opacity="0.4"/><rect x="90.0" y="67.5" width="18.0" height="13.5" fill="#fff" opacity="0.4"/><rect x="150.0" y="67.5" width="18.0" height="13.5" fill="#fff" opacity="0.4"/><rect x="30.0" y="112.5" width="18.0" height="13.5" fill="#fff" opacity="0.4"/><rect x="90.0" y="112.5" width="18.0" height="13.5" fill="#fff" opacity="0.4"/><rect x="150.0" y="112.5" width="18.0" height="13.5" fill="#fff" opacity="0.4"/><rect x="30.0" y="157.5" width="18.0" height="13.5" fill="#fff" opacity="0.4"/><rect x="90.0" y="157.5" width="18.0" height="13.5" fill="#fff" opacity="0.4"/><rect x="150.0" y="157.5" width="18.0" height="13.5" fill="#fff" opacity="0.4"/></g><text x="990" y="575" font-size="13" fill="#f5e6c8" text-anchor="middle">Bank of England</text><rect width="1600" height="1000" fill="url(#vig)"/></svg>