<svg xmlns="http://www.w3.org/2000/svg" viewBox="0 0 1600 1000"><defs><linearGradient id="bg" x1="0" y1="0" x2="0" y2="1"><stop offset="0" stop-color="#0a1814"/><stop offset="0.5" stop-color="#1a2820"/><stop offset="1" stop-color="#0d1218"/></linearGradient><radialGradient id="vig" cx="0.5" cy="0.5" r="0.7"><stop offset="0" stop-color="#000" stop-opacity="0"/><stop offset="1" stop-color="#000" stop-opacity="0.4"/></radialGradient></defs><rect width="1600" height="1000" fill="url(#bg)"/><text x="100" y="80" font-size="48" fill="#d4af37" font-weight="bold" letter-spacing="2">金融科技</text><text x="100" y="115" font-size="16" fill="#f5e6c8" opacity="0.6">区块链·智能合约·DeFi·NFT</text><g transform="translate(300,500)"><rect x="0" y="0" width="50" height="50" fill="none" stroke="#d4af37" stroke-width="1.5"/><text x="25" y="25" font-size="9" fill="#d4af37" text-anchor="middle">#0</text><rect x="60" y="0" width="50" height="50" fill="none" stroke="#d4af37" stroke-width="1.5"/><text x="85" y="25" font-size="9" fill="#d4af37" text-anchor="middle">#1</text><rect x="120" y="0" width="50" height="50" fill="none" stroke="#d4af37" stroke-width="1.5"/><text x="145" y="25" font-size="9" fill="#d4af37" text-anchor="middle">#2</text><rect x="180" y="0" width="50" height="50" fill="none" stroke="#d4af37" stroke-width="1.5"/><text x="205" y="25" font-size="9" fill="#d4af37" text-anchor="middle">#3</text><rect x="240" y="0" width="50" height="50" fill="none" stroke="#d4af37" stroke-width="1.5"/><text x="265" y="25" font-size="9" fill="#d4af37" text-anchor="middle">#4</text><line x1="50" y1="25" x2="60" y2="25" stroke="#ffd700" stroke-width="1"/><line x1="110" y1="25" x2="120" y2="25" stroke="#ffd700" stroke-width="1"/><line x1="170" y1="25" x2="180" y2="25" stroke="#ffd700" stroke-width="1"/><line x1="230" y1="25" x2="240" y2="25" stroke="#ffd700" stroke-width="1"/></g><g transform="translate(150,650)"><rect width="300" height="200" fill="none" stroke="#d4af37" stroke-width="1.5"/><text x="10" y="25" font-size="10" fill="#d4af37" font-family="monospace">contract Trade</text><text x="20" y="45" font-size="10" fill="#f5e6c8" font-family="monospace">function swap(</text></g><g transform="translate(700,650)"><circle r="60" fill="none" stroke="#d4af37" stroke-width="2"/><text x="0" y="-5" font-size="14" fill="#d4af37" text-anchor="middle" font-weight="bold">DeFi Pool</text><text x="0" y="15" font-size="11" fill="#f5e6c8" text-anchor="middle">$1.2B TVL</text></g><rect width="1600" height="1000" fill="url(#vig)"/></svg>