<svg xmlns="http://www.w3.org/2000/svg" viewBox="0 0 1600 1000"><defs><linearGradient id="bg" x1="0" y1="0" x2="0" y2="1"><stop offset="0" stop-color="#0a1814"/><stop offset="0.5" stop-color="#1a2820"/><stop offset="1" stop-color="#0d1218"/></linearGradient><radialGradient id="vig" cx="0.5" cy="0.5" r="0.7"><stop offset="0" stop-color="#000" stop-opacity="0"/><stop offset="1" stop-color="#000" stop-opacity="0.4"/></radialGradient></defs><rect width="1600" height="1000" fill="url(#bg)"/><text x="100" y="80" font-size="48" fill="#d4af37" font-weight="bold" letter-spacing="2">金融巨擘</text><text x="100" y="115" font-size="16" fill="#f5e6c8" opacity="0.6">5 位投资家 · Buffett/Soros/Graham/Simons/Dalio</text><path d="M185.0,440L185.0,384.0C190.0,358.0200.0,351.8212.0,349.0C220.0,337.8222.8,321.0219.2,307.0A18.0,18.0 0 1 1 240.8,307.0C237.2,321.0240.0,337.8248.0,349.0C260.0,351.8270.0,358.0275.0,384.0L275.0,440Z" fill="#f5e6c8" opacity="0.8"/><text x="230" y="480" font-size="13" fill="#f5e6c8" text-anchor="middle" font-family="Georgia" letter-spacing="1.5">BUFFETT</text><path d="M445.0,440L445.0,384.0C450.0,358.0460.0,351.8472.0,349.0C480.0,337.8482.8,321.0479.2,307.0A18.0,18.0 0 1 1 500.8,307.0C497.2,321.0500.0,337.8508.0,349.0C520.0,351.8530.0,358.0535.0,384.0L535.0,440Z" fill="#f5e6c8" opacity="0.8"/><text x="490" y="480" font-size="13" fill="#f5e6c8" text-anchor="middle" font-family="Georgia" letter-spacing="1.5">SOROS</text><path d="M705.0,440L705.0,384.0C710.0,358.0720.0,351.8732.0,349.0C740.0,337.8742.8,321.0739.2,307.0A18.0,18.0 0 1 1 760.8,307.0C757.2,321.0760.0,337.8768.0,349.0C780.0,351.8790.0,358.0795.0,384.0L795.0,440Z" fill="#f5e6c8" opacity="0.8"/><text x="750" y="480" font-size="13" fill="#f5e6c8" text-anchor="middle" font-family="Georgia" letter-spacing="1.5">GRAHAM</text><path d="M965.0,440L965.0,384.0C970.0,358.0980.0,351.8992.0,349.0C1000.0,337.81002.8,321.0999.2,307.0A18.0,18.0 0 1 1 1020.8,307.0C1017.2,321.01020.0,337.81028.0,349.0C1040.0,351.81050.0,358.01055.0,384.0L1055.0,440Z" fill="#f5e6c8" opacity="0.8"/><text x="1010" y="480" font-size="13" fill="#f5e6c8" text-anchor="middle" font-family="Georgia" letter-spacing="1.5">SIMONS</text><path d="M1225.0,440L1225.0,384.0C1230.0,358.01240.0,351.81252.0,349.0C1260.0,337.81262.8,321.01259.2,307.0A18.0,18.0 0 1 1 1280.8,307.0C1277.2,321.01280.0,337.81288.0,349.0C1300.0,351.81310.0,358.01315.0,384.0L1315.0,440Z" fill="#f5e6c8" opacity="0.8"/><text x="1270" y="480" font-size="13" fill="#f5e6c8" text-anchor="middle" font-family="Georgia" letter-spacing="1.5">DALIO</text><g transform="translate(150,700)"><text x="0" y="-10" font-size="14" fill="#d4af37" font-weight="bold">CAGR 50Y</text><path d="M0,150 Q200,130 400,90 Q600,40 800,15 L1200,0" fill="none" stroke="#d4af37" stroke-width="3"/></g><rect width="1600" height="1000" fill="url(#vig)"/></svg>