<svg xmlns="http://www.w3.org/2000/svg" viewBox="0 0 1600 1000"><defs><linearGradient id="bg" x1="0" y1="0" x2="0" y2="1"><stop offset="0" stop-color="#0a1814"/><stop offset="0.5" stop-color="#1a2820"/><stop offset="1" stop-color="#0d1218"/></linearGradient><radialGradient id="vig" cx="0.5" cy="0.5" r="0.7"><stop offset="0" stop-color="#000" stop-opacity="0"/><stop offset="1" stop-color="#000" stop-opacity="0.4"/></radialGradient></defs><rect width="1600" height="1000" fill="url(#bg)"/><text x="100" y="80" font-size="48" fill="#d4af37" font-weight="bold" letter-spacing="2">黄金时代</text><text x="100" y="115" font-size="16" fill="#f5e6c8" opacity="0.6">金砖·金条·金币·储备</text><path d="M150,790.0 L213.2,787.0 L276.3,784.1 L339.5,781.4 L402.6,778.9 L465.8,776.7 L528.9,774.8 L592.1,773.3 L655.3,772.1 L718.4,771.5 L781.6,771.3 L844.7,771.5 L907.9,772.3 L971.1,773.5 L1034.2,775.1 L1097.4,777.1 L1160.5,779.5 L1223.7,782.2 L1286.8,785.2 L1350.0,788.4" fill="none" stroke="#d4af37" stroke-width="2" stroke-linejoin="round" opacity="0.9"/><g transform="translate(250,500)"><polygon points="-60,-30 0,-50 60,-30 60,30 0,50 -60,30" fill="none" stroke="#d4af37" stroke-width="2.5"/><text x="0" y="5" font-size="22" fill="#d4af37" text-anchor="middle" font-weight="bold">999.9</text></g><g transform="translate(550,500)"><rect x="-60" y="-15" width="120" height="30" fill="none" stroke="#d4af37" stroke-width="2"/><text x="0" y="5" font-size="14" fill="#d4af37" text-anchor="middle" font-weight="bold">12.5 KG</text></g><g transform="translate(850,500)"><circle r="50" fill="none" stroke="#d4af37" stroke-width="3"/><text x="0" y="15" font-size="36" fill="#d4af37" text-anchor="middle" font-weight="bold" font-family="Georgia">$</text></g><rect width="1600" height="1000" fill="url(#vig)"/></svg>